<?xml version="1.0" encoding="UTF-8" standalone="no"?>
<!-- Created with Inkscape (http://www.inkscape.org/) -->
<!--  width="243.41713mm"
   height="173.24414mm" -->
<svg
  
   viewBox="0 0 243.41713 173.24414"
   version="1.1"
   id="svg2686"
   inkscape:version="1.2 (dc2aedaf03, 2022-05-15)"
   sodipodi:docname="boulder.svg"
   xmlns:inkscape="http://www.inkscape.org/namespaces/inkscape"
   xmlns:sodipodi="http://sodipodi.sourceforge.net/DTD/sodipodi-0.dtd"
   xmlns="http://www.w3.org/2000/svg"
   xmlns:svg="http://www.w3.org/2000/svg">
  <sodipodi:namedview
     id="namedview2688"
     pagecolor="#505050"
     bordercolor="#eeeeee"
     borderopacity="1"
     inkscape:showpageshadow="0"
     inkscape:pageopacity="0"
     inkscape:pagecheckerboard="0"
     inkscape:deskcolor="#505050"
     inkscape:document-units="mm"
     showgrid="false"
     inkscape:zoom="1.0419012"
     inkscape:cx="408.86794"
     inkscape:cy="368.07712"
     inkscape:window-width="1920"
     inkscape:window-height="1002"
     inkscape:window-x="-8"
     inkscape:window-y="-8"
     inkscape:window-maximized="1"
     inkscape:current-layer="layer1" />
  <defs
     id="defs2683" />
  <g
     inkscape:label="Layer 1"
     inkscape:groupmode="layer"
     id="layer1"
     transform="translate(12.892305,-66.498374)">
    <path
       id="path2309"
       style="fill:#f1f2da;fill-opacity:1;stroke-width:0.264583"
       d="m 170.58051,66.501775 c -0.74332,-0.0083 -1.47744,-0.0016 -2.02314,0.02222 l -1.98437,0.0863 -1.31413,3.059245 c -1.4964,3.483753 -3.47535,6.340443 -6.4084,9.250598 -2.07627,2.060196 -4.26503,3.420728 -6.96185,4.326867 -2.44398,0.821236 -6.34295,0.661395 -8.55296,-0.350366 -1.06584,-0.487945 -1.55264,-0.601406 -1.61644,-0.376721 -0.83654,2.946126 -2.51478,5.508844 -4.8333,7.379911 -5.82498,4.700917 -8.30837,6.568813 -11.32334,8.516276 -1.30968,0.845982 -3.45281,2.355545 -4.7625,3.354835 -3.40297,2.59657 -5.98852,4.06107 -9.98957,5.65805 -1.92729,0.76925 -4.7819,2.01121 -6.34328,2.76004 -3.49398,1.67569 -4.36886,2.66392 -6.039942,6.82181 -1.168257,2.90671 -3.355907,6.44171 -4.854484,7.84448 -1.356977,1.27022 -6.596721,4.63844 -8.797912,5.65547 -4.369658,2.01892 -15.957899,5.90677 -22.758818,7.63571 l -4.014742,1.02061 -0.176217,1.603 c -0.09687,0.88149 -0.271639,2.04897 -0.388606,2.59467 -0.1623,0.75717 -0.128918,0.99219 0.140559,0.99219 0.19423,0 0.427949,-0.12083 0.519349,-0.26872 0.0914,-0.14791 0.273376,-0.20254 0.404626,-0.12144 0.13125,0.0811 1.343628,-0.24012 2.693892,-0.71365 2.161354,-0.75802 2.771677,-0.85892 5.100981,-0.84542 2.401134,0.0139 2.951724,0.11956 5.953125,1.14566 5.448395,1.86267 6.707439,2.93891 6.733439,5.75262 0.01123,1.21371 -0.08507,1.48865 -0.700215,1.99936 -0.46989,0.39021 -0.863002,1.13381 -1.152902,2.17972 -1.804334,6.50969 -3.92548,10.95145 -6.635254,13.89424 -2.081901,2.26095 -2.390357,2.75078 -3.372404,5.35988 -1.613984,4.2879 -6.418493,9.96348 -10.925431,12.90567 -4.934365,3.22124 -13.758307,5.18198 -24.608834,5.4684 l -5.339209,0.14108 -0.31781,1.35599 c -0.17475,0.74588 -0.780598,2.9038 -1.346688,4.79557 -1.170194,3.91068 -1.670134,6.67107 -1.435054,7.92406 0.14504,0.77313 0.340183,0.9288 1.942517,1.54978 0.979787,0.37971 2.853389,0.95162 4.163053,1.27072 2.827414,0.68891 4.2482,1.36026 7.324101,3.46181 1.779904,1.21609 4.020941,3.36114 4.873088,4.66431 0.03061,0.0468 0.275146,-0.0951 0.543636,-0.31522 1.712754,-1.40431 5.445377,-4.02399 6.493144,-4.55683 2.510901,-1.27693 7.144176,-3.02234 9.793717,-3.6897 1.497124,-0.37709 3.496229,-0.90837 4.442106,-1.18081 0.945867,-0.27232 4.160609,-1.17174 7.14375,-1.99832 2.983141,-0.82659 6.262514,-1.83508 7.287411,-2.24121 2.052364,-0.81328 7.261081,-3.58396 9.094535,-4.83743 2.344614,-1.60294 8.144304,-4.33739 11.267012,-5.31234 1.746237,-0.54518 5.199071,-1.66268 7.672921,-2.48357 4.17414,-1.38512 4.67891,-1.49275 7.01145,-1.50275 2.16567,-0.009 2.71643,0.0846 3.98064,0.67645 2.19277,1.0265 3.22547,2.0861 4.51704,4.63434 1.15083,2.27055 1.15914,2.3081 1.13584,4.96455 -0.0165,1.87719 -0.19525,3.29296 -0.59841,4.7408 -0.92234,3.31233 -1.51355,3.98932 -4.32221,4.94543 -1.61556,0.55002 -3.38998,1.80659 -3.38998,2.40089 0,0.21224 1.11006,0.65846 2.24896,0.90382 1.26682,0.2729 5.21163,2.00541 6.15156,2.70165 0.56269,0.4168 0.8599,0.86065 0.8599,1.28467 0,0.5745 -0.1146,0.64802 -1.01028,0.64802 -1.53849,0 -3.52448,-0.6848 -6.19858,-2.13785 -2.7225,-1.47927 -3.32965,-1.95089 -3.67575,-2.85616 -0.37179,-0.97232 0.68549,-2.10795 3.61063,-3.8778 3.12111,-1.88821 3.60585,-2.63514 3.77135,-5.81256 0.21855,-4.19619 -1.06752,-7.79599 -3.18999,-8.9302 -1.01558,-0.54279 -1.46016,-0.59371 -5.08134,-0.58291 -4.74578,0.0141 -5.52762,0.19225 -12.657626,2.88457 -4.819385,1.81991 -8.764999,3.61384 -10.242786,4.6576 -1.182154,0.83497 -7.893807,4.16215 -10.131681,5.02243 -4.763165,1.83104 -8.735923,3.20382 -13.269991,4.58577 -12.532611,3.81985 -16.519215,5.40509 -18.994706,7.55458 -0.46715,0.40563 -1.027639,0.79614 -1.245919,0.86764 -0.21828,0.0715 0.436571,0.27369 1.455208,0.44959 2.847684,0.49176 8.439613,2.09518 11.377084,3.26233 9.33198,3.70791 16.351772,5.55171 24.473958,6.42803 5.218115,0.56308 7.127438,0.49187 14.024467,-0.52503 11.485492,-1.69343 21.600052,-3.77456 25.398452,-5.22604 1.52797,-0.58389 4.24374,-1.45796 6.03529,-1.94251 1.79156,-0.48455 3.62538,-1.09625 4.0752,-1.35909 1.32298,-0.77306 1.87657,-2.18235 2.07429,-5.27978 0.19582,-3.06774 0.55764,-3.8856 1.98231,-4.48087 1.30211,-0.54405 2.66703,-0.46392 5.31596,0.31213 7.82051,2.29118 10.31136,2.4702 13.19299,0.94723 2.29512,-1.21299 3.029,-1.07449 1.04438,0.19688 -3.00412,1.92466 -4.81555,2.0373 -10.96626,0.68265 -5.27928,-1.16275 -6.82749,-1.20139 -7.9499,-0.19844 -1.22967,1.0988 -1.30726,2.3929 -0.27853,4.639 0.45101,0.98459 0.8201,1.9661 0.8201,2.18074 0,0.55038 1.10196,0.49762 3.59565,-0.17156 4.94134,-1.32632 4.98681,-1.33007 8.3106,-0.7426 1.67349,0.29586 4.06569,0.88056 5.31596,1.29915 2.6726,0.89484 8.52708,4.17281 13.20487,7.39386 1.81901,1.25255 4.02167,2.74173 4.8948,3.30936 3.60579,2.34423 7.19571,5.80808 8.86199,8.55039 l 0.52296,0.85989 h -1.45159 c -0.79822,0 -1.45107,-0.10681 -1.45107,-0.23771 0,-0.64993 -2.3593,-3.223 -5.18263,-5.65237 -3.663,-3.15188 -4.13457,-3.45141 -8.261,-5.24412 -1.70114,-0.73912 -4.9383,-2.29389 -7.19387,-3.45561 -6.33135,-3.26075 -6.8381,-3.44181 -10.05417,-3.59047 -2.34402,-0.10836 -3.52243,0.004 -7.54062,0.72295 -2.61938,0.46833 -5.95313,1.05572 -7.40834,1.30535 -2.65811,0.45601 -3.12105,0.75529 -1.78128,1.1529 0.39741,0.11794 1.67545,0.49298 2.83962,0.83354 1.16403,0.34055 3.30729,0.97162 4.7625,1.4025 12.57801,3.72423 17.41103,4.87928 24.60625,5.87922 3.68763,0.51251 5.8531,0.98678 5.61102,1.22887 -0.0699,0.0699 -1.06347,-0.0523 -2.20761,-0.27182 -1.14427,-0.21948 -2.8544,-0.46252 -3.80029,-0.54002 -3.45074,-0.2826 -10.63732,-1.78481 -15.74271,-3.29024 -1.45521,-0.4291 -5.80098,-1.6448 -9.65729,-2.70216 -5.83267,-1.59916 -7.43399,-1.94091 -9.525,-2.03191 -2.46285,-0.10717 -2.58037,-0.0847 -5.82083,1.12551 -1.81901,0.6793 -3.87599,1.30253 -4.57078,1.38493 -0.69479,0.0824 -1.2121,0.20073 -1.1498,0.26303 0.0623,0.0623 1.76157,0.33467 3.77651,0.60565 2.01495,0.27096 6.93821,1.10453 10.9399,1.85156 4.00183,0.74714 7.93089,1.47862 8.73125,1.62575 2.02763,0.37263 5.30098,1.20792 7.80521,1.99161 5.43039,1.69928 16.40459,4.83715 18.78542,5.37124 1.45508,0.32646 2.76488,0.71102 2.91041,0.85421 0.40554,0.39941 12.10307,0.14953 12.24008,-0.26148 0.0784,-0.23518 1.3383,-0.32091 4.71496,-0.32091 3.62034,0 4.6085,-0.0742 4.6085,-0.34623 0,-0.19044 0.84518,-1.52989 1.87844,-2.97656 3.37081,-4.71949 3.70443,-5.79366 3.02721,-9.74463 l -0.46199,-2.69544 0.6966,-1.65468 c 0.4038,-0.95936 0.86131,-2.82723 1.0883,-4.44521 0.29699,-2.11554 0.66948,-3.44158 1.541,-5.48183 1.33712,-3.13055 1.75544,-5.19704 1.75544,-8.68009 0,-2.51512 -0.68869,-7.10031 -1.44952,-9.65161 -0.66582,-2.23269 -2.11333,-5.16643 -3.26905,-6.62595 -3.05462,-3.85761 -5.90929,-9.71227 -7.8419,-16.08119 -2.76635,-9.11656 -2.60702,-18.21092 0.51987,-29.6199 0.82709,-3.01831 2.11979,-6.78177 6.58254,-19.16937 0.8051,-2.2348 1.71236,-5.0923 2.01641,-6.35 1.26511,-5.23315 2.33677,-7.56697 4.87671,-10.62106 2.24736,-2.70228 3.97122,-4.256337 5.62188,-5.068941 1.4953,-0.736127 1.94122,-0.830829 3.8008,-0.806669 1.37383,0.01784 2.10685,-0.07406 2.10685,-0.264066 0,-0.397142 -4.63354,-11.880001 -5.40949,-13.405901 -2.19622,-4.318867 -6.01282,-8.775659 -9.53275,-11.131103 -1.8374,-1.229495 -6.08085,-3.487463 -7.19905,-3.830774 -0.4342,-0.133311 -1.02462,0.138751 -2.38125,1.097091 -0.99214,0.700857 -2.49967,1.688867 -3.35018,2.195215 -1.7565,1.045707 -4.79651,4.11356 -6.10247,6.158797 -2.28392,3.576763 -3.657,7.016916 -4.35581,10.912512 -0.27553,1.535984 -0.57414,2.866549 -0.66404,2.956409 -0.39878,0.398764 -0.44882,-0.292293 -0.16071,-2.217436 0.68961,-4.60806 3.55224,-11.574294 6.20789,-15.105538 2.00362,-2.664236 3.11226,-3.41838 8.4739,-5.76554 l 1.05833,-0.463537 -0.92604,-0.191203 c -0.50932,-0.105336 -2.11679,-0.494484 -3.57187,-0.864547 -1.45521,-0.37005 -3.92494,-0.87582 -5.48804,-1.123962 l -2.8422,-0.451135 -0.5178,0.627352 c -0.28476,0.34507 -1.41107,2.115659 -2.50321,3.934643 -1.09215,1.818985 -2.9738,4.795598 -4.18114,6.614583 -1.8936,2.85293 -2.41904,3.452692 -3.82561,4.365625 -11.17875,7.255734 -10.9642,7.090324 -12.86743,9.932211 -0.67447,1.0071 -1.54428,1.933664 -2.11666,2.255159 -0.57463,0.322778 -1.68837,1.511863 -2.72594,2.910417 -0.96475,1.300551 -2.48472,3.197128 -3.37757,4.214728 -0.89286,1.01759 -1.92081,2.19833 -2.28461,2.62362 -3.56378,4.16598 -8.87848,9.62281 -11.30112,11.60342 -13.65449,11.16309 -25.94753,22.45092 -27.73423,25.46615 -0.34608,0.58406 -0.81158,1.8342 -1.03404,2.77812 -0.84969,3.60515 -0.38009,5.4301 1.8371,7.14065 1.3477,1.03984 1.72465,1.52318 1.71565,2.204 -0.002,0.17 -0.153,0.0142 -0.33538,-0.34623 -0.18239,-0.36045 -1.08752,-1.1824 -2.01124,-1.82676 -1.95243,-1.36194 -2.41174,-2.21843 -2.41174,-4.49327 0,-2.328 0.82913,-4.63358 2.43964,-6.78305 1.87447,-2.50163 13.28924,-14.03596 16.78451,-16.9602 10.08303,-8.43572 17.34187,-15.50189 24.4321,-23.784081 3.6964,-4.317972 4.38183,-5.655512 4.15892,-8.113717 -0.13451,-1.483337 -0.0924,-1.661242 0.53175,-2.239656 0.52745,-0.488822 0.97775,-0.629336 2.0283,-0.633036 1.42096,-0.005 1.44749,-0.01712 6.3779,-2.898531 6.53175,-3.817133 9.81494,-7.397412 14.38465,-15.684831 0.62214,-1.128249 1.39043,-2.199825 1.70739,-2.38125 0.50556,-0.28937 0.31674,-0.345936 -1.53995,-0.461988 -0.58209,-0.03638 -1.3346,-0.05941 -2.07791,-0.0677 z m -5.06998,0.107487 c -0.0839,0.0043 -0.19926,0.0261 -0.32659,0.0646 -0.25466,0.077 -1.46376,0.26257 -2.68666,0.412378 -5.11357,0.626409 -11.2224,3.734402 -14.90503,7.583516 -1.43862,1.503606 -5.49321,6.650384 -5.49321,6.972701 0,0.270298 1.90578,1.04291 3.30729,1.341004 0.58209,0.1238 2.01083,0.162107 3.175,0.08475 2.8751,-0.191088 5.67373,-1.29556 8.28684,-3.270085 2.22005,-1.677619 5.40729,-5.318686 6.13037,-7.003706 0.25147,-0.586003 0.69705,-1.601351 0.99064,-2.256194 1.00848,-2.249366 1.65778,-3.771297 1.65778,-3.887618 0,-0.03203 -0.0525,-0.0456 -0.13643,-0.04134 z m -6.86831,3.399793 c 0.22981,0 -0.66845,1.943061 -1.13843,2.462382 -0.24748,0.273466 -0.68971,0.612587 -0.98237,0.753959 -0.29268,0.14137 -0.14821,-0.0778 0.32091,-0.487309 0.46912,-0.409498 1.03633,-1.191142 1.26039,-1.736845 0.22405,-0.545691 0.4667,-0.992187 0.5395,-0.992187 z m 35.4707,3.723804 c 0.13224,-0.0069 0.22534,0.0093 0.26872,0.05271 0.0728,0.07276 -0.72776,0.393259 -1.77922,0.712618 -3.49191,1.060622 -5.73772,4.070475 -6.62337,8.876978 -0.27215,1.476986 -0.25542,1.75816 0.13591,2.294434 3.44598,4.72231 3.59216,5.692514 1.88567,12.50673 -1.27455,5.089391 -1.08134,4.766681 -3.86695,6.480741 -0.93257,0.57392 -1.40548,1.12221 -1.98437,2.30115 -0.74427,1.5164 -0.76048,1.63612 -0.75448,5.91333 l 0.006,4.36563 1.0108,2.64583 c 2.26329,5.9241 2.35776,6.26131 2.38796,8.50801 0.0268,1.99334 -0.0318,2.24559 -0.76894,3.30729 -0.60526,0.87179 -1.33938,1.43136 -3.03961,2.31769 -3.2093,1.673 -6.94279,5.40096 -8.30027,8.28735 -1.19955,2.55058 -1.60455,3.75639 -2.13268,6.35 -0.9559,4.69436 -1.08394,8.81363 -0.37621,12.09694 0.87428,4.05592 0.76371,7.53175 -0.31833,10.01437 -0.27833,0.63862 -1.52731,2.20973 -2.83962,3.57188 -4.24953,4.41087 -5.94666,8.05747 -5.8322,12.53257 0.0611,2.38799 -0.12056,2.83742 -2.65875,6.56755 -4.58905,6.74435 -8.42213,9.23906 -14.18518,9.23406 -2.28281,-0.002 -3.22667,-0.15861 -6.87917,-1.14256 -3.6835,-0.99236 -4.61125,-1.14516 -7.14375,-1.17616 -3.2769,-0.0401 -3.93922,0.22702 -4.75371,1.91823 l -0.4315,0.89555 0.87281,-0.17673 c 0.47993,-0.0972 1.54451,-0.24786 2.36575,-0.33486 1.43265,-0.15181 1.55445,-0.11434 3.00085,0.92139 0.98729,0.70698 2.0239,1.18728 3.00447,1.39268 0.82348,0.1725 2.39055,0.53938 3.48196,0.81494 1.09141,0.27558 3.93625,0.73313 6.32209,1.01699 2.38583,0.28386 4.3998,0.57832 4.4757,0.65422 0.37092,0.37094 -7.96416,-0.73648 -12.10779,-1.60869 -3.1755,-0.66828 -3.74203,-0.87456 -5.25859,-1.91306 -1.85177,-1.26794 -1.83789,-1.26631 -5.13096,-0.53795 -0.83197,0.184 -1.59143,0.2561 -1.68723,0.1602 -0.36361,-0.3636 1.10438,-2.72105 2.14199,-3.43958 2.18405,-1.51277 5.13398,-1.49505 10.05365,0.061 4.38448,1.38647 5.26012,1.47001 8.37365,0.79789 2.97771,-0.64283 4.04522,-1.07368 4.42298,-1.78491 0.13446,-0.25317 0.24818,-1.3534 0.25218,-2.44481 0.01,-2.44965 1.10204,-7.16619 2.18488,-9.43508 0.46419,-0.97262 1.58957,-2.5215 2.75177,-3.78737 2.18754,-2.38255 3.49125,-4.73148 4.02146,-7.24503 l 0.34262,-1.62523 -0.13488,1.5875 c -0.18484,2.1746 -1.49442,4.78194 -3.74396,7.45433 -1.00126,1.18946 -2.07681,2.67774 -2.39003,3.30729 -0.56823,1.14213 -1.74933,5.9068 -2.07739,8.37985 -0.20837,1.57077 0.2523,3.216 0.9002,3.21582 0.47435,-1.4e-4 4.17306,-3.47596 6.13089,-5.7614 1.55369,-1.81367 1.80472,-2.47097 2.12184,-5.55367 0.30552,-2.97102 0.96031,-5.14679 2.44636,-8.1318 0.82729,-1.66179 1.6114,-2.68526 3.64939,-4.7625 1.42772,-1.4552 2.70584,-2.9435 2.84013,-3.30729 0.1343,-0.36381 0.39737,-2.14974 0.58446,-3.96875 0.31891,-3.10064 0.30278,-3.53877 -0.25838,-7.01146 -0.68563,-4.24299 -0.62217,-7.18558 0.23771,-11.01535 0.63582,-2.83183 2.56205,-7.46159 3.81372,-9.16688 1.68974,-2.30189 5.27789,-5.51292 7.2962,-6.52932 2.57571,-1.29711 3.29587,-2.39271 3.42408,-5.21105 0.11104,-2.44077 -0.37156,-4.25438 -2.3704,-8.91263 -1.51995,-3.54238 -1.88553,-5.5152 -1.53685,-8.292 0.29101,-2.31758 0.62465,-3.41435 1.49603,-4.9196 0.77442,-1.33774 2.67254,-2.97088 3.45302,-2.97088 0.30385,0 0.62053,-0.11024 0.70383,-0.24494 0.0832,-0.13471 0.63666,-1.89088 1.22938,-3.902608 0.80538,-2.733461 1.11417,-4.307241 1.22215,-6.229077 0.13552,-2.412161 0.0996,-2.663018 -0.57361,-4.03903 -0.39475,-0.806829 -1.12451,-1.898582 -1.62212,-2.426209 -1.09662,-1.162725 -1.13654,-1.833377 -0.27492,-4.606437 0.94356,-3.036778 1.5809,-4.021963 3.79718,-5.871476 0.9662,-0.806248 3.79914,-1.980864 4.72478,-2.029333 z m -39.31388,0.523482 c 0.21828,0.0037 0.0169,0.17216 -0.44752,0.374137 -0.46442,0.201977 -1.15346,0.856877 -1.53117,1.455208 -0.37772,0.598344 -0.98811,1.202182 -1.35599,1.342037 -0.9034,0.343478 -1.88512,0.320513 -2.11357,-0.04909 -0.13187,-0.213361 0.0204,-0.250931 0.51367,-0.127124 1.26681,0.317936 2.00039,-0.06986 2.68407,-1.419035 0.60338,-1.190688 1.1799,-1.594321 2.25051,-1.576131 z m 28.55123,4.450374 c 0.0397,0.03659 -0.0665,0.261567 -0.36897,0.719853 -1.24092,1.880181 -2.65436,4.314384 -3.21221,5.531445 -1.05299,2.297299 -2.16467,7.637832 -2.72593,13.096875 -0.29175,2.837652 -0.82474,6.409542 -1.18442,7.937502 -0.35969,1.52797 -0.89093,3.96875 -1.18081,5.42396 -0.54625,2.74214 -1.30451,6.17896 -2.71456,12.30312 -0.45231,1.96453 -1.39136,6.0722 -2.0867,9.12813 -2.21304,9.72645 -3.83749,12.80616 -9.55807,18.11879 -8.18645,7.60263 -9.5509,9.32049 -11.47889,14.45131 -1.48408,3.94992 -2.20073,8.25727 -2.39313,14.39344 -0.21232,6.7714 -0.74283,8.90647 -2.79363,11.24221 -1.14504,1.30398 -3.80766,2.72561 -5.96036,3.18171 -3.45279,0.73159 -7.07891,0.3219 -8.46977,-0.95704 -1.94741,-1.79083 -2.25997,-5.04894 -0.92345,-9.63042 1.60665,-5.50804 2.5021,-8.2404 3.07733,-9.39271 1.90224,-3.81055 2.93368,-9.90594 2.52594,-14.92777 -0.24428,-3.00866 -0.55478,-3.32848 -3.22977,-3.32848 -2.20649,0 -4.78465,0.79746 -7.80573,2.41432 -7.05329,3.77493 -8.47294,4.10249 -14.12524,3.25975 -5.14979,-0.76785 -9.632872,-1.73711 -11.092859,-2.39882 -3.081751,-1.39674 -5.087152,-4.59176 -5.127852,-8.17004 -0.0304,-2.6743 0.780121,-4.80896 2.762105,-7.27605 1.054997,-1.31308 2.254716,-3.33761 3.54707,-5.98568 1.751916,-3.58954 2.115796,-4.14503 3.534666,-5.39398 2.4858,-2.18809 2.84484,-3.63056 1.22732,-4.93252 -1.60687,-1.29337 -2.16105,-3.77251 -1.11466,-4.98626 0.52281,-0.60643 1.15154,-0.80004 5.16247,-1.59111 4.90587,-0.96755 6.31962,-1.45867 7.7494,-2.69183 1.21309,-1.04627 3.55515,-2.75074 6.32313,-4.60075 1.24408,-0.83149 3.21489,-2.37026 4.37906,-3.41995 1.16417,-1.04969 3.53194,-3.05103 5.26169,-4.44727 1.72989,-1.39624 3.36201,-2.89557 3.62717,-3.33158 1.05199,-1.72987 1.14006,-4.662691 0.16898,-5.633767 -0.20548,-0.205468 -1.07761,-0.557254 -1.93786,-0.781864 -1.44065,-0.37615 -1.94649,-0.692595 -1.95699,-1.223698 -0.002,-0.112496 0.26428,-0.03 0.5917,0.182935 0.32742,0.212923 1.25016,0.463168 2.05052,0.556038 2.75549,0.319762 3.52571,0.966665 3.97598,3.340881 0.38514,2.030815 -0.11258,3.099645 -0.82424,1.769915 -0.29275,-0.54702 -0.32185,-0.52792 -0.65009,0.42685 -0.41132,1.19647 -1.12118,1.97051 -4.08915,4.45709 -1.23693,1.03632 -3.26099,2.79432 -4.49792,3.90674 -1.23692,1.11242 -3.97537,3.24701 -6.08542,4.74286 -2.10993,1.49598 -4.55083,3.28339 -5.42395,3.97237 -2.31494,1.82674 -3.41834,2.29658 -7.13187,3.03548 -1.83444,0.36488 -3.67863,0.84097 -4.09794,1.05781 -0.8186,0.42331 -1.86707,1.60514 -1.86707,2.10427 0,0.1679 0.70701,1.10152 1.57096,2.0748 1.62589,1.83161 1.7068,2.10401 1.09916,3.7021 -0.12785,0.33627 -0.90178,1.28109 -1.71979,2.0991 -0.82592,0.82592 -1.73162,2.05722 -2.03657,2.76882 -1.03174,2.408 -2.704221,5.5137 -3.987868,7.4042 -1.364594,2.00986 -2.334224,4.95929 -2.334224,7.10086 0,1.32345 0.623749,3.5231 1.477946,5.21002 0.540017,1.06645 0.822283,1.30864 2.06344,1.77302 2.499006,0.935 6.954796,1.43745 11.407576,1.28622 4.66736,-0.15852 6.62167,-0.57445 12.65349,-2.69234 3.60363,-1.26535 4.45183,-1.46899 6.08541,-1.46399 2.52305,0.008 3.89324,0.35429 4.58629,1.15755 0.86411,1.00152 1.70737,3.48336 1.98644,5.84771 0.4426,3.74977 -0.70655,10.53396 -2.41587,14.26631 -1.17161,2.55804 -1.85389,5.24388 -2.02262,7.95869 -0.14523,2.33665 0.19353,6.60361 0.55294,6.96185 0.65895,0.65668 6.66497,-0.38896 7.52305,-1.31 0.90803,-0.97466 1.20636,-2.72087 2.13992,-12.53102 0.5313,-5.58225 1.62821,-9.49124 3.98271,-14.19345 2.05687,-4.10768 4.33265,-6.72111 9.47384,-10.87892 3.93803,-3.18498 5.23813,-4.4926 6.74946,-6.78667 1.66501,-2.52742 2.40746,-4.09406 4.331,-9.14104 2.46644,-6.47163 3.90563,-10.75779 4.57853,-13.63638 0.32317,-1.38245 1.46053,-6.08542 2.52749,-10.45104 1.9443,-7.95424 2.48842,-10.82884 3.02928,-16.007292 0.29811,-2.854214 0.83169,-5.775097 1.3534,-7.408333 0.56898,-1.781241 2.26245,-4.910335 3.65146,-6.746875 0.95807,-1.266775 1.75083,-2.09847 1.83813,-2.017965 z m -37.53879,9.823173 c 0.14096,0 0.25631,0.293418 0.25631,0.652157 0,0.823617 -1.33136,2.355545 -2.74867,3.163114 -1.25261,0.713719 -2.45065,1.04627 -2.64376,0.733805 -0.0732,-0.118404 0.21574,-0.947168 0.64182,-1.841748 0.73576,-1.544717 1.37742,-2.190906 2.15335,-2.167826 0.19147,0.0057 -0.0207,0.170751 -0.47129,0.366903 -0.56342,0.245342 -0.95576,0.698278 -1.25677,1.450557 -0.87247,2.180482 -0.38694,2.332944 2.09858,0.660425 1.43834,-0.967814 2.13132,-1.929978 1.87327,-2.602425 -0.0876,-0.228098 -0.0438,-0.414962 0.0972,-0.414962 z m -1.33119,0.299207 c 0.11989,0 0.23978,0.01808 0.33073,0.05478 0.1819,0.0734 0.0331,0.133325 -0.33073,0.133325 -0.36383,0 -0.51263,-0.05992 -0.33073,-0.133325 0.091,-0.0367 0.21084,-0.05478 0.33073,-0.05478 z m 22.97741,1.028877 c 1.72619,-0.0062 2.77316,0.556903 3.41013,1.835031 0.57898,1.161733 0.79635,7.318862 0.34261,9.702767 -0.16267,0.85466 -0.53191,2.84455 -0.82062,4.42195 -0.2887,1.5774 -0.82917,3.60147 -1.20148,4.49792 -1.18828,2.8612 -1.69343,4.47503 -2.24275,7.17062 -0.29489,1.44703 -0.6446,2.81611 -0.77722,3.04271 -0.33481,0.57214 -0.31805,-0.0559 0.0264,-0.95963 0.1559,-0.40965 0.39292,-1.63763 0.52658,-2.72904 0.52632,-4.29757 0.6901,-5.03253 1.25832,-5.63738 0.31294,-0.33311 0.80252,-1.28388 1.08779,-2.11305 0.5924,-1.72171 1.20979,-5.54509 0.98857,-6.12159 -0.0815,-0.21246 -0.57146,-0.46575 -1.0883,-0.56275 -0.51697,-0.097 -0.93948,-0.26552 -0.93948,-0.37466 0,-0.10916 0.54486,-0.0738 1.21078,0.0786 1.42152,0.32529 1.57968,0.18113 1.82469,-1.66088 0.21383,-1.607584 -0.26861,-5.988147 -0.84904,-7.711157 -1.10009,-3.265533 -3.40124,-3.280324 -8.47907,-0.05374 -4.29795,2.730919 -7.6161,7.127004 -9.87485,13.083437 -0.56399,1.48729 -1.1752,2.79917 -1.35857,2.91558 -0.18338,0.11641 -0.67494,0.21401 -1.09193,0.21601 -0.53609,0.003 -1.03984,0.3047 -1.71979,1.03095 -1.41171,1.5077 -2.76746,2.27514 -5.67666,3.2122 -1.72209,0.55474 -2.91919,1.11856 -3.55017,1.67225 -0.5236,0.45947 -2.1621,2.68108 -3.64112,4.93665 -2.67877,4.08542 -5.1669,7.84856 -6.54585,9.90069 -1.56716,2.33223 -2.33429,5.78091 -1.36839,6.15156 0.86197,0.33078 3.86605,-0.82964 10.16372,-3.92637 10.8913,-5.35583 18.53984,-8.40511 21.624,-8.62118 2.36334,-0.16557 3.24705,0.16721 4.00027,1.5074 0.62422,1.11064 0.70565,2.04009 0.30231,3.45457 -0.66729,2.34018 -1.2761,2.02301 -1.58905,-0.82786 -0.18101,-1.64903 -0.32102,-2.03004 -0.9462,-2.5678 -0.58835,-0.50581 -0.94753,-0.6068 -1.81022,-0.5085 -1.01229,0.11531 -4.63449,1.71783 -7.29361,3.22668 -0.65484,0.37158 -2.38125,1.10449 -3.83646,1.62884 -3.49393,1.25896 -7.25953,3.16004 -9.43302,4.7625 -3.47116,2.55929 -11.44167,7.70108 -13.80381,8.90488 -1.78373,0.90918 -7.06094,2.56327 -8.82736,2.76676 l -1.10795,0.12764 -0.83922,-1.67897 c -1.59248,-3.18641 -2.36112,-3.48999 -4.73976,-1.86965 -1.81866,1.23881 -2.48761,2.32179 -2.24224,3.62975 0.28845,1.53759 1.54743,2.63476 3.82612,3.33468 3.74172,1.14929 6.33102,0.79134 12.75994,-1.76423 3.98465,-1.58392 5.20341,-1.75564 9.37721,-1.32085 2.33142,0.24287 3.63465,-0.11652 4.16925,-1.15032 0.20615,-0.39866 0.55251,-0.87269 0.76998,-1.05316 0.60504,-0.50215 8.4423,-2.90569 10.53114,-3.22978 2.66023,-0.41275 2.49334,-0.13985 -0.23978,0.39222 -1.27444,0.24813 -3.97801,0.99983 -6.0079,1.67019 -3.62025,1.1956 -4.15417,1.50523 -5.2095,3.02617 -0.4286,0.61726 -0.48633,0.62435 -5.29167,0.62735 l -4.8581,0.003 -3.41684,1.40818 c -1.87919,0.7745 -4.3093,1.63613 -5.40019,1.91513 -2.29302,0.58645 -3.74319,0.61034 -6.0911,0.10077 -3.42929,-0.74428 -5.33301,-2.37794 -5.33301,-4.57646 0,-1.2421 0.67777,-2.17133 2.62723,-3.60237 2.16838,-1.59173 3.25174,-1.15743 4.88962,1.95957 0.53852,1.02481 1.08174,1.86345 1.20768,1.86345 0.4705,0 6.80735,-1.88318 8.17108,-2.42827 0.77947,-0.31157 2.1138,-1.07951 2.96519,-1.70636 0.85152,-0.62685 2.57725,-1.80331 3.8344,-2.61431 2.75519,-1.77748 5.22257,-3.57999 5.08651,-3.71605 -0.0545,-0.0545 -1.24833,0.37364 -2.65255,0.95188 -2.86064,1.17786 -5.22401,1.54953 -6.28076,0.98754 -2.00564,-1.06663 -1.05264,-3.98928 3.17035,-9.72189 0.80036,-1.08647 1.93146,-2.7242 2.51354,-3.63905 2.06608,-3.24768 4.98164,-7.36471 5.92367,-8.36487 1.13841,-1.20867 2.21527,-1.78246 4.52737,-2.41329 2.54105,-0.69326 3.69641,-1.34348 5.06946,-2.85305 1.05758,-1.16286 1.37548,-1.35796 2.23811,-1.37356 0.99948,-0.0181 1.00909,-0.0293 1.6924,-1.87689 1.18538,-3.20523 3.99319,-8.257971 5.72007,-10.293427 1.91522,-2.257597 3.41276,-3.405447 6.75876,-5.181596 2.05957,-1.093348 2.69921,-1.309932 3.88038,-1.314132 z m -50.01607,3.45302 c -0.42036,-0.0046 -0.89245,0.01268 -1.4888,0.04031 -3.37188,0.156229 -5.65361,1.043248 -7.2378,2.814816 -0.60357,0.674963 -1.01614,1.002469 -0.91674,0.727604 0.16598,-0.459095 0.0788,-0.485832 -1.07538,-0.327629 -2.0696,0.28367 -5.94806,2.341556 -12.204944,6.475567 -2.015014,1.33135 -2.189588,1.51498 -2.031401,2.13734 0.4055,1.59523 0.440678,2.48738 0.145728,3.66438 -0.882767,3.52256 -9.263675,13.69781 -13.72371,16.66151 -2.124364,1.4117 -4.475908,2.14054 -7.947319,2.46342 -2.517431,0.23414 -2.921999,0.35276 -4.921663,1.4428 -1.849884,1.00838 -2.403616,1.18753 -3.667993,1.18753 -0.819027,0 -1.975869,-0.19465 -2.570386,-0.43253 -0.616047,-0.24654 -1.171471,-0.33184 -1.291911,-0.19844 -0.638047,0.70621 -1.166464,6.80357 -0.636137,7.33392 0.24174,0.24174 0.114739,0.26761 2.96261,-0.60203 1.402177,-0.42817 3.859428,-1.15046 5.460132,-1.60456 1.600704,-0.45411 4.041534,-1.33682 5.423958,-1.96215 1.382437,-0.62533 4.418574,-1.74419 6.746875,-2.48615 9.178653,-2.92499 13.080055,-4.84544 15.022339,-7.3949 1.813484,-2.38039 3.037693,-4.53407 3.71967,-6.54379 1.164407,-3.43123 3.073132,-6.59884 4.744412,-7.87238 1.44035,-1.09768 3.37094,-1.95334 6.34793,-2.81327 6.41803,-1.85383 10.92421,-4.28985 13.62553,-7.366472 0.83545,-0.951513 1.87648,-2.112592 2.31304,-2.580204 l 0.79375,-0.850078 -3.25975,-0.996838 c -2.27675,-0.696036 -3.07097,-0.903939 -4.33204,-0.917773 z m -2.22829,3.460254 c 0.10185,0.01494 0.12838,0.06584 0.0755,0.152445 -0.0914,0.147947 -0.51956,0.339554 -0.95085,0.425814 -0.62734,0.125494 -0.83782,0.352013 -1.05368,1.133781 -0.52681,1.907974 -2.40936,3.075564 -6.76134,4.193544 -0.86732,0.22279 -2.11748,0.39816 -2.77813,0.39016 -1.60938,-0.0199 -4.298501,-0.89834 -4.926828,-1.60973 -0.43265,-0.48982 -0.311713,-0.46107 0.815454,0.19431 1.243994,0.72329 1.496534,0.76833 4.233334,0.76533 2.67436,-0.003 3.08778,-0.0751 5.09788,-0.88109 2.40343,-0.96374 3.76566,-1.939016 3.76566,-2.695957 0,-0.705642 1.06215,-1.792898 1.9575,-2.004012 0.24697,-0.05822 0.42371,-0.07954 0.52555,-0.06459 z m 98.27152,1.571997 -0.83405,0.144694 c -6.20342,1.076693 -11.49288,7.055483 -13.66118,15.441953 -0.16932,0.65485 -1.0658,3.86954 -1.99213,7.14375 -0.92632,3.27409 -1.9263,7.02468 -2.22209,8.33437 -3.82353,16.9302 -4.40918,20.91108 -4.17907,28.4055 0.11848,3.85853 0.30166,5.65191 0.84233,8.23929 1.11767,5.34951 3.05887,10.75588 5.86579,16.33854 3.33766,6.63869 4.59811,10.76423 5.13457,16.80776 0.42431,4.77999 -0.57319,10.48464 -2.2655,12.95735 -0.56628,0.82742 -0.62876,1.08568 -0.37672,1.55649 0.39805,0.74376 0.18728,1.92598 -0.93896,5.27203 -0.84513,2.51088 -0.92969,3.03527 -0.93069,5.75314 -10e-4,3.58738 -0.49633,5.98359 -1.6614,8.0424 -1.04012,1.83815 -3.28809,4.23879 -4.40025,4.69946 -0.45046,0.1866 -0.81855,0.43005 -0.81855,0.54105 0,0.11104 4.27365,0.1859 9.49709,0.1664 l 9.49761,-0.0357 -0.8325,-0.81183 c -0.45776,-0.44666 -1.27194,-1.69681 -1.8092,-2.77813 -1.67742,-3.37635 -3.91659,-13.07435 -3.95479,-17.12919 -0.0193,-2.05323 0.0765,-2.55135 0.82527,-4.29534 1.64378,-3.82871 2.42751,-6.23595 3.05253,-9.37617 0.53182,-2.6721 0.86953,-3.63291 2.13682,-6.07405 1.37371,-2.64612 2.03614,-4.27755 4.76818,-11.74502 1.27809,-3.49345 1.64501,-6.17753 1.81539,-13.27464 0.1915,-7.97652 0.87155,-13.57942 2.27945,-18.78542 0.88608,-3.27646 3.34816,-7.01259 5.89163,-8.94054 l 0.75603,-0.57309 -0.28732,-3.11454 c -0.15788,-1.71299 -0.35545,-5.07906 -0.43925,-7.48016 -0.21077,-6.04307 -1.12316,-12.7 -1.74046,-12.7 -0.48737,0 -3.20845,2.82328 -3.90674,4.0535 -0.87888,1.54836 -2.32579,6.03636 -3.34192,10.36629 -0.3882,1.65422 -1.04885,3.59347 -1.53117,4.49275 -0.83512,1.55707 -0.88284,1.59486 -2.9931,2.38125 -3.20892,1.19581 -3.12454,1.11897 -5.85287,5.32629 -0.27746,0.4279 -0.28793,0.39653 -0.076,-0.21859 0.84533,-2.44901 2.89536,-4.72711 5.0307,-5.59088 3.02091,-1.2218 3.10706,-1.35286 4.49585,-6.83834 2.15212,-8.4996 3.8938,-11.95277 6.89312,-13.66583 l 1.279,-0.73019 -0.755,-2.23552 c -0.41503,-1.22953 -1.43162,-3.84287 -2.25877,-5.8074 -0.82727,-1.96453 -1.89979,-4.52438 -2.38332,-5.68854 -0.48354,-1.16417 -1.49514,-3.56976 -2.24844,-5.34593 z m -52.36114,1.578715 c 1.07419,0.0028 2.12783,0.338712 2.76727,1.006142 1.12031,1.16935 1.87878,5.59811 1.24437,7.26674 -0.13578,0.35711 -0.76085,0.99422 -1.38906,1.41593 -1.11015,0.74524 -1.14778,0.81757 -1.34307,2.57659 -0.48669,4.3835 -3.03122,7.27721 -6.41356,7.29361 -4.28921,0.0208 -14.86458,1.65879 -16.15096,2.50166 -0.31375,0.20558 -0.8876,1.00777 -1.27537,1.78283 -0.38778,0.77503 -0.63265,1.11156 -0.54415,0.74776 0.32342,-1.32906 1.05588,-2.50969 1.83089,-2.95176 1.12218,-0.64008 5.6666,-1.50157 10.31875,-1.95647 9.14999,-0.89472 8.75297,-0.76975 10.52546,-3.32227 0.85451,-1.23061 1.04728,-1.781 1.31826,-3.76825 l 0.3173,-2.32699 1.11673,-0.70848 c 0.61408,-0.38964 1.23562,-1.03782 1.38131,-1.44023 0.32264,-0.89102 -0.0757,-4.84627 -0.61909,-6.14691 -0.51583,-1.23454 -1.21991,-1.52975 -3.36207,-1.4087 -1.51055,0.0854 -1.92696,0.21383 -2.44946,0.75551 -0.68348,0.70857 -2.16532,4.06708 -3.73155,8.45788 -1.28126,3.59171 -2.09158,5.17699 -2.92437,5.72265 -0.36955,0.24215 -1.76759,0.72767 -3.10679,1.07901 -2.25131,0.59062 -2.5897,0.61484 -4.49223,0.32452 -2.4628,-0.37568 -3.66101,-0.22051 -4.78007,0.61909 -1.30134,0.97636 -1.68621,1.14255 -1.09968,0.47439 0.29105,-0.33154 0.99398,-0.84017 1.56218,-1.13017 0.9244,-0.47165 1.33467,-0.50768 3.90106,-0.34003 2.2824,0.14911 3.23331,0.0966 4.65552,-0.25786 3.72791,-0.92902 4.06212,-1.30813 5.99964,-6.80579 1.72681,-4.89964 2.98913,-7.67519 3.85196,-8.46873 0.7219,-0.66391 1.81659,-0.994443 2.89078,-0.991672 z M 130.862,100.22375 c 0.17832,0.17833 -2.33632,1.83049 -4.26641,2.80293 -0.85911,0.43292 -2.55006,1.09831 -3.75739,1.47898 -3.75417,1.18368 -3.47176,0.90723 -5.57434,5.45548 -0.30273,0.65485 -0.82147,1.35495 -1.1529,1.55598 l -0.60254,0.36586 0.5705,-0.63045 c 0.31377,-0.34655 0.96025,-1.56509 1.43713,-2.70836 1.17784,-2.82403 1.72637,-3.30073 5.02656,-4.37183 3.04459,-0.98797 4.6526,-1.73442 6.77323,-3.14244 0.77751,-0.51624 1.47336,-0.87895 1.54616,-0.80615 z m -39.235847,4.75216 c -0.186893,0.0328 -0.41368,0.18447 -0.706934,0.44649 -0.300407,0.26842 -1.915464,1.42089 -3.588928,2.5616 -3.830518,2.61106 -5.282668,3.63964 -7.276042,5.15317 -0.873117,0.66294 -2.420946,1.79443 -3.439583,2.51458 -2.160914,1.52772 -9.285197,7.21737 -11.773958,9.40304 -0.945877,0.83068 -2.492523,2.03336 -3.437,2.67271 -2.013674,1.36301 -2.241407,1.87752 -1.00614,2.27324 1.934644,0.61977 3.410588,0.31327 5.688542,-1.1808 1.648244,-1.08115 2.346161,-1.28426 5.638932,-1.64125 3.308261,-0.35866 4.612201,-0.77604 6.500895,-2.08152 4.146658,-2.8665 10.363915,-10.03096 13.135116,-15.13603 1.162917,-2.14238 1.364586,-2.98492 0.987536,-4.1274 -0.210531,-0.63794 -0.410947,-0.91252 -0.722436,-0.85783 z m 23.485907,6.93085 c 0.25397,-0.035 0.0693,0.0719 -0.62322,0.42529 -0.56078,0.28614 -1.16326,0.63908 -1.33842,0.78445 -0.17516,0.14537 -1.02101,0.44754 -1.87999,0.67128 -0.85898,0.22373 -1.98342,0.39182 -2.49855,0.37362 -0.80473,-0.0284 -0.75011,-0.0611 0.38654,-0.23203 2.01724,-0.30341 3.43691,-0.74423 4.13256,-1.28312 0.34642,-0.26836 0.98713,-0.56555 1.42369,-0.66095 0.1797,-0.0392 0.31273,-0.0669 0.39739,-0.0785 z m -33.873904,1.22938 c 0.34614,0 1.318,1.31793 1.49655,2.02933 0.19288,0.76849 -0.262766,1.48868 -2.52336,3.98994 -0.953507,1.05503 -1.864166,1.91823 -2.024166,1.91823 -0.28418,0 0.191808,-0.59493 2.961059,-3.69848 1.515227,-1.69818 1.603144,-2.35513 0.476457,-3.57085 -0.340607,-0.36751 -0.514537,-0.66817 -0.38654,-0.66817 z m 15.85433,14.2875 c 0.17006,0 -0.10717,0.41671 -0.6165,0.92604 -0.708867,0.70888 -1.145241,0.92604 -1.860868,0.92604 -0.66678,0 -0.934827,-0.11714 -0.934827,-0.40876 0,-0.32288 0.191613,-0.37306 0.913123,-0.23771 0.766577,0.14382 1.016363,0.061 1.551843,-0.51677 0.35098,-0.37858 0.777159,-0.68884 0.947229,-0.68884 z m 2.596224,3.17758 c 0.78595,0.004 -2.14706,1.2503 -3.704167,1.57355 -1.710394,0.35509 -2.078762,0.70594 -2.818949,2.68717 -0.3052,0.81695 -0.7905,1.69894 -1.078487,1.95957 -0.39378,0.35637 -0.523483,0.81462 -0.523483,1.84847 0,1.77359 -0.366743,2.78571 -1.76475,4.8705 -0.625907,0.93345 -1.192004,2.06456 -1.257804,2.51355 -0.06581,0.44899 -0.251081,1.70366 -0.411861,2.78794 -0.16079,1.08427 -0.530529,2.35597 -0.821139,2.82618 -0.290587,0.47021 -0.707932,1.72616 -0.927592,2.79105 -0.917587,4.44829 -2.079428,8.21382 -3.186885,10.32857 -0.63113,1.20507 -1.992262,3.91761 -3.025139,6.02753 -4.466785,9.12519 -4.882689,9.81615 -7.58765,12.61681 -3.069321,3.17778 -7.904575,6.06749 -14.604277,8.72763 -5.361092,2.12864 -14.179788,4.99026 -19.771403,6.41563 -1.188677,0.30299 -3.426513,0.97429 -4.97334,1.4919 -1.546824,0.51759 -3.710281,1.11297 -4.807458,1.32291 -2.262904,0.43296 -2.745483,0.46501 -2.733683,0.18294 0.02316,-0.55258 1.551095,-1.18851 3.631819,-1.51154 1.272107,-0.1975 3.053201,-0.66671 3.957898,-1.04283 0.904697,-0.37612 2.789055,-0.98131 4.187342,-1.34462 1.398284,-0.36331 3.470793,-1.1288 4.60592,-1.70119 1.135127,-0.57238 3.298968,-1.41721 4.808492,-1.8774 6.000862,-1.82939 8.013076,-2.68736 12.330514,-5.26015 1.421884,-0.84731 3.885681,-2.30171 5.475118,-3.23184 4.975545,-2.91173 7.755355,-5.93728 11.520743,-12.53929 0.912957,-1.60073 2.211276,-3.66422 2.885096,-4.58576 2.745331,-3.7547 3.376117,-5.07215 4.520654,-9.43715 0.729587,-2.78254 1.468077,-4.64741 2.671671,-6.74688 1.156377,-2.01708 1.569997,-3.35869 1.571997,-5.10201 0.0017,-1.45818 0.942102,-3.56529 2.166276,-4.85345 0.83698,-0.88071 1.25784,-2.19566 1.26814,-3.96048 0.0043,-0.74584 0.173092,-1.23439 0.541569,-1.56787 0.29443,-0.26645 0.725407,-1.13767 0.957564,-1.93631 0.53905,-1.85425 1.229388,-2.52829 3.021005,-2.95021 0.791767,-0.18646 1.881131,-0.5607 2.421041,-0.83199 0.539897,-0.27128 1.194748,-0.49193 1.455208,-0.49093 z m -11.961544,6.06992 -0.926042,0.8108 c -0.509307,0.44586 -1.521361,0.97839 -2.248958,1.18339 -0.727587,0.205 -1.918246,0.4365 -2.645833,0.5147 -1.204247,0.12948 -1.239852,0.11915 -0.396875,-0.11989 0.509307,-0.14443 1.674683,-0.45534 2.590023,-0.6904 0.915317,-0.23507 2.105963,-0.71338 2.645833,-1.06298 z m -20.16156,6.8926 c -1.135667,1.5e-4 -1.947393,0.19531 -3.12229,0.75086 -1.954484,0.92419 -4.037381,1.6304 -5.953125,2.01848 l -1.455208,0.29455 -0.192753,1.541 c -0.31302,2.50272 -1.486949,6.54918 -2.271696,7.83001 -0.48773,0.79604 -1.208494,1.46655 -2.175061,2.02313 -2.045814,1.17805 -4.140206,2.59239 -5.67924,3.83543 -2.195364,1.77299 -3.740181,2.35938 -6.817672,2.58743 -2.890651,0.21421 -3.534291,0.46009 -6.078182,2.32028 -2.723181,1.99116 -4.474095,4.59058 -5.493722,8.15609 -0.681407,2.38302 -0.682106,3.21836 -0.001,3.43441 0.739127,0.23459 1.013876,-0.01 1.214396,-1.07848 0.32694,-1.74276 2.016579,-2.93324 5.04362,-3.55379 2.522511,-0.51712 2.927822,-0.74198 3.382739,-1.87896 0.22875,-0.57171 0.415982,-1.24535 0.416512,-1.49706 5.4e-4,-0.25172 0.222937,-0.82153 0.494027,-1.26608 0.446467,-0.73216 0.751661,-0.8655 3.240112,-1.41593 l 2.747636,-0.60772 2.910417,-3.00446 c 1.600704,-1.65242 3.248679,-3.1297 3.662309,-3.28301 0.413607,-0.1533 1.659369,-0.46611 2.768306,-0.69504 3.549108,-0.73309 4.33547,-1.48639 3.7946,-3.63441 -0.356297,-1.41502 -0.03361,-2.59212 0.873332,-3.18637 0.989387,-0.64828 3.78018,-1.25507 5.383134,-1.17047 1.363617,0.072 1.543519,0.15587 2.095996,0.97772 1.196317,1.77959 0.671795,4.04159 -2.309936,9.9658 -1.242737,2.46916 -1.788902,3.23227 -4.792473,6.69365 -2.393711,2.75857 -8.90232,9.34324 -9.935827,10.0521 -1.487867,1.02049 -4.305306,1.90358 -10.799858,3.38325 -9.086403,2.07038 -9.711729,2.20159 -10.493416,2.20659 -0.66861,0.004 -0.718797,0.1003 -1.006657,1.92288 -0.16663,1.05502 -0.368868,2.26005 -0.449068,2.67787 l -0.145728,0.75964 5.914885,-0.13074 c 5.018505,-0.1109 6.616684,-0.25291 10.545092,-0.93896 10.36411,-1.80999 15.193508,-4.65284 20.95376,-12.33516 1.242807,-1.65754 2.133104,-3.23399 2.987931,-5.29167 1.073637,-2.58435 1.431216,-3.15002 3.027723,-4.78317 0.995777,-1.01865 2.121616,-2.42155 2.501656,-3.11764 0.380027,-0.69609 0.867757,-1.53547 1.083654,-1.865 0.46859,-0.71515 1.796698,-4.24691 2.703195,-7.18819 0.358767,-1.16417 0.831138,-2.65246 1.049548,-3.3073 1.138947,-3.41463 0.653823,-4.17379 -2.955375,-4.62762 -1.447917,-0.18206 -2.116487,-0.60872 -3.019454,-1.92495 -0.813807,-1.18625 -1.838582,-1.64924 -3.646806,-1.64899 z m 157.327864,1.89549 c -0.18158,-0.0369 -0.54742,0.30915 -1.33325,1.20716 -2.51199,2.8706 -3.13846,4.83197 -4.71393,14.75621 -0.86488,5.44885 -1.33817,10.46075 -1.34617,14.25959 -0.006,2.82335 -0.57579,7.41425 -1.21078,9.75548 -0.2461,0.90738 -1.13344,3.13779 -1.97145,4.9568 -2.13375,4.63159 -2.93005,7.06259 -4.2044,12.83229 -1.13304,5.13067 -1.68842,6.70067 -3.32124,9.38858 -0.50881,0.83759 -1.12582,2.28782 -1.37098,3.22254 -0.43193,1.64684 -0.42799,1.77258 0.12868,4.069 0.31595,1.30339 0.8795,3.38192 1.25264,4.61884 0.373,1.23694 0.91248,3.38005 1.19785,4.7625 0.2855,1.38245 0.93316,3.38904 1.43971,4.45916 0.50654,1.07014 0.92301,2.20122 0.92501,2.51354 0.002,0.31232 0.0787,0.84851 0.17053,1.19166 0.16544,0.61802 0.19098,0.62241 2.70836,0.4346 5.54705,-0.41386 9.72014,-2.14345 12.98216,-5.38055 4.29021,-4.25756 5.29104,-9.2491 3.3507,-16.71216 -0.51079,-1.96452 -1.28415,-4.58389 -1.71876,-5.82083 -0.43462,-1.23692 -1.46668,-4.1541 -2.2934,-6.48229 -2.75693,-7.76441 -3.46264,-12.00312 -2.99465,-17.99167 0.27927,-3.57385 0.86181,-5.87965 2.73006,-10.80968 2.58474,-6.82011 2.85381,-9.54649 1.71359,-17.36845 -0.58558,-4.01791 -1.77429,-11.00516 -1.99109,-11.70419 -0.0283,-0.0912 -0.0687,-0.14581 -0.12919,-0.15813 z m -41.84551,0.31936 c 0.12382,-0.0828 -0.23157,0.79557 -1.03301,2.48667 -1.7903,3.7777 -2.11029,4.36388 -3.13676,5.75055 -1.99322,2.69267 -1.95295,2.51239 -2.15336,9.65574 -0.1099,3.91729 -0.34816,7.42454 -0.60203,8.86355 -0.29098,1.64921 -0.41985,4.02413 -0.42064,7.72614 -0.001,5.94044 -0.20802,7.37178 -1.42007,9.84074 -1.09921,2.2392 -2.02428,2.84462 -4.9413,3.23288 -1.23133,0.16389 -2.55001,0.45712 -2.93057,0.65164 -1.13618,0.58079 -1.66779,2.04335 -1.67949,4.62297 -0.009,2.08347 0.0667,2.41731 0.96429,4.23334 0.53594,1.08434 1.61588,2.71198 2.39985,3.61683 2.73406,3.1556 3.79341,6.41075 3.55379,10.92233 -0.0734,1.38245 -0.3112,3.04932 -0.52813,3.70417 -0.5296,1.59885 -0.54201,0.84643 -0.0253,-1.5875 0.30014,-1.41498 0.372,-2.61016 0.25063,-4.16512 -0.30366,-3.89186 -1.17622,-5.97783 -3.66902,-8.77156 -0.75833,-0.84987 -2.02386,-2.7096 -2.81223,-4.13256 -1.34319,-2.42461 -1.44039,-2.72252 -1.54203,-4.7315 -0.0878,-1.73503 4.1e-4,-2.43223 0.46147,-3.65456 0.77988,-2.06739 1.61188,-2.67589 5.18211,-3.79046 2.66457,-0.8318 3.11175,-1.05852 3.75533,-1.90169 l 0.73071,-0.95705 0.15503,-7.16494 0.15502,-7.16494 0.99633,-3.04271 0.99632,-3.0427 -0.14573,-4.38268 c -0.14039,-4.22713 -0.12277,-4.43172 0.49041,-5.75521 0.34968,-0.75475 1.37003,-2.22512 2.26704,-3.2675 1.63243,-1.89655 2.36162,-3.18345 2.36162,-4.1677 0,-0.28848 0.17353,-0.6216 0.38602,-0.74052 0.21249,-0.11892 0.74639,-0.86927 1.18597,-1.66709 0.42673,-0.77425 0.67348,-1.16986 0.74776,-1.21956 z m -40.81663,1.24334 c 0.29105,0.009 -0.0992,0.18496 -0.86713,0.3917 -0.76794,0.20673 -2.73246,0.93177 -4.36562,1.61127 -2.49796,1.0393 -3.33734,1.26042 -5.28495,1.39268 -1.27334,0.0865 -2.31514,0.0843 -2.31511,-0.002 4e-5,-0.0876 1.05904,-0.22781 2.35283,-0.31161 2.01133,-0.13031 2.74967,-0.32448 5.09323,-1.33842 2.87513,-1.24395 4.50156,-1.77026 5.38675,-1.74356 z m -78.13838,5.36194 c -1.645184,0.0665 -4.202675,0.75633 -5.2002,1.54099 -0.665277,0.52331 -0.68604,0.61906 -0.51418,2.36317 0.27453,2.78596 -0.462341,3.5155 -4.385779,4.34082 -2.830891,0.59551 -3.498015,1.01227 -6.031156,3.76721 -1.266787,1.3777 -2.615447,2.66607 -2.996717,2.86339 -0.381257,0.19732 -1.571916,0.55441 -2.645833,0.79323 -2.679641,0.5959 -3.036792,0.87029 -3.431832,2.6355 -0.347577,1.55321 -1.444389,2.95262 -2.484086,3.16983 -0.29407,0.0614 -1.189173,0.23854 -1.989543,0.39378 -1.909914,0.37046 -3.488926,1.28287 -3.911906,2.26032 -0.866027,2.00154 -0.967198,2.1084 -1.989025,2.1084 h -0.978752 v 1.61696 c 9e-5,0.88919 -0.07793,2.18749 -0.173633,2.88561 -0.15933,1.16253 -0.131488,1.25746 0.330729,1.12706 0.27759,-0.0783 1.457389,-0.40834 2.621546,-0.73328 1.164157,-0.32506 3.545442,-1.04828 5.291666,-1.60714 1.746237,-0.55887 4.365637,-1.32662 5.820834,-1.70636 3.499208,-0.91314 6.662271,-1.93993 7.805208,-2.53369 1.154427,-0.59973 3.567693,-2.88777 6.002734,-5.69061 1.024177,-1.17888 2.718362,-3.02434 3.764629,-4.10104 2.924991,-3.01004 3.832843,-4.34004 5.297867,-7.76129 2.316004,-5.40838 2.507109,-6.79081 1.046965,-7.57214 -0.254142,-0.13602 -0.70115,-0.18287 -1.249536,-0.16072 z m 28.230318,4.95577 c 0.31296,0.013 0.271261,0.0951 -0.153479,0.30024 -0.42016,0.20292 -0.634127,0.61186 -0.760677,1.45573 -0.10238,0.68276 -0.466628,1.51562 -0.870748,1.99109 -0.38211,0.44957 -0.932648,1.26627 -1.223698,1.81436 -0.29104,0.54808 -0.79847,1.47938 -1.12758,2.06964 -0.329097,0.59026 -0.694579,1.77487 -0.811836,2.6324 -0.15282,1.11743 -0.439828,1.84913 -1.013375,2.58382 -0.44014,0.5638 -1.663454,2.54331 -2.718181,4.3987 -1.054727,1.8554 -2.029516,3.37343 -2.166276,3.37343 -0.13676,0 -0.02042,-0.32742 0.258383,-0.7276 0.278777,-0.40018 1.186087,-2.01596 2.016414,-3.59048 0.830337,-1.57452 1.839707,-3.24152 2.242757,-3.70416 0.53532,-0.61466 0.767663,-1.21277 0.861963,-2.22002 0.15147,-1.6178 2.257287,-5.99069 3.286104,-6.82336 0.39186,-0.31716 0.760127,-1.00212 0.918807,-1.70946 0.30536,-1.36111 0.653135,-1.86963 1.261422,-1.84433 z m 66.399052,7.78609 c 0.0813,0.0813 -0.1277,0.41249 -0.46458,0.73587 l -0.61236,0.58808 0.46457,-0.73587 c 0.25553,-0.40473 0.53107,-0.66938 0.61237,-0.58808 z m -45.41325,0.51986 c 0.13657,0.0414 -0.29861,0.60208 -1.40043,1.65262 -1.18963,1.13414 -2.64368,2.71686 -3.23081,3.51709 -1.5711,2.14123 -5.0418,5.64708 -7.45691,7.53236 -3.61143,2.81899 -10.478918,7.13811 -22.092712,13.89476 -1.818984,1.05827 -3.724004,2.19232 -4.233334,2.52026 -0.509307,0.32795 -1.58088,0.95491 -2.38125,1.3932 -4.381705,2.39932 -6.715348,3.73085 -8.762772,4.99969 -2.925651,1.81315 -3.617574,2.04194 -5.615678,1.85777 -1.109717,-0.10229 -2.345653,0.007 -3.8778,0.34365 -1.236904,0.27157 -3.201478,0.62403 -4.365625,0.78341 -1.164144,0.15936 -3.061733,0.654 -4.21628,1.09916 -1.154537,0.44517 -2.980723,0.97826 -4.05815,1.18442 -3.849938,0.73663 -13.07911,0.15336 -15.477091,-0.97771 l -1.119312,-0.52762 1.719792,0.14418 c 7.988276,0.67171 14.322816,0.29296 17.499707,-1.04593 3.150571,-1.32793 3.535089,-1.42829 5.519043,-1.44539 2.299301,-0.0198 3.903332,-0.34315 8.44858,-1.70223 3.462898,-1.03533 6.305718,-2.32294 12.18892,-5.52059 3.338568,-1.81459 5.045773,-2.89548 10.999845,-6.96443 1.298607,-0.88749 4.326174,-2.83961 6.727238,-4.3372 9.68408,-6.04062 14.973689,-9.80965 18.848459,-13.43019 1.44058,-1.34607 2.72291,-2.4474 2.84944,-2.4474 0.12654,0 0.78232,-0.47778 1.45728,-1.06195 1.18479,-1.02543 1.89327,-1.50332 2.02985,-1.46193 z m -5.68493,0.43099 1.00511,0.0238 -1.19063,0.33021 c -1.79847,0.49915 -2.81189,1.10882 -4.04264,2.43241 -0.61431,0.66065 -2.24783,1.86564 -3.630272,2.67787 -1.382437,0.81223 -4.739035,2.94725 -7.458976,4.74442 -6.845912,4.52317 -8.216826,5.28991 -14.696778,8.22223 -0.470957,0.21313 -1.214599,0.7545 -1.653129,1.20303 -0.908607,0.92935 -1.078722,0.61472 -0.242362,-0.44855 0.544317,-0.692 2.368331,-1.75171 3.678328,-2.13734 1.948934,-0.5737 9.471615,-4.82269 12.964583,-7.32255 2.286984,-1.63674 5.52423,-3.71081 7.784026,-4.98678 0.86158,-0.48644 2.02697,-1.3442 2.58898,-1.90634 1.6576,-1.6576 3.73443,-2.85968 4.89376,-2.83238 z m 18.7508,4.33823 c 0.0111,0.003 0.02,0.0148 0.0274,0.0351 0.21646,0.59967 -1.00666,4.47195 -1.60403,5.07773 -0.33167,0.33633 -1.1806,0.75896 -1.88619,0.93896 -1.17566,0.29991 -1.3139,0.42096 -1.6552,1.44487 -0.36615,1.09843 -1.69864,2.19494 -2.0252,1.66657 -0.0787,-0.12727 0.18251,-0.29724 0.58033,-0.37724 0.58388,-0.11748 0.81421,-0.40295 1.19476,-1.48053 0.46263,-1.30998 0.50209,-1.34361 2.11667,-1.81436 l 1.64537,-0.47956 0.45372,-1.4459 c 0.24963,-0.79505 0.59297,-1.98118 0.76326,-2.63602 0.14902,-0.57298 0.31152,-0.95282 0.38913,-0.92966 z m 61.70372,14.24875 c 0.0684,0.0503 -0.12635,0.99668 -0.60978,2.82049 -0.38298,1.44495 -1.33695,3.86572 -2.24379,5.69423 -2.45342,4.94694 -2.55887,6.65085 -0.59635,9.62525 1.30506,1.9779 1.90369,3.69247 2.21796,6.35155 0.14778,1.25053 0.56955,3.52392 0.93689,5.05189 1.12914,4.69673 0.53959,8.44273 -1.69034,10.74146 -0.54624,0.56327 -0.85304,1.20482 -0.97978,2.05001 -0.12328,0.8221 -0.35602,1.32209 -0.70228,1.5074 -0.48726,0.26078 -0.50812,0.20946 -0.34624,-0.85938 0.26909,-1.77526 0.80369,-2.82803 1.68724,-3.32486 0.65463,-0.3681 0.91064,-0.79197 1.31672,-2.17713 0.8719,-2.97401 0.90943,-4.81884 0.15606,-7.69307 -0.36527,-1.39359 -0.84628,-3.82992 -1.06867,-5.41414 -0.43508,-3.0994 -1.21731,-5.09297 -2.83549,-7.2254 -0.78484,-1.0344 -0.87281,-1.32811 -0.87281,-2.91093 0,-1.86898 -0.0146,-1.83219 2.52853,-6.52208 0.63126,-1.16417 1.59104,-3.48589 2.13268,-5.15938 0.56978,-1.76043 0.9011,-2.60618 0.96945,-2.55591 z m -165.756287,13.88028 -2.090312,0.18966 c -4.937825,0.44829 -10.6305975,2.6286 -13.2426024,5.07152 -1.7744979,1.65962 -3.2920651,3.6843 -7.0502157,9.40615 -2.7748836,4.22467 -4.1547852,6.53006 -4.1547852,6.94066 0,0.0799 1.0418111,0.63112 2.3151042,1.22473 1.27328362,0.59361 3.0294959,1.42148 3.9026042,1.83968 0.8731183,0.4182 2.5832872,1.59147 3.8008016,2.60759 3.5722132,2.98133 3.6854586,3.01661 10.3544063,3.20601 5.569455,0.15817 5.743824,0.17996 8.332825,1.05833 3.182851,1.07985 6.608769,3.26524 8.607743,5.49062 0.851986,0.94854 1.757568,2.26096 2.592607,3.64164 0.336139,-0.004 0.672145,-0.006 1.008207,-0.0124 1.076721,-0.0219 2.153606,-0.0504 3.228744,-0.11524 1.237557,-0.0768 2.474308,-0.21218 3.715535,-0.18758 1.006215,0.0133 2.012341,0.0347 3.017904,0.0744 0.821458,0.0277 1.647794,0.0835 2.463415,-0.0501 0.219276,-0.0359 0.426596,-0.0556 0.622185,-0.061 0.459664,-0.0127 0.852934,0.0544 1.177189,0.17828 0.299377,-0.10206 0.577284,-0.1543 0.841809,-0.18242 0.09822,-0.075 0.241709,-0.12465 0.428914,-0.12661 0.03794,-4e-4 0.07736,0.001 0.118856,0.005 0.307778,0.0274 0.615066,0.0644 0.917257,0.13074 0.292663,0.0608 0.588016,0.10948 0.88315,0.15658 0.0897,0.0161 0.179191,0.0325 0.268717,0.0481 3.586107,-0.40826 7.184849,-0.69408 10.796757,-0.74517 0.969262,-0.008 1.938307,-0.009 2.907316,-0.005 2.907037,0.0123 5.813419,0.0753 8.719882,0.16691 2.815574,0.053 5.631619,0.0286 8.447546,0.0532 1.246461,0.0113 2.493004,0.0256 3.739307,0.0512 0.527174,-0.679 1.086653,-1.28775 1.579231,-1.68258 1.831127,-1.46772 2.402188,-1.74973 4.998662,-2.47065 1.360934,-0.37788 3.699094,-1.09307 5.195548,-1.58905 4.79752,-1.59003 4.03858,-1.80637 8.23516,2.35179 2.00101,1.98287 3.55138,3.60495 3.44526,3.60495 -0.27107,0 -3.50827,-2.96126 -5.41,-4.94905 -1.85885,-1.94299 -2.21682,-2.0158 -5.04259,-1.0201 -7.74596,2.72935 -9.174335,3.42977 -11.369846,5.57331 -0.06691,0.0653 -0.134958,0.14639 -0.202572,0.21755 0.352843,0.0105 0.705584,0.0201 1.058333,0.0336 2.054972,0.0913 4.104611,0.24927 6.153113,0.43564 1.643123,0.12319 3.288112,0.21728 4.933032,0.31471 0.20362,-0.18574 0.52754,-0.31311 0.96893,-0.31523 0.0522,-2.5e-4 0.1063,0.001 0.16175,0.005 0.45708,0.0276 0.91365,0.0616 1.36788,0.12092 0.64927,0.0813 1.29947,0.14969 1.95078,0.21239 0.34476,0.0412 0.68992,0.089 1.03611,0.12093 1.63588,-0.18652 3.23369,-0.36916 5.33973,-0.59532 0.7276,-0.0781 5.46923,-0.1416 10.53682,-0.14159 h 9.21391 l -0.1819,-0.60151 c -0.34782,-1.14933 -1.50839,-3.07242 -2.33422,-3.86798 -1.27607,-1.22931 -3.80796,-2.64794 -5.85753,-3.28146 -1.01864,-0.31486 -1.64283,-0.61654 -1.38699,-0.67024 1.15681,-0.24297 5.9929,2.06712 7.78402,3.71812 0.77782,0.71696 1.4793,1.73326 1.99988,2.8975 l 0.80201,1.79317 h 17.60306 c 9.68178,0 17.55411,-0.0484 17.49351,-0.10749 -0.0606,-0.0591 -1.41977,-0.23712 -3.02049,-0.39584 -2.93351,-0.29088 -3.19654,-0.36268 -14.24099,-3.89589 -9.00455,-2.88073 -11.94434,-3.54062 -26.44025,-5.93142 -10.61703,-1.75118 -10.08472,-1.74858 -19.37917,-0.0703 -11.016819,1.98946 -16.179674,2.55012 -20.188952,2.19212 -4.164258,-0.37183 -10.388055,-1.43028 -13.948503,-2.37195 -2.966131,-0.78448 -9.072463,-2.85855 -13.619841,-4.62608 -4.457205,-1.73249 -6.278351,-2.20805 -10.654646,-2.78277 -7.216179,-0.94768 -7.738489,-1.15944 -10.5823,-4.28811 -1.098047,-1.20803 -2.486647,-2.49391 -3.086117,-2.85771 -0.599457,-0.36369 -2.186186,-1.35967 -3.525883,-2.21278 -2.963851,-1.88738 -3.201943,-1.98073 -5.874577,-2.31562 -1.565904,-0.19622 -2.294211,-0.41991 -2.757971,-0.84595 -0.888457,-0.8162 -1.605821,-2.50325 -1.612821,-3.79201 -0.0075,-1.413 0.88907,-4.31249 1.62109,-5.24309 z m 201.400627,0.84181 -0.81029,0.37983 c -0.83802,0.39284 -1.8337,1.83808 -3.71967,5.4007 -0.56465,1.06661 -1.41345,2.39475 -1.88619,2.95176 -0.47273,0.557 -1.08598,1.64925 -1.36322,2.42672 -0.77836,2.18283 -1.43154,8.72284 -1.31,13.12117 0.0573,2.07354 0.0902,3.77031 0.0729,3.77031 -0.0173,0 -0.22833,-0.6091 -0.46871,-1.35341 -0.55426,-1.71602 -0.57313,-5.68307 -0.0501,-10.63811 0.42907,-4.06784 0.94264,-5.55129 2.62827,-7.58765 0.79789,-0.96392 4.7277,-7.26609 4.98677,-7.99744 0.0375,-0.10585 0.48494,-0.25592 0.99426,-0.33332 z m -51.67333,0.64803 c 0.14461,-0.037 0.0395,0.13981 -0.34003,0.65319 -0.46797,0.63297 -0.6045,1.18096 -0.6196,2.48357 -0.0187,1.62142 0.0174,1.71377 1.20974,3.07681 0.67598,0.77277 1.86441,2.61195 2.64118,4.08709 1.391,2.64149 1.41217,2.71615 1.40147,4.93096 -0.01,1.97004 -0.121,2.49507 -0.90072,4.23334 -0.48955,1.0914 -1.00638,2.10343 -1.14825,2.24896 -0.30239,0.31017 -0.28088,0.24527 0.87798,-2.62258 0.74904,-1.85296 0.83564,-2.32859 0.75344,-4.13928 -0.0829,-1.82492 -0.23018,-2.31668 -1.36219,-4.55218 -0.698,-1.3784 -1.796,-3.12367 -2.44016,-3.87832 -1.56796,-1.83692 -1.88341,-3.0394 -1.2609,-4.80901 0.26043,-0.74033 0.69304,-1.46416 0.96118,-1.60868 0.10271,-0.0554 0.17866,-0.0915 0.22686,-0.10387 z m -70.636,1.80299 c 0.53899,-0.0394 0.9239,0.018 1.42472,0.15193 0.64244,0.17183 1.91062,0.31286 2.81791,0.31367 2.09254,0.002 3.53069,0.40023 4.32946,1.19889 0.67175,0.67174 0.82924,1.89743 0.35708,2.77968 -0.14885,0.27815 -0.52684,0.64283 -0.83974,0.81029 l -0.56896,0.30437 0.57516,-0.7307 c 0.75495,-0.95976 0.77019,-2.51725 0.0326,-3.18534 -0.42284,-0.38266 -1.16582,-0.53114 -3.37344,-0.67438 -1.55713,-0.10102 -3.2231,-0.32863 -3.7021,-0.50591 -0.73883,-0.27346 -1.22037,-0.23413 -3.175002,0.2589 -1.267237,0.31965 -3.196723,0.62513 -4.28811,0.67903 l -1.984375,0.0982 1.719791,-0.24133 c 0.945877,-0.13272 2.892528,-0.50636 4.325835,-0.82992 1.117341,-0.25222 1.810221,-0.38797 2.349211,-0.42736 z m 55.17854,4.19044 c 1.30049,-0.001 3.48519,1.1075 4.15117,2.51096 0.65593,1.38227 0.25404,4.02681 -0.85214,5.60741 -0.27347,0.39076 -1.9172,0.91672 -1.9172,0.6134 0,-0.11282 0.23925,-0.42156 0.53175,-0.68627 0.63077,-0.57084 1.32033,-2.73135 1.32033,-4.1367 0,-1.33435 -0.74413,-1.99038 -2.6913,-2.37349 -1.18208,-0.23257 -1.54203,-0.4125 -1.54203,-0.76998 0,-0.53536 0.40829,-0.76487 0.99942,-0.76533 z m -48.59341,1.3286 c 0.0446,-0.01 0.0798,-0.005 0.1018,0.0171 0.0713,0.0713 -0.16749,0.4086 -0.53072,0.74983 -0.36323,0.34075 -0.66042,0.4992 -0.66042,0.35088 0,-0.29572 0.77728,-1.05117 1.08934,-1.11776 z M 6.4861301,209.44447 c 0.07276,0 0.3173619,0.35719 0.5431193,0.79375 0.2257674,0.43655 0.3508179,0.79375 0.2780192,0.79375 -0.07276,0 -0.3168451,-0.3572 -0.5426025,-0.79375 -0.2257674,-0.43656 -0.3513347,-0.79375 -0.278536,-0.79375 z m 1.7063558,1.80454 c 0.2347524,-0.0197 0.5757627,-0.0172 0.9658325,0.005 1.2805066,0.0812 1.4681316,0.17427 1.9290816,0.9555 0.696527,1.18057 1.965707,2.09326 4.011641,2.88561 3.729798,1.44448 5.204883,2.12387 6.27817,2.8913 l 1.119311,0.80046 3.148129,-0.1695 c 1.731644,-0.0931 3.371475,-0.24828 3.643705,-0.34468 0.381207,-0.13493 0.42637,-0.10047 0.19637,0.14935 -0.19409,0.2108 -1.537114,0.3705 -3.836458,0.4563 l -3.537769,0.13229 -1.190625,-0.8139 c -0.654827,-0.44768 -2.797996,-1.49346 -4.7625,-2.32389 -3.396658,-1.43581 -4.0207,-1.84753 -5.470467,-3.61167 -0.448137,-0.5453 -0.8097875,-0.70021 -1.6376258,-0.70021 -0.5845035,0 -1.1186922,-0.0893 -1.1864909,-0.19844 -0.033895,-0.0545 0.094941,-0.094 0.3296956,-0.11369 z m 69.1136111,1.87947 c 3.560498,-0.002 5.204299,0.19655 10.024194,1.20768 5.064005,1.06233 6.54868,1.43849 11.509375,2.91559 8.105284,2.41329 8.739804,2.55164 12.435414,2.71249 l 3.43959,0.14986 -1.32292,0.3483 c -1.67118,0.44061 -4.0152,0.42181 -6.18877,-0.0496 -1.83307,-0.39767 -2.18187,-0.49951 -8.098731,-2.35902 -7.662376,-2.40822 -18.204688,-4.4168 -23.177913,-4.41627 -2.284554,2.9e-4 -2.790832,0.0967 -5.027083,0.95808 -8.340936,3.21274 -11.666338,4.24256 -12.354285,3.8256 -0.24816,-0.1504 -1.165518,-0.49423 -2.038635,-0.76429 -2.058274,-0.63664 -0.841704,-0.72337 1.5875,-0.11317 1.631094,0.40972 1.768622,0.4042 3.562056,-0.14056 1.025917,-0.3116 3.441985,-1.17214 5.369182,-1.91255 5.620502,-2.15925 6.494258,-2.36013 10.281026,-2.36213 z m 143.672883,2.93057 c 0.14784,0 0.0225,0.31332 -0.27854,0.69609 -0.30096,0.38278 -0.79404,1.54364 -1.09502,2.57968 -0.30097,1.03605 -1.22065,3.22022 -2.04328,4.85397 -0.82276,1.63375 -1.65595,3.03221 -1.85157,3.10731 -0.2253,0.0865 -0.16725,-0.12993 0.15761,-0.58963 0.99412,-1.4067 2.65062,-5.00089 3.32693,-7.21817 0.6931,-2.27219 1.29502,-3.42925 1.78387,-3.42925 z m -146.910929,2.5213 c 2.562817,0.0277 6.094943,0.23984 7.708574,0.5364 1.504294,0.27625 2.961627,0.38629 3.798734,0.28629 1.864067,-0.22267 9.692432,0.12034 9.692432,0.42478 0,0.1355 -0.44649,0.18 -0.992187,0.0987 -0.5457,-0.0813 -2.540027,-0.17452 -4.431771,-0.20722 -1.891744,-0.0327 -3.856318,0.0151 -4.365625,0.10593 -0.52495,0.0936 -2.072051,-0.051 -3.571875,-0.33383 -1.861954,-0.35114 -3.900026,-0.50389 -6.879167,-0.51469 -2.328304,-0.008 -4.084048,-0.10998 -3.901571,-0.22583 0.216176,-0.13726 1.404776,-0.18717 2.942456,-0.17053 z m -79.0695918,2.2412 c -0.09641,0 -0.4282466,0.44649 -0.7374227,0.99219 -0.3091861,0.54571 -1.4518229,2.16692 -2.5393799,3.60288 -1.0875557,1.43597 -2.0357646,2.83513 -2.1073646,3.10886 -0.08715,0.33323 0.108089,0.66731 0.5911781,1.01131 0.8073496,0.57476 1.7019277,0.81068 6.1407105,1.61798 1.6916179,0.30771 3.43834264,0.78009 3.88141679,1.04955 0.44307428,0.26945 1.27925551,1.18179 1.85776771,2.02779 1.2453644,1.82109 2.2976744,2.86023 3.2706014,3.22771 0.3895748,0.14714 2.2350764,0.35783 4.1010417,0.46818 2.5879818,0.15307 3.1163078,0.24028 2.2262208,0.36794 -0.641757,0.0921 -2.3681979,0.0672 -3.8364584,-0.0553 -3.2555784,-0.27159 -4.2259209,-0.8302 -5.9092001,-3.40135 -1.34441206,-2.05341 -2.44915296,-2.73074 -5.1557576,-3.16156 -3.4014958,-0.54143 -6.0703861,-1.30315 -6.9696009,-1.98903 -0.479457,-0.36572 -0.935691,-0.66507 -1.013891,-0.66507 -0.31313,0 -1.468428,2.95709 -1.629358,4.17029 -0.14257,1.07469 -0.05908,1.51361 0.494027,2.59622 0.29576,0.5789 0.664573,1.10682 1.100708,1.59732 0.483262,0.0589 0.966601,0.11724 1.4495236,0.17932 1.4777467,0.23465 2.949963,0.50262 4.4338379,0.69814 1.8954658,0.21433 3.8145077,0.22672 5.72006426,0.25632 1.73453474,0 3.46928194,4.2e-4 5.20381674,0.002 1.6217344,0.002 3.2431055,0.004 4.8648195,0.0129 1.672727,0.0108 3.345775,0.0227 5.017781,0.077 1.450886,0.0587 2.904131,0.14237 4.339787,0.37104 0.934939,0.16804 1.864757,0.36565 2.790011,0.58239 0.08634,-0.0299 0.189271,-0.0475 0.309025,-0.0475 0.01346,0 0.02694,8e-5 0.04082,5.2e-4 0.160638,0.005 0.07937,0.002 0.243396,0.009 0.256423,0.0132 0.514293,0.0289 0.766362,0.0806 0.217646,0.0452 0.436006,0.0865 0.65319,0.13332 0.382696,-0.0522 0.766251,-0.0968 1.147217,-0.16433 1.523629,-0.24441 3.051863,-0.40351 4.598169,-0.33951 1.169796,-0.001 2.339551,-3e-4 3.509346,-0.005 0.308088,-10e-4 0.616368,-0.003 0.924491,-0.005 -2.634697,-4.05451 -5.906127,-6.65887 -10.207645,-8.15041 l -2.457215,-0.85162 -5.688541,-0.006 c -6.7438455,-0.007 -6.6359343,0.0267 -10.5833336,-3.33209 -2.0971327,-1.7844 -3.1889361,-2.464 -6.58926187,-4.10259 -2.24148133,-1.08024 -4.15450463,-1.96423 -4.25090333,-1.96423 z m 41.2910198,1.86346 c 0.0029,-0.019 0.08254,0.0464 0.240295,0.18707 0.22666,0.20211 1.141008,0.33072 2.351795,0.33072 1.601114,0 2.14267,0.11068 2.82205,0.5762 1.204287,0.8252 2.353,2.67336 3.177067,5.11235 0.986347,2.91914 2.859751,6.5773 3.711918,7.24762 0.550497,0.43303 1.081039,0.55758 2.377116,0.55758 0.917657,0 1.742546,0.11908 1.832446,0.26459 0.37785,0.61136 -3.877861,0.0195 -4.607471,-0.64079 -0.682027,-0.61724 -2.981663,-5.11217 -3.597713,-7.03213 -0.735437,-2.29203 -1.58766,-3.7902 -2.755387,-4.84518 -1.038647,-0.9384 -1.153709,-0.97565 -3.030823,-0.97565 -1.548414,0 -2.023641,-0.0956 -2.301668,-0.46302 -0.149045,-0.19696 -0.222571,-0.30036 -0.219625,-0.31936 z m -15.252299,1.48363 c 0.109824,-0.0219 0.147278,0.0494 0.147278,0.2067 0,0.24653 -0.514379,0.54711 -1.370976,0.8015 -1.523304,0.45238 -2.238222,0.5112 -2.430859,0.19948 -0.07067,-0.11433 0.427435,-0.23189 1.106392,-0.26149 0.757977,-0.033 1.516218,-0.26215 1.964738,-0.59376 0.291165,-0.21527 0.473603,-0.33055 0.583427,-0.35243 z" />
  </g>
</svg>
