<svg xmlns="http://www.w3.org/2000/svg" xmlns:xlink="http://www.w3.org/1999/xlink" role='img' aria-labelledby="Japanese paper lantern" viewBox="0 0 65.985688 127.67041"><defs><linearGradient id="b"><stop offset="0" style="stop-color:#183557;stop-opacity:1"/><stop offset="1" style="stop-color:#6b1a24;stop-opacity:1"/></linearGradient><linearGradient id="a"><stop offset="0" style="stop-color:#e9292e;stop-opacity:1"/><stop offset="1" style="stop-color:#720d0f;stop-opacity:1"/></linearGradient><linearGradient id="c"><stop offset="0" style="stop-color:#494949;stop-opacity:1"/><stop offset="1" style="stop-color:#000;stop-opacity:1"/></linearGradient><linearGradient xlink:href="#a" id="f" x1="119.58761" x2="119.58885" y1="178.63571" y2="103.9836" gradientUnits="userSpaceOnUse"/><linearGradient xlink:href="#b" id="g" x1="120.13432" x2="120.04803" y1="90.834518" y2="112.50179" gradientTransform="matrix(0.99999978,0,0,2.5017983,2.3983018e-5,-168.90639)" gradientUnits="userSpaceOnUse"/><radialGradient xlink:href="#c" id="i" cx="120.039" cy="116.26813" r="14.59474" fx="120.039" fy="116.26813" gradientTransform="matrix(1,0,0,0.26179696,0,85.82949)" gradientUnits="userSpaceOnUse"/><radialGradient xlink:href="#c" id="d" cx="120.039" cy="116.26813" r="14.59474" fx="120.039" fy="116.26813" gradientTransform="matrix(1,0,0,0.26179696,3.9583335e-7,85.82949)" gradientUnits="userSpaceOnUse"/><radialGradient xlink:href="#c" id="h" cx="120.039" cy="116.26813" r="14.59474" fx="120.039" fy="116.26813" gradientTransform="matrix(1,0,0,0.26179696,0,-213.38176)" gradientUnits="userSpaceOnUse"/><clipPath id="e" clipPathUnits="userSpaceOnUse"><path d="M82.135936 111.58454h75.985684v75.98568H82.135936Zm23.358324.91274v7.54171h29.08948v-7.54171z" class="powerclip" style="opacity:.839552;fill:url(#d);fill-opacity:1;fill-rule:evenodd;stroke:url(#radialGradient4110);stroke-width:.1"/></clipPath></defs><path d="M152.98912 149.57738a32.86034 32.86034 0 0 1-32.86034 32.86034 32.86034 32.86034 0 0 1-32.860344-32.86034 32.86034 32.86034 0 0 1 32.860344-32.86034 32.86034 32.86034 0 0 1 32.86034 32.86034z" clip-path="url(#e)" style="fill:url(#f);fill-opacity:1;fill-rule:evenodd;stroke:url(#linearGradient2425);stroke-width:.265;stroke-dasharray:none" transform="translate(-87.135936,-59.093532)"/><path d="M118.79684 59.093533h2.4995215v53.375862H118.79684z" style="opacity:.839552;fill:url(#g);fill-opacity:1;fill-rule:evenodd;stroke:#1e3e67;stroke-width:0;stroke-dasharray:none" transform="translate(-87.135936,-59.093532)"/><path d="M106.9655-186.71394h26.23617a1.3820687 1.3820687 45 0 1 1.38207 1.38207v6.15964h-29.08948v-6.07048a1.4712344 1.4712344 135 0 1 1.47124-1.47123z" style="opacity:.839552;fill:url(#h);fill-opacity:1;fill-rule:evenodd;stroke:url(#radialGradient4515);stroke-width:.1" transform="translate(-87.135936,-59.093532) scale(1,-1)"/><path d="M106.46618 112.49728h27.14788a.96967724.96967724 45 0 1 .96968.96967v6.57204h-29.08948v-6.5698a.9719177.9719177 135 0 1 .97192-.97191z" style="opacity:.839552;fill:url(#i);fill-opacity:1;fill-rule:evenodd;stroke:url(#radialGradient4102);stroke-width:.1" transform="translate(-87.135936,-59.093532)"/></svg>