<?xml version="1.0" encoding="UTF-8" standalone="no"?>
<!-- Created with Inkscape (http://www.inkscape.org/) -->

<svg
   width="210mm"
   height="297mm"
   viewBox="0 0 210 297"
   version="1.1"
   id="svg9174"
   inkscape:version="1.2 (dc2aedaf03, 2022-05-15)"
   sodipodi:docname="island.svg"
   xmlns:inkscape="http://www.inkscape.org/namespaces/inkscape"
   xmlns:sodipodi="http://sodipodi.sourceforge.net/DTD/sodipodi-0.dtd"
   xmlns="http://www.w3.org/2000/svg"
   xmlns:svg="http://www.w3.org/2000/svg">
  <sodipodi:namedview
     id="namedview9176"
     pagecolor="#505050"
     bordercolor="#eeeeee"
     borderopacity="1"
     inkscape:showpageshadow="0"
     inkscape:pageopacity="0"
     inkscape:pagecheckerboard="0"
     inkscape:deskcolor="#505050"
     inkscape:document-units="mm"
     showgrid="false"
     inkscape:zoom="1.0419012"
     inkscape:cx="611.38234"
     inkscape:cy="425.66416"
     inkscape:window-width="1920"
     inkscape:window-height="1002"
     inkscape:window-x="-8"
     inkscape:window-y="-8"
     inkscape:window-maximized="1"
     inkscape:current-layer="layer1" />
  <defs
     id="defs9171">
    <pattern
       inkscape:collect="always"
       patternUnits="userSpaceOnUse"
       width="10"
       height="10"
       patternTransform="translate(0,0) scale(10,10)"
       id="Polkadots-small"
       inkscape:stockid="Polka dots, small"
       inkscape:isstock="true">
      <circle
         style="fill:black;stroke:none"
         cx="2.567"
         cy="0.810"
         r="0.05"
         id="circle6525" />
      <circle
         style="fill:black;stroke:none"
         cx="3.048"
         cy="2.33"
         r="0.05"
         id="circle6527" />
      <circle
         style="fill:black;stroke:none"
         cx="4.418"
         cy="2.415"
         r="0.05"
         id="circle6529" />
      <circle
         style="fill:black;stroke:none"
         cx="1.844"
         cy="3.029"
         r="0.05"
         id="circle6531" />
      <circle
         style="fill:black;stroke:none"
         cx="6.08"
         cy="1.363"
         r="0.05"
         id="circle6533" />
      <circle
         style="fill:black;stroke:none"
         cx="5.819"
         cy="4.413"
         r="0.05"
         id="circle6535" />
      <circle
         style="fill:black;stroke:none"
         cx="4.305"
         cy="4.048"
         r="0.05"
         id="circle6537" />
      <circle
         style="fill:black;stroke:none"
         cx="5.541"
         cy="3.045"
         r="0.05"
         id="circle6539" />
      <circle
         style="fill:black;stroke:none"
         cx="4.785"
         cy="5.527"
         r="0.05"
         id="circle6541" />
      <circle
         style="fill:black;stroke:none"
         cx="2.667"
         cy="5.184"
         r="0.05"
         id="circle6543" />
      <circle
         style="fill:black;stroke:none"
         cx="7.965"
         cy="1.448"
         r="0.05"
         id="circle6545" />
      <circle
         style="fill:black;stroke:none"
         cx="7.047"
         cy="5.049"
         r="0.05"
         id="circle6547" />
      <circle
         style="fill:black;stroke:none"
         cx="4.340"
         cy="0.895"
         r="0.05"
         id="circle6549" />
      <circle
         style="fill:black;stroke:none"
         cx="7.125"
         cy="0.340"
         r="0.05"
         id="circle6551" />
      <circle
         style="fill:black;stroke:none"
         cx="9.550"
         cy="1.049"
         r="0.05"
         id="circle6553" />
      <circle
         style="fill:black;stroke:none"
         cx="7.006"
         cy="2.689"
         r="0.05"
         id="circle6555" />
      <circle
         style="fill:black;stroke:none"
         cx="8.909"
         cy="2.689"
         r="0.05"
         id="circle6557" />
      <circle
         style="fill:black;stroke:none"
         cx="9.315"
         cy="4.407"
         r="0.05"
         id="circle6559" />
      <circle
         style="fill:black;stroke:none"
         cx="7.820"
         cy="3.870"
         r="0.05"
         id="circle6561" />
      <circle
         style="fill:black;stroke:none"
         cx="8.270"
         cy="5.948"
         r="0.05"
         id="circle6563" />
      <circle
         style="fill:black;stroke:none"
         cx="7.973"
         cy="7.428"
         r="0.05"
         id="circle6565" />
      <circle
         style="fill:black;stroke:none"
         cx="9.342"
         cy="8.072"
         r="0.05"
         id="circle6567" />
      <circle
         style="fill:black;stroke:none"
         cx="8.206"
         cy="9.315"
         r="0.05"
         id="circle6569" />
      <circle
         style="fill:black;stroke:none"
         cx="9.682"
         cy="9.475"
         r="0.05"
         id="circle6571" />
      <circle
         style="fill:black;stroke:none"
         cx="9.688"
         cy="6.186"
         r="0.05"
         id="circle6573" />
      <circle
         style="fill:black;stroke:none"
         cx="3.379"
         cy="6.296"
         r="0.05"
         id="circle6575" />
      <circle
         style="fill:black;stroke:none"
         cx="2.871"
         cy="8.204"
         r="0.05"
         id="circle6577" />
      <circle
         style="fill:black;stroke:none"
         cx="4.59"
         cy="8.719"
         r="0.05"
         id="circle6579" />
      <circle
         style="fill:black;stroke:none"
         cx="3.181"
         cy="9.671"
         r="0.05"
         id="circle6581" />
      <circle
         style="fill:black;stroke:none"
         cx="5.734"
         cy="7.315"
         r="0.05"
         id="circle6583" />
      <circle
         style="fill:black;stroke:none"
         cx="6.707"
         cy="6.513"
         r="0.05"
         id="circle6585" />
      <circle
         style="fill:black;stroke:none"
         cx="5.730"
         cy="9.670"
         r="0.05"
         id="circle6587" />
      <circle
         style="fill:black;stroke:none"
         cx="6.535"
         cy="8.373"
         r="0.05"
         id="circle6589" />
      <circle
         style="fill:black;stroke:none"
         cx="4.37"
         cy="7.154"
         r="0.05"
         id="circle6591" />
      <circle
         style="fill:black;stroke:none"
         cx="0.622"
         cy="7.25"
         r="0.05"
         id="circle6593" />
      <circle
         style="fill:black;stroke:none"
         cx="0.831"
         cy="5.679"
         r="0.05"
         id="circle6595" />
      <circle
         style="fill:black;stroke:none"
         cx="1.257"
         cy="8.519"
         r="0.05"
         id="circle6597" />
      <circle
         style="fill:black;stroke:none"
         cx="1.989"
         cy="6.877"
         r="0.05"
         id="circle6599" />
      <circle
         style="fill:black;stroke:none"
         cx="0.374"
         cy="3.181"
         r="0.05"
         id="circle6601" />
      <circle
         style="fill:black;stroke:none"
         cx="1.166"
         cy="1.664"
         r="0.05"
         id="circle6603" />
      <circle
         style="fill:black;stroke:none"
         cx="1.151"
         cy="0.093"
         r="0.05"
         id="circle6605" />
      <circle
         style="fill:black;stroke:none"
         cx="1.151"
         cy="10.093"
         r="0.05"
         id="circle6607" />
      <circle
         style="fill:black;stroke:none"
         cx="1.302"
         cy="4.451"
         r="0.05"
         id="circle6609" />
      <circle
         style="fill:black;stroke:none"
         cx="3.047"
         cy="3.763"
         r="0.05"
         id="circle6611" />
    </pattern>
  </defs>
  <g
     inkscape:label="Layer 1"
     inkscape:groupmode="layer"
     id="layer1">
    <path
       style="opacity:0.411043;fill:url(#Polkadots-small);fill-opacity:1.0;fill-rule:evenodd;stroke:#c2b280;stroke-width:0.204472;stroke-opacity:0.649123"
       d="M 113.25394,128.99748 C 76.978933,117.19076 71.656739,92.780615 79.057193,77.706034 86.457648,62.631451 105.65067,80.62539 117.22152,76.15761 c 11.57084,-4.467779 15.66738,-20.372929 27.96197,-23.226314 12.2946,-2.853386 27.81942,1.153647 38.54219,9.484077 10.72278,8.330431 18.44461,25.403174 20.02683,36.775 1.58222,11.371837 2.44359,16.500067 -5.85692,26.129607 -8.30048,9.62954 -31.17763,15.3853 -46.14669,15.5326 -4.79134,0.0471 -7.68754,-0.42472 -9.31589,-0.81738 -3.45897,-0.83406 -4.51505,-3.01013 -29.17907,-11.03772 z"
       id="path10974"
       sodipodi:nodetypes="szzzzzzsss" />
    <path
       style="opacity:0.411043;fill:url(#Polkadots-small);fill-opacity:1.0;fill-rule:evenodd;stroke:#c2b280;stroke-width:0.219848;stroke-opacity:0.649123"
       d="M 110.19959,130.68104 C 71.196691,117.98645 69.245124,91.02238 77.202097,74.814181 c 7.956973,-16.2082 25.575273,3.165964 38.016253,-1.637795 12.44097,-4.803759 15.19495,-20.495539 28.41409,-23.5635 13.21917,-3.067961 29.91146,1.240402 41.44059,10.197285 11.52914,8.956884 19.83166,27.313507 21.53287,39.540502 1.70119,12.227007 2.62734,17.740887 -6.29737,28.094567 -8.92469,10.35368 -33.52221,16.54228 -49.61695,16.70067 -5.15165,0.0506 -8.26565,-0.45667 -10.01645,-0.87886 -3.71908,-0.89677 -3.95676,-3.95475 -30.47554,-12.58601 z"
       id="path10976"
       sodipodi:nodetypes="szzzzzzsss" />
    <path
       style="opacity:0.411043;fill:#1e3e67;fill-opacity:1;fill-rule:evenodd;stroke:#c2b280;stroke-width:0.192;stroke-opacity:0.649123"
       d="M 114.9214,127.49093 C 80.444975,116.53748 75.386665,93.891438 82.420192,79.906288 c 7.033527,-13.98515 25.274918,2.708376 36.272068,-1.436519 10.99715,-4.144895 14.89056,-18.900588 26.57557,-21.547761 11.68501,-2.647173 26.44008,1.070273 36.6312,8.798668 10.19112,7.728395 17.53009,23.567299 19.03386,34.11729 1.50377,10.549994 2.32243,15.307614 -5.56651,24.241234 -7.88894,8.93362 -29.6318,14.27342 -43.85867,14.41007 -4.55377,0.0437 -7.30637,-0.39403 -8.85399,-0.75831 -3.28746,-0.77378 -4.29119,-2.79259 -27.73232,-10.24003 z"
       id="path9834"
       sodipodi:nodetypes="szzzzzzsss" />
  </g>
</svg>
