<?xml version="1.0" encoding="UTF-8" standalone="no"?>
<!-- Created with Inkscape (http://www.inkscape.org/) -->
<!-- width="264.58261mm"
   height="253.99448mm" -->
<svg
   
   viewBox="0 0 264.58261 253.99448"
   version="1.1"
   id="svg2346"
   inkscape:version="1.2 (dc2aedaf03, 2022-05-15)"
   sodipodi:docname="koi.svg"
   xmlns:inkscape="http://www.inkscape.org/namespaces/inkscape"
   xmlns:sodipodi="http://sodipodi.sourceforge.net/DTD/sodipodi-0.dtd"
   xmlns="http://www.w3.org/2000/svg"
   xmlns:svg="http://www.w3.org/2000/svg">
  <sodipodi:namedview
     id="namedview2348"
     pagecolor="#505050"
     bordercolor="#dddddd"
     borderopacity="1"
     inkscape:showpageshadow="0"
     inkscape:pageopacity="0"
     inkscape:pagecheckerboard="0"
     inkscape:deskcolor="#505050"
     inkscape:document-units="mm"
     showgrid="false"
     inkscape:zoom="1.0419012"
     inkscape:cx="481.81152"
     inkscape:cy="446.7794"
     inkscape:window-width="1920"
     inkscape:window-height="1002"
     inkscape:window-x="-8"
     inkscape:window-y="-8"
     inkscape:window-maximized="1"
     inkscape:current-layer="layer1" />
  <defs
     id="defs2343" />
  <g
     inkscape:label="Layer 1"
     inkscape:groupmode="layer"
     id="layer1"
     transform="translate(46.18295,66.127493)">
    <path
       style="fill:#f1f2daff;fill-opacity:1;stroke-width:0.264583"
       d="m -46.18295,186.54408 c 0,-1.29353 0.0176,-1.32292 0.79375,-1.32292 0.77611,0 0.79375,0.0294 0.79375,1.32292 0,1.29352 -0.0176,1.32291 -0.79375,1.32291 -0.77611,0 -0.79375,-0.0294 -0.79375,-1.32291 z m 109.80208,-2.00451 c -6.88821,-1.24876 -11.50628,-4.17301 -13.70204,-8.67637 -0.44523,-0.91315 -1.18959,-2.84235 -1.65412,-4.2871 -0.46453,-1.44475 -1.20972,-3.321 -1.65598,-4.16946 -0.75011,-1.42617 -0.96904,-1.62191 -2.89977,-2.59266 -2.41317,-1.21332 -4.05818,-2.73675 -4.90749,-4.54477 -0.79952,-1.70203 -1.15141,-4.6347 -0.82916,-6.91018 0.23489,-1.65867 0.62419,-2.78537 2.47528,-7.16391 0.36912,-0.87313 0.67396,-1.92084 0.67741,-2.32824 0.009,-1.00727 -0.66073,-2.22608 -1.34092,-2.44197 -0.96398,-0.30595 -3.47443,-0.18938 -5.34994,0.24844 -0.9913,0.2314 -2.21643,0.42073 -2.72252,0.42073 -1.84077,0 -4.0223,-1.70489 -5.49529,-4.29462 -0.83689,-1.47136 -1.33692,-1.7908 -2.80323,-1.7908 -3.06012,0 -5.09228,-2.59293 -4.6493,-5.93226 0.24245,-1.82769 1.71885,-4.89101 3.33796,-6.92576 2.56794,-3.22718 7.75527,-6.62727 12.20839,-8.00212 2.87191,-0.88667 7.18937,-1.62526 10.55996,-1.80649 1.72719,-0.0929 3.14034,-0.24091 3.14034,-0.32899 0,-0.0881 -0.87896,-1.0139 -1.95325,-2.0574 -2.25651,-2.19184 -4.37987,-3.36091 -9.42383,-5.18849 -6.60855,-2.39448 -10.84951,-3.20193 -19.43475,-3.70024 l -5.54412,-0.32179 3.16287,-1.55285 c 7.34997,-3.60855 13.51002,-4.93039 22.96851,-4.92866 6.51075,0.001 14.40732,0.8712 23.95037,2.63872 8.52659,1.57926 9.58897,1.72398 20.53774,2.79769 2.32833,0.22834 9.47208,0.96102 15.875,1.6282 6.58305,0.68594 13.07877,1.22399 14.94895,1.23825 2.97054,0.0226 3.63058,-0.0638 6.48229,-0.84915 1.88082,-0.51795 3.97328,-1.3105 5.13339,-1.94434 2.03097,-1.10965 2.98352,-1.28451 4.9326,-0.9055 l 1.07015,0.20811 0.81631,-1.67878 c 2.35878,-4.85092 4.148,-9.87031 4.57764,-12.84184 0.3397,-2.34948 0.33378,-8.12714 -0.007,-7.27651 -0.26129,0.65133 -2.20977,2.96343 -5.01325,5.9488 -5.11503,5.4469 -12.40088,9.50639 -22.62188,12.60432 -4.01424,1.2167 -4.88074,1.28493 -2.4611,0.19381 1.12025,-0.50517 2.92585,-1.5876 4.01245,-2.4054 3.00338,-2.2604 4.54171,-4.02878 8.83903,-10.16085 2.13852,-3.05155 4.95624,-9.80657 4.34542,-10.41739 -0.18655,-0.18654 -0.50805,-0.0521 -1.02171,0.42737 -0.82459,0.76965 -2.91108,1.49545 -6.23553,2.16907 -4.16304,0.84354 -8.89268,0.0348 -9.30058,-1.5904 -0.28913,-1.152 0.20279,-1.67544 1.88735,-2.00826 6.91654,-1.36655 9.90938,-3.12758 17.20707,-10.1249 4.9046,-4.70274 8.90286,-9.30411 9.30965,-10.71397 0.20221,-0.7008 0.23513,-0.67048 0.93513,0.86113 0.39906,0.87313 0.99215,2.36141 1.31799,3.30729 0.78818,2.28801 4.33856,9.27802 4.35618,8.57649 0.008,-0.30341 -0.59232,-1.7315 -1.33321,-3.17355 -1.72764,-3.36265 -2.45482,-5.13492 -3.54227,-8.63315 -1.60888,-5.17558 -6.12957,-13.03049 -10.33052,-17.94975 -6.29297,-7.36899 -7.08028,-8.47037 -7.89751,-11.04795 l -0.58336,-1.83996 -0.61436,0.49748 c -1.57076,1.27192 -4.25991,-0.13848 -4.25991,-2.23423 0,-0.49049 0.18506,-0.88165 0.9321,-1.97024 0.0271,-0.0395 1.03638,-0.2453 2.2429,-0.45743 1.20652,-0.21213 2.23642,-0.42843 2.28867,-0.48068 0.0522,-0.0522 -1.08417,-0.60442 -2.52538,-1.22708 -1.49569,-0.64618 -3.00962,-1.51016 -3.5273,-2.01297 l -0.90693,-0.88091 -0.57886,1.19148 c -0.96626,1.98887 -3.29883,2.46874 -5.49988,1.13147 -2.09878,-1.27512 -4.61884,-5.18803 -5.0066,-7.77376 L 100.34794,6.96778 98.0572,6.80414 C 92.36178,6.39731 89.4053,5.45408 87.42299,3.41144 86.84591,2.8168 86.37375,2.47206 86.37375,2.64536 c 0,0.43455 5.29747,5.82926 7.40463,7.54056 1.78005,1.44564 5.0049,3.7089 5.5378,3.88653 0.31735,0.10579 -0.61091,2.53295 -3.09472,8.09196 -2.27085,5.08239 -4.76944,8.60778 -9.92538,14.00424 -3.41272,3.57192 -4.23986,4.76664 -4.56015,6.5867 -0.6058,3.44246 -3.13641,2.8315 -4.61875,-1.1151 -3.68567,-9.81282 -4.70575,-23.22847 -2.50065,-32.88741 0.34993,-1.53279 0.77032,-3.26314 0.93419,-3.84522 0.3952,-1.40373 2.6168,-6.99461 3.58333,-9.01783 l 0.76889,-1.60949 -0.61712,-0.4655 c -0.33942,-0.25602 -0.96708,-0.948599 -1.39481,-1.539055 -0.63539,-0.877128 -0.77768,-1.338948 -0.77768,-2.523985 0,-1.459891 0.64582,-2.97553 1.46268,-3.432664 0.28512,-0.159568 0.32959,-0.722035 0.20685,-2.616602 l -0.15636,-2.413341 -1.19039,-0.163161 c -2.14095,-0.293449 -2.89185,-0.193588 -3.70795,0.493117 -1.16075,0.976707 -1.21901,1.643557 -0.4454,5.09841 0.1059,0.472942 0.0884,0.856384 -0.039,0.852093 -0.3313,-0.01117 -3.64032,-4.244081 -5.26817,-6.739072 -0.75956,-1.164167 -1.95294,-3.186666 -2.65196,-4.49444 -0.69944,-1.307777 -1.76836,-2.915121 -2.3758,-3.571875 -3.85163,-4.164361 -5.35936,-7.942662 -4.90586,-12.293814 0.2801,-2.687319 0.18079,-2.943508 -1.42619,-3.679208 -4.01535,-1.838283 -5.02692,-7.315477 -2.40772,-13.036573 1.21632,-2.656776 4.12292,-6.039796 6.73704,-7.841281 1.79195,-1.2349 4.34919,-2.034265 6.52861,-2.040768 2.44131,-0.0073 4.15295,0.52657 5.89542,1.838768 1.5771,1.18767 2.35939,1.309676 3.58022,0.558377 0.76377,-0.470021 1.07004,-0.488251 4.12792,-0.245698 3.17917,0.252175 3.97164,0.474803 3.97437,1.116515 7.9e-4,0.198661 0.86271,0.309177 2.57969,0.330792 1.41813,0.01785 3.62412,0.230784 4.9022,0.473179 3.51981,0.66755 9.46974,2.617098 11.48874,3.764383 1.6871,0.958689 1.75006,1.027093 1.02163,1.11006 -0.42694,0.04863 -1.95669,-0.04882 -3.39943,-0.216544 -1.44274,-0.167728 -2.68241,-0.245719 -2.75481,-0.173313 -0.18438,0.184375 3.05582,1.102632 5.73988,1.626657 4.14561,0.809371 7.35667,1.682404 8.70962,2.367989 1.37922,0.698905 1.62007,0.995143 3.66589,4.508879 1.81073,3.109946 1.70573,3.044274 2.55373,1.597273 1.24007,-2.116023 2.99098,-2.475306 6.43268,-1.319969 4.45006,1.493837 14.02236,7.262548 15.27143,9.203272 1.02676,1.595318 0.58271,4.693951 -1.05477,7.360345 -0.505,0.822299 -0.91817,1.552279 -0.91817,1.622182 0,0.0699 1.16086,0.207803 2.57969,0.306453 3.10797,0.216091 4.92186,0.69188 7.21559,1.892684 3.92994,2.057381 5.04771,3.690604 7.65567,11.186051 0.72767,2.091351 1.46695,3.975872 1.64286,4.187824 0.1759,0.211956 0.86333,0.660784 1.52761,0.9974 2.54914,1.291746 5.61082,5.36848 7.37557,9.82082 4.25972,10.74693 7.21841,25.59803 7.24321,36.35712 0.0203,8.8134 -1.54337,16.82864 -5.24294,26.87446 -1.89441,5.14408 -3.13258,6.38545 -6.12178,6.13756 -3.83066,-0.31767 -4.51122,-3.00157 -2.83591,-11.18389 1.66969,-8.1549 1.57904,-15.96234 -0.27651,-23.81534 -1.42619,-6.03589 -3.54279,-10.14288 -8.28224,-16.07061 -0.78536,-0.98226 -1.51537,-1.78594 -1.62225,-1.78594 -0.10688,0 0.10017,0.59506 0.4601,1.32235 0.35993,0.72729 1.12102,2.84065 1.69131,4.69636 2.74719,8.93925 3.18572,10.44427 3.7971,13.0313 2.35748,9.97566 1.97915,22.38656 -0.94569,31.02345 -0.62796,1.85434 -0.64504,2.88046 -0.085,5.10992 0.40139,1.59793 0.39996,1.79406 -0.0211,2.89658 -0.29024,0.75998 -0.93472,1.60518 -1.80344,2.36512 l -1.35181,1.18252 0.6453,1.39561 c 1.27236,2.75177 5.1572,6.01084 7.18452,6.02724 1.07076,0.009 2.39621,-1.31587 4.19954,-4.19661 0.87605,-1.39945 2.65261,-4.03274 3.94792,-5.85175 1.29531,-1.81901 2.72498,-4.06395 3.17705,-4.98875 0.45207,-0.92481 0.86851,-1.6349 0.92543,-1.57798 0.0569,0.0569 -0.0817,0.87311 -0.30796,1.81376 -1.81667,7.55138 -4.69869,13.2958 -10.74742,21.42172 -1.94495,2.61286 -4.08747,4.99264 -7.97989,8.86354 -4.4746,4.44988 -6.07781,5.84255 -10.07811,8.75461 -8.86179,6.45103 -12.91016,8.91368 -19.91025,12.11154 -7.29263,3.3315 -12.62834,5.24175 -24.00512,8.59411 -3.92906,1.15777 -8.27484,2.51521 -9.65729,3.01655 -7.03541,2.55134 -12.89147,6.1961 -17.73653,11.03903 -3.45363,3.45212 -5.02311,5.40847 -6.98091,8.70166 -4.83962,8.14066 -5.59682,14.9286 -2.41467,21.64619 0.96106,2.02882 1.53573,2.82744 3.36382,4.67472 1.24733,1.26042 3.23882,2.89489 4.586,3.76385 2.40538,1.55153 5.43212,3.00555 6.28386,3.0187 0.25466,0.004 0.46302,0.109 0.46302,0.23349 0,0.62669 -9.97642,0.74012 -13.22917,0.15042 z M 144.59909,81.96755 c 0.60213,-0.83121 0.77628,-1.35668 0.77628,-2.34226 0,-0.97026 0.24919,-1.7438 1.05405,-3.27203 2.92096,-5.5462 3.47789,-7.89068 2.83026,-11.91439 -0.23423,-1.45521 -0.68693,-3.50989 -1.00602,-4.56595 l -0.58015,-1.92012 -0.51379,1.12637 c -1.24985,2.74001 -1.3261,3.18081 -1.65954,9.59304 -0.24161,4.64637 -0.47541,6.91787 -0.87142,8.46666 -0.29768,1.16417 -0.67477,2.86823 -0.83798,3.78681 -0.16322,0.91858 -0.36994,1.86085 -0.45938,2.09392 -0.26685,0.69539 0.40688,0.13627 1.26769,-1.05205 z m 7.16119,-50.33701 c -0.16454,-1.89177 -0.59127,-4.64434 -0.94829,-6.11682 -1.88275,-7.76509 -6.90466,-18.78254 -11.69474,-25.6568 -3.63606,-5.21814 -3.9178,-5.56088 -7.48402,-9.104506 -4.03361,-4.008059 -13.33151,-12.118588 -18.50704,-16.143636 -4.72043,-3.671114 -13.09407,-9.256362 -13.87753,-9.256362 -0.14813,0 0.83328,0.684609 2.18092,1.521354 6.95847,4.320492 19.21315,14.523788 25.66057,21.365103 5.24687,5.567417 7.36473,8.500787 11.56199,16.014017 3.38138,6.05278 4.2496,8.3139 3.08521,8.03485 -0.25466,-0.061 -0.63197,-5.3e-4 -0.83845,0.13416 -0.57893,0.37798 0.22386,2.18219 1.95421,4.39198 2.08063,2.6571 3.15402,4.32627 3.66379,5.69738 0.589,1.58418 0.57234,1.938 -0.0832,1.76658 -0.29104,-0.0761 -0.52917,-0.0883 -0.52917,-0.0271 0,0.0612 0.76478,1.68715 1.6995,3.61325 1.66993,3.44106 3.82129,9.73673 3.89326,11.39308 0.0201,0.46208 0.15477,-0.29095 0.29933,-1.67339 0.18276,-1.74781 0.17169,-3.56139 -0.0363,-5.95313 z m 14.01956,-12.19786 c -0.4247,-1.29482 -1.19941,-3.28868 -1.72159,-4.43079 -1.2493,-2.73244 -1.55757,-3.91572 -1.23866,-4.75452 0.13905,-0.36573 0.44003,-0.70475 0.66885,-0.75339 0.32451,-0.069 0.14786,-0.48745 -0.80308,-1.90238 -1.482,-2.20507 -5.01692,-6.4668 -6.23474,-7.51664 -3.23006,-2.78452 -9.2058,-6.16346 -15.07482,-8.523935 -4.61513,-1.856171 -5.55374,-2.312437 -8.00284,-3.890217 -0.99878,-0.643437 -1.85687,-1.128979 -1.90686,-1.078981 -0.05,0.05 0.64811,0.65373 1.55136,1.341625 0.90326,0.687896 3.43346,3.183401 5.62267,5.545568 2.18921,2.36217 4.92765,5.04107 6.08541,5.9531 3.89154,3.06559 5.7237,4.67547 8.96263,7.87527 3.59804,3.55456 10.96262,11.83396 12.02927,13.52351 0.38076,0.60313 0.72431,1.06722 0.76343,1.0313 0.0391,-0.0359 -0.27634,-1.12471 -0.70103,-2.41952 z m -7.68973,-28.651368 c -1.21114,-2.374027 -5.81708,-5.707996 -12.22634,-8.849926 -7.13705,-3.498707 -16.22808,-6.063564 -25.49153,-7.191938 -1.89177,-0.230436 -3.70747,-0.485164 -4.03489,-0.566063 -0.32742,-0.0809 -0.59531,-0.08997 -0.59531,-0.02016 0,0.211521 5.56545,3.285413 7.95112,4.391535 2.47994,1.149832 6.46804,2.490103 18.6395,6.264135 8.97095,2.781644 13.30955,4.617212 15.12059,6.397199 0.56045,0.550836 1.05571,0.92112 1.1006,0.822848 0.0449,-0.09827 -0.1638,-0.659706 -0.46374,-1.247637 z M 64.8759,-29.522682 c 0.46775,-0.125352 0.59531,-0.350235 0.59531,-1.049481 0,-2.211681 -2.6881,-6.645833 -3.88358,-6.406157 -0.41105,0.08241 -0.47716,0.34885 -0.44887,1.809001 0.0387,1.997141 0.81964,3.962614 2.01999,5.083905 0.85131,0.795248 0.8505,0.794983 1.71715,0.562732 z M -35.72988,138.91908 c 0.06,-0.50933 0.169,-1.87854 0.24215,-3.04271 0.52405,-8.33965 6.07531,-16.25399 14.72373,-20.99137 2.33068,-1.27668 4.52348,-2.07715 6.35606,-2.32025 l 1.29933,-0.17237 -2.72345,2.74666 c -3.82733,3.85993 -4.67964,5.87072 -3.22244,7.60249 0.36856,0.43802 1.1127,0.94848 1.65364,1.13436 1.20496,0.41406 4.61952,0.39885 6.93639,-0.0309 3.41957,-0.63427 12.83452,-4.08404 15.01537,-5.50185 1.07214,-0.69702 0.62521,0.0582 -0.92604,1.56489 -4.49521,4.36599 -11.33418,7.98787 -23.61406,12.50589 -8.39119,3.08729 -14.51528,5.82106 -15.38163,6.86631 -0.46434,0.56021 -0.4673,0.55723 -0.35905,-0.36117 z m 147.23796,-6.15156 c 2.7e-4,-0.10915 0.52836,-0.19844 1.17337,-0.19844 1.38446,0 6.18327,-1.20335 9.54288,-2.39297 2.54634,-0.90164 5.78578,-2.451 7.9375,-3.79636 0.7276,-0.45493 1.62057,-0.98009 1.98437,-1.16702 1.19173,-0.61236 5.92945,-4.11161 8.3096,-6.1374 1.28231,-1.09141 2.55937,-2.14956 2.83792,-2.35146 0.27854,-0.20189 1.11982,-1.15439 1.86951,-2.11666 0.7497,-0.96228 1.5241,-1.88416 1.72089,-2.04863 0.27262,-0.22785 0.0569,-0.27018 -0.9062,-0.17778 -0.69521,0.0667 -1.61074,0.23157 -2.03452,0.36638 -0.42378,0.13482 -0.81855,0.19708 -0.87726,0.13836 -0.0587,-0.0587 2.43988,-2.70839 5.55244,-5.88817 5.48572,-5.60419 9.56056,-10.1741 10.9671,-12.29952 0.79734,-1.20485 1.10601,-1.18625 0.47769,0.0288 -0.65881,1.274 -0.446,2.20111 0.55168,2.40341 1.6212,0.32873 4.34941,-1.53479 6.16555,-4.21141 2.15512,-3.17621 3.53287,-6.44842 5.04209,-11.97512 0.58098,-2.12755 1.18672,-4.21114 1.34608,-4.63021 0.68439,-1.79969 3.14009,-10.21911 3.30885,-11.34446 0.13677,-0.91205 0.2618,-1.15407 0.48233,-0.93361 0.44436,0.44423 0.40197,17.38056 -0.0517,20.64426 -1.20533,8.67166 -2.30268,13.35729 -4.40014,18.78829 -3.18817,8.25524 -10.48526,18.07029 -16.3426,21.98186 -1.30642,0.87243 -2.32787,1.49175 -2.26991,1.37627 0.91005,-1.81301 1.60886,-3.67284 2.33519,-6.21493 0.74164,-2.59568 0.83454,-3.20349 0.57628,-3.77031 -0.16934,-0.37167 -0.49022,-0.67577 -0.71306,-0.67577 -0.22283,0 -1.30221,0.74414 -2.39861,1.65365 -6.95806,5.77199 -11.43834,8.58629 -17.71278,11.12634 -4.09255,1.65676 -5.92014,2.20877 -9.30213,2.80964 -4.21119,0.74819 -15.17391,1.4801 -15.17245,1.01298 z m 82.16168,-64.39644 c -0.106,-0.85303 -0.59718,-2.95789 -1.09151,-4.67747 -1.48338,-5.16008 -2.56881,-7.74429 -8.57752,-20.4214 -0.75872,-1.60073 -1.54449,-3.37187 -1.74617,-3.93587 -0.42522,-1.18911 -0.47827,-2.44624 -0.11278,-2.67212 0.13966,-0.0863 1.06239,0.81114 2.05052,1.99433 0.98814,1.1832 2.77572,3.28109 3.97242,4.66198 5.13523,5.92562 7.48042,10.49719 8.25989,16.10132 0.44122,3.17231 0.13401,4.81382 -1.57585,8.42006 l -0.98627,2.08013 z m 23.95261,-5.96833 c -0.54446,-1.81724 -2.31048,-5.44575 -3.49748,-7.18601 -2.48833,-3.64814 -6.81621,-8.37266 -7.66975,-8.37266 -0.41731,0 -0.50147,0.10966 -0.35537,0.46302 0.37367,0.90374 2.02835,5.78442 2.62376,7.73907 1.18832,3.90107 1.11047,5.1296 -0.17885,2.82274 -2.56774,-4.59418 -7.93094,-10.61261 -13.16451,-14.77285 -2.88416,-2.29265 -12.8651,-11.45152 -14.38755,-13.20253 -0.98837,-1.13674 -2.2719,-3.47588 -2.27717,-4.14997 -0.002,-0.23118 0.51901,-0.33073 1.73035,-0.33073 2.95865,0 4.15245,-1.13061 4.19268,-3.97079 0.038,-2.68181 -1.69215,-4.80621 -4.74035,-5.82058 -2.42569,-0.80722 -2.83044,-1.3034 -2.72469,-3.34019 l 0.0842,-1.62217 -1.85209,-1.29952 c -1.21963,-0.85576 -1.85208,-1.47637 -1.85208,-1.81741 0,-0.32623 0.14687,-0.48268 0.39688,-0.42275 0.21828,0.0523 1.5875,0.26032 3.0427,0.46222 3.73393,0.51806 9.74683,2.40236 13.22917,4.14569 3.98056,1.99274 8.08296,5.47661 12.57244,10.67683 7.36043,8.52567 12.75674,20.68559 14.95547,33.70034 0.64494,3.81752 0.85214,7.40833 0.42751,7.40833 -0.12248,0 -0.37237,-0.49954 -0.55529,-1.11008 z M 112.06101,61.49926 c 3.3904,-3.57377 5.25497,-7.81593 5.26462,-11.97771 0.003,-1.30624 -0.26546,-2.49031 -1.18672,-5.23368 -1.04165,-3.10188 -1.19062,-3.82843 -1.19062,-5.80664 0,-2.20939 0.73704,-7.78268 1.41333,-10.68715 l 0.33884,-1.45521 0.74874,1.45521 c 0.4118,0.80037 1.30853,2.28865 1.99272,3.30729 2.26964,3.37909 4.56705,7.12922 5.03937,8.22591 0.25634,0.59518 0.60646,1.75839 0.77804,2.58489 0.27973,1.34743 0.25133,1.68678 -0.2748,3.28347 -0.70409,2.1368 -3.26889,7.41634 -4.4781,9.21802 -1.37888,2.05448 -3.89726,4.50207 -6.61648,6.43049 -3.39269,2.40604 -3.54013,2.45886 -1.82894,0.65511 z m -6.88733,-22.31234 c -0.19566,-1.53531 -0.25803,-3.32496 -0.14983,-4.29948 0.15969,-1.43845 3.14861,-13.63489 3.40402,-13.8903 0.0504,-0.0504 0.67089,1.60706 1.37877,3.68335 1.10344,3.23646 1.2851,4.05817 1.27328,5.75943 -0.0145,2.09205 -0.72282,4.41941 -2.36284,7.76396 -0.71371,1.4555 -2.49691,3.61312 -2.98613,3.61312 -0.12215,0 -0.37292,-1.18354 -0.55727,-2.63008 z m 53.94891,-56.967318 c -0.61432,-1.200547 -1.42868,-2.626317 -1.80969,-3.168377 -0.38101,-0.542063 -1.66802,-2.387531 -2.86004,-4.101042 -1.19201,-1.713513 -2.62076,-3.590199 -3.175,-4.17042 -0.55423,-0.580218 -2.36587,-2.473119 -4.02584,-4.206444 l -3.01814,-3.151499 7.78064,-3.878389 c 4.27935,-2.133114 8.73314,-4.188429 9.89731,-4.567365 5.91089,-1.924002 12.58616,-2.728224 17.35168,-2.090496 2.84116,0.380208 7.29432,1.497435 8.11688,2.036402 1.5389,1.008322 0.86921,2.128287 -1.87,3.127333 -2.85329,1.040651 -6.08729,3.135383 -8.39093,5.434972 -1.25778,1.255578 -3.10529,3.625951 -4.96181,6.366055 -1.62682,2.401094 -3.80084,5.437187 -4.83115,6.746875 -2.00466,2.548239 -6.62302,7.749082 -6.91228,7.784075 -0.0961,0.01162 -0.67731,-0.961133 -1.29163,-2.16168 z"
       id="path11828" />
  </g>
</svg>
