<?xml version="1.0" encoding="UTF-8" standalone="no"?>
<!-- Created with Inkscape (http://www.inkscape.org/) -->
<!--    width="232.4063mm"
   height="235.01369mm" -->
<svg
   viewBox="0 0 232.4063 235.01369"
   version="1.1"
   id="svg7794"
   inkscape:version="1.2 (dc2aedaf03, 2022-05-15)"
   sodipodi:docname="koi1.svg"
   xmlns:inkscape="http://www.inkscape.org/namespaces/inkscape"
   xmlns:sodipodi="http://sodipodi.sourceforge.net/DTD/sodipodi-0.dtd"
   xmlns="http://www.w3.org/2000/svg"
   xmlns:svg="http://www.w3.org/2000/svg">
  <sodipodi:namedview
     id="namedview7796"
     pagecolor="#505050"
     bordercolor="#eeeeee"
     borderopacity="1"
     inkscape:showpageshadow="0"
     inkscape:pageopacity="0"
     inkscape:pagecheckerboard="0"
     inkscape:deskcolor="#505050"
     inkscape:document-units="mm"
     showgrid="false"
     inkscape:zoom="0.73673541"
     inkscape:cx="428.91925"
     inkscape:cy="444.52865"
     inkscape:window-width="1920"
     inkscape:window-height="1002"
     inkscape:window-x="-8"
     inkscape:window-y="-8"
     inkscape:window-maximized="1"
     inkscape:current-layer="layer1" />
  <defs
     id="defs7791" />
  <g
     inkscape:label="Layer 1"
     inkscape:groupmode="layer"
     id="layer1"
     transform="translate(55.510282,-31.172884)">
    <path
       style="fill:#f1f2da;fill-opacity:1;stroke-width:0.264583"
       d="m -56.769612,76.631834 c 1.01228,15.74315 5.73708,25.666956 23.63357,49.639176 1.09862,1.4716 2.90257,3.9216 4.00877,5.44442 l 2.01127,2.76878 0.15636,4.74204 c 0.38478,11.67013 3.70788,23.29146 9.52694,33.31703 0.59124,1.01865 2.0877,3.38513 3.32546,5.25885 2.12775,3.22098 2.22336,3.42659 1.75328,3.77031 -0.27345,0.19996 -0.71497,0.36355 -0.98115,0.36355 -0.46015,0 -0.45758,0.0517 0.0522,1.05098 0.88801,1.74065 2.01665,2.80513 4.5779103,4.31767 1.34051,0.79165 2.67543,1.58011 2.96647,1.75216 0.48419,0.28622 0.47295,0.2976 -0.13229,0.13393 -2.4586,-0.66486 -9.0647103,-4.87666 -12.8322903,-8.18135 -2.46023,-2.15796 -2.7963,-2.32237 -1.63303,-0.79888 1.16245,1.52242 1.20679,2.06029 0.24396,2.95929 -0.68215,0.63693 -0.85157,0.67068 -2.71198,0.54027 -1.0914,-0.0765 -2.2225,-0.22067 -2.51354,-0.32036 -0.82565,-0.28281 5.8714,6.21511 7.88,7.64569 3.55687,2.5333 8.0988903,4.67431 13.7338703,6.47384 6.0398,1.92882 13.47294,2.59596 19.6507997,1.76372 3.12718,-0.42127 5.13905,-0.87024 4.11137,-0.91749 -1.20412,-0.0553 -2.53496,-0.69902 -3.5844,-1.73361 -0.64481,-0.63568 -1.59038,-1.30693 -2.10128,-1.49167 -1.23122,-0.44522 -1.17284,-0.71041 0.17822,-0.80969 1.0378,-0.0763 1.14821,-0.16419 1.76352,-1.40428 0.77619,-1.56435 1.14354,-1.88238 2.55332,-2.21053 0.58208,-0.13549 0.81375,-0.25909 0.51482,-0.27468 -0.85503,-0.0446 -2.97636,-1.51775 -3.5571,-2.47027 -0.78886,-1.29384 -0.68177,-2.81963 0.35546,-5.0646 1.147,-2.48252 1.89289,-3.0768 3.86175,-3.0768 0.82797,0 2.2416,0.25029 3.15412,0.55845 1.85318,0.62583 2.0387,0.96987 0.26172,0.48536 -0.63316,-0.17264 -2.00385,-0.32929 -3.046,-0.34812 -1.68079,-0.0304 -1.97508,0.0405 -2.60544,0.62722 -1.25352,1.1668 -1.83335,2.59504 -1.82604,4.49792 0.0111,2.88228 1.19738,3.96876 4.33342,3.96876 1.26501,0 1.596,-0.085 1.596,-0.41002 0,-1.80998 4.24338,-5.67541 6.23033,-5.67541 0.57011,0 0.91904,0.9038 1.09864,2.84574 0.14447,1.56198 0.27554,1.89536 1.05122,2.67381 0.86967,0.87277 0.87336,0.88611 0.19843,0.71671 -1.02063,-0.25616 -3.36526,-1.63823 -4.09256,-2.41241 -0.59061,-0.62868 -0.6083,-0.72658 -0.2461,-1.36208 0.21464,-0.3766 0.65814,-0.86095 0.98556,-1.07635 0.57849,-0.38056 0.59429,-0.36643 0.55928,0.50054 -0.0262,0.64782 -0.068,0.7249 -0.15272,0.28141 -0.0944,-0.49425 -0.1885,-0.55116 -0.49313,-0.29833 -0.59575,0.49442 -0.44398,1.47902 0.32069,2.08051 1.22705,0.96521 1.45299,0.76044 1.36547,-1.23757 l -0.0782,-1.78594 -0.9555,-0.0799 c -1.8199,-0.15224 -3.47955,2.02096 -2.43079,3.18294 0.26173,0.28999 1.24978,0.91738 2.19567,1.39419 2.99822,1.51139 3.35792,2.11888 0.52916,0.8937 -1.38245,-0.59877 -2.82254,-1.37668 -3.20021,-1.72871 -0.7662,-0.71418 -0.9518,-0.60682 -1.54716,0.89493 -0.30665,0.77349 -0.27429,0.96189 0.34734,2.02263 0.71743,1.2242 2.09371,2.54839 2.64864,2.54839 0.17857,0 0.73324,-0.42154 1.23261,-0.93676 0.59523,-0.61412 1.39876,-1.07944 2.33299,-1.35103 0.91024,-0.26461 1.46932,-0.58363 1.54763,-0.88307 0.14606,-0.55855 0.97906,-0.97382 2.36928,-1.18112 l 1.01576,-0.15147 -1.05772,0.40848 c -1.51649,0.58565 -1.91166,1.03072 -1.4331,1.61403 0.33818,0.41219 0.3151,0.44081 -0.23998,0.29771 -0.84568,-0.21802 -3.02734,0.47089 -3.64196,1.15004 -0.356,0.39337 -0.50641,0.95059 -0.50641,1.87605 0,1.32036 0.0368,1.38114 1.36615,2.25454 0.39482,0.25942 0.3282,0.26818 -0.3553,0.0468 -1.32721,-0.42994 -2.28582,-0.21289 -2.47325,0.56 -0.48152,1.9855 1.07605,3.9408 4.30667,5.4064 l 2.05052,0.93024 v -0.62247 c 0,-0.99594 0.67161,-2.33223 1.709,-3.4004 0.52927,-0.54497 1.05653,-0.99086 1.17169,-0.99086 0.11515,0 0.34005,0.2868 0.49976,0.63733 0.2639,0.57921 0.19584,0.6999 -0.74637,1.32342 -1.16557,0.77134 -1.43531,1.44841 -1.44016,3.61482 -0.003,1.1751 0.14698,1.70161 0.73671,2.59275 0.95567,1.44411 1.37389,1.57848 2.64184,0.84874 0.85475,-0.49193 1.41642,-0.59552 3.12942,-0.57719 1.14823,0.0123 2.0877,-0.066 2.0877,-0.17398 0,-0.10798 -0.47302,-0.7138 -1.05115,-1.34626 -1.0404,-1.13819 -1.42966,-2.19919 -1.27677,-3.48004 0.0757,-0.63456 0.0252,-0.65902 -1.24396,-0.60138 -2.32014,0.10537 -3.07558,0.34095 -3.8946,1.21453 l -0.78946,0.84205 0.41851,-0.83653 c 0.6122,-1.22367 1.58191,-1.86776 3.14606,-2.08965 l 1.38407,-0.19634 -0.82592,-0.34387 c -1.06398,-0.44297 -1.71349,-1.98433 -1.88555,-4.47466 -0.22109,-3.19997 0.99778,-4.94966 3.96824,-5.69644 1.24458,-0.31288 1.25681,-0.32656 1.26039,-1.40902 0.007,-2.22933 0.66791,-3.0038 1.10926,-1.30058 0.196,0.75638 0.33127,0.83576 1.88591,1.10649 0.92112,0.1604 2.12424,0.29165 2.67359,0.29165 0.84158,0 0.97126,0.0729 0.82372,0.46302 -0.34108,0.90185 -1.32204,2.13819 -2.02691,2.55457 -1.27088,0.75073 -3.19665,0.38862 -4.00616,-0.7533 -0.13744,-0.19387 -0.25945,-0.1865 -0.39688,0.0239 -0.10914,0.16713 -0.88748,0.38976 -1.72965,0.49474 -1.91786,0.23906 -2.67566,0.81096 -2.67566,2.01928 0,1.46955 2.65423,4.91945 3.5258,4.58274 1.41741,-0.54758 4.09445,-0.95338 5.75032,-0.87167 1.71572,0.0847 1.87156,0.0511 1.65364,-0.35607 -0.31876,-0.5956 -0.30905,-2.79207 0.0132,-2.99124 0.1396,-0.0863 0.47883,-0.0164 0.75383,0.15539 0.42576,0.26589 0.71579,0.14935 1.95303,-0.78478 0.79917,-0.60338 1.52792,-1.09705 1.61945,-1.09705 0.0915,0 -0.13066,0.43778 -0.49377,0.97284 -0.66115,0.97427 -1.07967,2.12204 -0.85551,2.3462 0.0657,0.0657 1.0027,-0.18452 2.0823,-0.55597 1.20785,-0.41559 2.85342,-0.73576 4.278,-0.83235 1.27331,-0.0863 2.31482,-0.22864 2.31448,-0.31624 -0.001,-0.33819 -2.15418,-5.12973 -2.89635,-6.44633 -0.42967,-0.76223 -0.86181,-1.89189 -0.96031,-2.51035 -0.0985,-0.61846 -0.21563,-1.12448 -0.26028,-1.12448 -0.0446,0 -0.89263,0.16702 -1.88441,0.37115 -0.99178,0.20414 -2.54738,0.45395 -3.45688,0.55515 -1.65604,0.18426 -2.09579,0.48521 -1.14838,0.78591 0.27791,0.0882 0.64705,0.33119 0.82032,0.53997 0.23338,0.28121 0.0853,0.26141 -0.57142,-0.0764 -0.71299,-0.36677 -1.66308,-0.46222 -4.85521,-0.48783 -4.9939,-0.04 -7.44514,-0.38991 -11.85636,-1.69227 -4.06379,-1.19978 -6.69034,-2.35668 -10.31595,-4.54379 -4.70186,-2.83636 -12.46696,-8.12909 -13.6787297,-9.3235 -0.65485,-0.64546 -2.20266,-2.03143 -3.43958,-3.07994 -4.79561,-4.0651 -8.42613,-8.54917 -10.09267,-12.46548 -0.93332,-2.19326 -0.96008,-2.6478 -0.0517,-0.87777 0.78448,1.52856 2.79068,4.66436 3.72402,5.82083 1.47931,1.83297 5.50465,5.68837 7.2834,6.97591 7.0328697,5.0907 18.3887997,11.67339 23.3767997,13.55082 5.84092,2.19847 10.7533,3.03041 17.69658,2.99702 6.07227,-0.0292 10.69295,-0.62511 22.61816,-2.91695 4.17705,-0.80276 5.10406,-1.07083 6.35,-1.83629 0.80241,-0.49297 2.08401,-1.03915 2.84799,-1.21374 3.12602,-0.71438 1.42977,-0.9454 -8.53281,-1.1621 -5.10644,-0.11108 -8.99139,-0.0376 -13.6224,0.25779 -8.13921,0.51907 -13.46831,0.52387 -17.86464,0.0161 -3.45508,-0.39908 -9.49467,-1.4396 -9.32733,-1.60694 0.0493,-0.0493 1.7518,0.0928 3.78328,0.31595 4.46478,0.49033 16.45189,0.57749 19.70088,0.14325 8.35407,-1.11656 21.49051,-1.68463 25.70375,-1.11153 2.04739,0.27849 4.60753,0.8995 6.15283,1.49249 0.16995,0.0652 0.32711,-0.12185 0.34924,-0.4157 0.0644,-0.85482 2.25571,-3.48691 3.86143,-4.63813 0.81189,-0.58208 1.45132,-1.15135 1.42097,-1.26504 -0.0304,-0.11369 -0.96968,-0.60425 -2.08738,-1.09013 -1.1177,-0.48589 -2.5389,-1.25607 -3.15822,-1.71153 -1.27723,-0.93928 -2.19115,-1.03611 -3.11014,-0.32951 -0.48903,0.376 -0.59445,0.64103 -0.46311,1.1643 0.25904,1.03213 1.58032,2.18743 2.93566,2.5669 1.59581,0.4468 1.70975,0.70993 0.40301,0.9307 -1.38417,0.23385 -3.49951,-0.28047 -4.16667,-1.01308 -1.14757,-1.26015 -1.35591,-3.64272 -0.41224,-4.71432 0.41438,-0.47056 0.20536,-0.50612 -5.31383,-0.90397 -1.43773,-0.10363 -2.40135,-0.32779 -3.0744,-0.71515 -0.88405,-0.50879 -1.08879,-0.53171 -2.08472,-0.23332 -0.60741,0.18199 -1.44476,0.65197 -1.86077,1.04439 -0.86212,0.81326 -1.90214,3.67022 -1.6759,4.60373 0.18794,0.77546 1.10062,1.79025 1.64171,1.8254 0.2293,0.0149 0.0458,0.11567 -0.40767,0.22395 -1.13395,0.27072 -2.36695,0.0509 -2.8773,-0.51308 -0.29134,-0.32193 -0.42891,-0.98014 -0.43416,-2.07728 l -0.008,-1.60602 -1.36773,0.5021 c -1.59666,0.58616 -4.42334,1.32661 -5.0643,1.32661 -0.24485,0 -0.79321,-0.34803 -1.21858,-0.7734 -0.61782,-0.61782 -0.77288,-1.0037 -0.77081,-1.91823 0.003,-1.39378 1.03984,-3.73121 2.1782,-4.91118 0.45416,-0.47076 0.77436,-0.89771 0.71155,-0.94877 -0.12715,-0.10336 -4.45759,0.20042 -8.71317,0.61124 -1.52797,0.1475 -3.35641,0.26801 -4.0632,0.2678 -1.06513,-2.6e-4 -1.2575,0.0715 -1.12391,0.41962 0.0887,0.23101 0.22231,0.91562 0.29704,1.52136 l 0.13587,1.10135 -0.42647,-1.32292 c -0.23457,-0.7276 -0.47426,-1.37223 -0.53267,-1.4325 -0.13571,-0.14006 -3.3222,-0.0294 -3.5704,0.124 -0.10261,0.0634 0.0392,0.84087 0.31525,1.72766 0.54417,1.74842 0.66003,3.4173 0.23724,3.4173 -0.14552,0 -0.26458,-0.27605 -0.26458,-0.61344 0,-1.23134 -0.85479,-3.45706 -1.62255,-4.22482 -0.43035,-0.43034 -0.83322,-0.73168 -0.89526,-0.66963 -0.062,0.062 0.11923,0.58256 0.40283,1.1567 0.28361,0.57414 0.59499,1.46062 0.69196,1.96994 l 0.17633,0.92604 -0.63343,-0.57081 c -0.82375,-0.74232 -2.85858,-1.79015 -3.06858,-1.58015 -0.0898,0.0898 0.0445,0.39296 0.29843,0.67359 0.60204,0.66525 0.85771,2.53376 0.41903,3.06234 -0.53317,0.64243 -0.79585,0.4658 -0.79585,-0.53513 0,-1.90728 -1.00347,-3.2988 -2.37886,-3.2988 -0.52746,0 -0.53655,0.0357 -0.14968,0.58804 1.09138,1.55817 0.0724,1.66125 -2.10735,0.21319 -0.87,-0.57797 -1.66421,-1.05422 -1.76492,-1.05833 -0.1007,-0.004 0.10623,0.49854 0.45984,1.117 0.63825,1.1163 0.89137,3.10885 0.39492,3.10885 -0.13992,0 -0.38117,-0.47083 -0.53613,-1.0463 -0.33092,-1.22896 -1.34397,-2.51667 -2.416,-3.07104 -0.90697,-0.46901 -0.89911,-0.49634 -0.23307,0.81005 0.29104,0.57086 0.52805,1.39971 0.52668,1.84188 -0.002,0.77413 -0.0309,0.75439 -0.76875,-0.53196 -0.42144,-0.73476 -0.92634,-1.46649 -1.12199,-1.62608 -0.19565,-0.15959 -1.2487,-0.42518 -2.34011,-0.59021 -4.40041,-0.66535 -8.51291,-1.88909 -12.08115,-3.59494 -1.91521,-0.9156 -4.2369297,-2.17103 -5.1593697,-2.78985 -2.58532,-1.73434 -6.24231,-5.5846 -7.65039,-8.05467 -3.46914,-6.08564 -5.57833,-13.79258 -4.79809,-17.53208 0.97422,-4.66916 4.71413,-8.86603 12.46626,-13.98946 9.8683097,-6.52204 15.5885997,-11.92945 18.1918997,-17.196856 1.27318,-2.57611 1.42997,-4.50232 0.60048,-7.37734 -0.81371,-2.82034 -0.83009,-6.46921 -0.0389,-8.66661 0.64925,-1.80317 2.03959,-3.6282 4.11054,-5.39572 l 1.49907,-1.27943 -0.72591,-0.52917 c -2.45435,-1.78915 -3.63947,-3.87586 -4.01741,-7.07372 l -0.14808,-1.25288 -1.45521,1.85586 c -2.07276,2.64346 -3.83766,5.62662 -4.68912,7.92595 -0.60197,1.62558 -0.73484,2.41494 -0.73484,4.36563 0,2.47924 0.56968,4.83956 1.38932,5.75631 0.65907,0.73715 0.13677,0.88414 -0.62472,0.17581 -1.06119,-0.98711 -2.10901,-2.6245 -2.59424,-4.05392 -0.35936,-1.05861 -0.38874,-1.54457 -0.15997,-2.64583 0.4373,-2.10509 2.90735,-6.89369 5.13137,-9.948 4.27873,-5.87609 5.34923,-7.08711 10.53977,-11.92329 9.20052,-8.5724 15.58249,-12.9915 22.77191,-15.76805 5.4112,-2.08981 9.49004,-2.87356 17.23853,-3.31242 l 5.53778,-0.31365 -2.23049,-0.75666 c -3.75578,-1.27409 -5.4173,-1.54213 -10.56488,-1.70438 -4.21314,-0.1328 -5.4659,-0.0721 -8.99583,0.43561 -6.3144,0.90828 -12.6904,2.73128 -18.51052,5.29247 -1.35304,0.59541 -2.52104,1.0216 -2.59556,0.94708 -0.0745,-0.0745 0.38738,-0.35999 1.02644,-0.63437 0.63906,-0.27439 1.99537,-0.88909 3.01401,-1.366 1.01865,-0.47691 2.62599,-1.15536 3.57188,-1.50766 0.94588,-0.35231 2.46919,-0.93711 3.38511,-1.29957 2.27591,-0.90065 9.08981,-2.4124 12.59633,-2.79466 l 2.88457,-0.31446 -1.29707,-0.45032 c -0.71338,-0.24768 -2.15327,-0.82323 -3.19975,-1.27898 -2.69315,-1.17292 -5.26063,-1.45381 -11.59107,-1.26811 -5.88486,0.17263 -8.50836,0.53788 -13.83924,1.92674 -8.89328,2.31698 -16.38932,6.09532 -23.9961797,12.09515 -2.97823,2.34906 -11.40482,10.72212 -13.63107,13.54449 -2.49784,3.16668 -5.7144303,8.14194 -7.0126003,10.84672 -2.2963,4.78441 -4.64241,12.72232 -5.78714,19.58036 -0.68428,4.09951 -1.66334,13.511736 -2.66963,25.664586 -0.50578,6.10812 -1.60862,15.07891 -2.09801,17.06562 -0.34925,1.41779 -0.35581,1.37016 -0.25517,-1.85208 0.23265,-7.44873 0.91813,-25.09202 1.17188,-30.1625 0.56784,-11.346616 2.57046,-20.402456 5.68825,-25.722136 0.70386,-1.20096 0.81768,-1.54364 0.46095,-1.38776 -0.26054,0.11385 -1.34045,0.26069 -2.3998,0.32631 -1.54411,0.0956 -2.23588,0.003 -3.48809,-0.46484 -2.36292,-0.88367 -3.50537,-2.02409 -5.06042,-5.05145 -1.90875,-3.71595 -3.34038,-4.80295 -5.54415,-4.20953 -0.92633,0.24943 -1.14713,0.47519 -1.87506,1.91721 -1.27037,2.51659 -1.85012,5.90326 -1.89062,11.04428 -0.0344,4.36434 0.26706,6.89234 1.26195,10.58334 0.21573,0.80036 0.38611,1.6338 0.37861,1.85208 -0.0393,1.14494 -1.94357,-5.4593 -2.34144,-8.12047 -0.41313,-2.7633 -0.35411,-8.18268 0.11333,-10.40478 0.21879,-1.0401 0.6993,-2.74453 1.06781,-3.78761 0.3685,-1.04308 0.73277,-2.08044 0.80948,-2.30525 0.10604,-0.31075 -0.19748,-0.49272 -1.26625,-0.75912 -3.96166,-0.98747 -6.69974,-3.95181 -8.02424,-8.68732 -0.56256,-2.01133 -0.42105,-3.10214 0.67326,-5.18977 0.44746,-0.85362 0.75422,-1.61137 0.68171,-1.68388 -0.33435,-0.33435 -2.99612,0.62398 -4.47451,1.61098 -4.79286,3.19977 -7.83275,8.36077 -9.02011,15.31395 -0.394,2.30727 -0.68044,8.06961 -0.5229,10.51952 z m 22.58836,14.41979 c 0.31256,0.72736 0.31256,1.14511 0,0.66146 -0.14106,-0.21828 -0.24994,-0.57547 -0.24193,-0.79375 0.01,-0.26169 0.092,-0.21663 0.24193,0.13229 z m 3.175,-7.80521 c 0.17634,-0.27286 0.25775,0.33216 0.26053,1.93625 0.002,1.28322 0.1968,3.66447 0.43237,5.29167 0.43415,2.99885 2.36605,9.774136 3.32037,11.644766 0.28686,0.56229 0.47205,1.07185 0.41154,1.13237 -0.44322,0.44321 -3.62892,-8.722176 -4.27845,-12.309256 -0.42555,-2.35019 -0.51633,-7.12331 -0.14636,-7.6958 z m 16.69479,69.320826 c 0.10219,0.36381 0.19767,0.48128 0.21217,0.26105 0.0347,-0.52688 1.82093,-3.17146 2.1421,-3.17146 0.13726,0 -0.0451,0.43417 -0.40518,0.96483 -1.40147,2.06518 -1.91834,6.30665 -1.02817,8.43714 0.59977,1.43543 3.07808,3.91933 5.3404803,5.35251 2.01628,1.27726 2.07137,1.58353 0.29339,1.63109 -1.08919,0.0291 -1.37473,0.56781 -1.01597,1.91663 0.74653,2.80666 2.66154,5.24849 4.14911,5.29053 0.93215,0.0263 4.59523,-0.60961 5.56683,-0.96645 l 0.99107,-0.364 -1.19062,-0.0201 c -2.54717,-0.043 -4.51269,-1.1787 -4.93209,-2.84969 -0.18684,-0.74444 0.34554,-2.58537 0.87465,-3.02449 0.28202,-0.23406 0.35327,-0.12391 0.35327,0.54609 0,1.28228 0.65207,2.28651 1.77578,2.7348 1.51793,0.60556 4.87405,1.57074 5.00533,1.43947 0.0637,-0.0637 -0.92997,-0.5611 -2.20816,-1.10532 -2.95159,-1.2567 -3.19441,-1.48933 -0.94133,-0.90177 2.6996,0.704 3.1408,0.65519 3.84043,-0.42486 0.32876,-0.50752 0.65728,-0.92276 0.73004,-0.92276 0.0728,0 0.40793,0.4254 0.74484,0.94534 0.4014,0.6195 1.07813,1.15083 1.96329,1.54147 l 1.35074,0.59612 -1.24301,0.313 c -0.93498,0.23543 -1.37578,0.52469 -1.77876,1.16723 -0.72404,1.15452 -0.53833,2.7445 0.4165,3.56581 0.64123,0.55155 0.94647,0.59572 4.1173997,0.59572 3.57438,0 4.20529,0.23007 2.53952,0.92608 -0.48693,0.20344 -1.89884,0.51644 -3.13759,0.69555 -2.6403297,0.38175 -3.4361397,0.16771 -4.8714897,-1.31022 -0.76728,-0.79004 -0.89519,-1.10499 -0.89519,-2.20408 v -1.28233 h -0.9372 c -2.26211,0 -6.03312,1.15367 -7.50846,2.29709 -0.34294,0.26578 1.33965,1.47617 2.48028,1.78423 0.73434,0.19833 2.93639,0.80413 4.89344,1.34623 2.82543,0.78264 3.84716,0.95582 4.96094,0.84087 0.77147,-0.0796 1.40266,-0.0969 1.40266,-0.0384 0,0.0585 -0.38217,0.30401 -0.84928,0.54556 -0.71271,0.36856 -1.32849,0.41053 -3.82953,0.261 -2.40408,-0.14373 -3.13005,-0.10071 -3.75507,0.2225 -0.69414,0.35895 -0.92052,0.35739 -2.1745,-0.015 -1.91684,-0.56923 -2.83387,-1.3389 -4.95781,-4.16108 -3.80503,-5.05593 -7.7446303,-13.2616 -8.4764603,-17.65538 -0.27924,-1.67649 -0.28664,-6.79116 -0.008,-5.80054 z m 0.23854,-1.98437 c 0.14333,-0.33355 0.22739,-0.38245 0.22739,-0.13229 0,0.21828 -0.10232,0.635 -0.22739,0.92604 -0.14333,0.33354 -0.22739,0.38245 -0.22739,0.13229 0,-0.21828 0.10233,-0.635 0.22739,-0.92604 z m 4.6276803,-44.81301 c 0.68352,-1.61936 1.3209,-2.94443 1.4164,-2.94462 0.32077,-5.3e-4 -0.18955,14.34144 -0.5743,16.13992 -0.33293,1.55626 -0.38541,1.64431 -0.55193,0.92604 -0.10122,-0.43656 -0.47298,-1.98437 -0.82615,-3.43958 -0.3531703,-1.45521 -0.6976603,-2.88396 -0.7655503,-3.175 -0.0679,-0.29104 -0.0824,-1.43666 -0.0323,-2.54583 0.0763,-1.68838 0.29339,-2.49592 1.3338603,-4.96093 z m 3.46868,52.80654 c 0.23289,-0.48838 0.67938,-1.04385 0.99219,-1.23438 0.52754,-0.32132 0.5234,-0.29717 -0.0572,0.33335 -1.28301,1.39329 -0.94773,4.07154 0.63993,5.11182 0.58912,0.38601 0.88648,0.39736 2.62389,0.10017 1.9459,-0.33286 2.78609,-0.25906 2.78609,0.24471 0,0.14448 -0.50492,0.39865 -1.12205,0.56483 -0.61713,0.16618 -1.43918,0.52795 -1.82678,0.80395 -0.95521,0.68017 -1.61935,0.63115 -2.59723,-0.19168 -1.72092,-1.44806 -2.32821,-3.86772 -1.43883,-5.73277 z m 5.46354,22.95613 c 1.76969,-0.91009 2.97482,-1.0026 1.94682,-0.14943 -0.75662,0.62793 -0.67069,1.30882 0.26932,2.13416 1.85279,1.62678 3.72226,2.23031 6.05808,1.95579 1.40198,-0.16478 1.40468,-0.1669 1.26982,-0.99797 -0.0743,-0.45807 0.041,-1.24652 0.25621,-1.75211 l 0.39136,-0.91927 -0.13629,1.12195 c -0.0849,0.69914 -0.0114,1.27246 0.19518,1.52135 0.4198397,0.50588 1.8278397,0.50257 2.5000697,-0.006 1.01291,-0.76613 1.32951,-0.24129 0.38517,0.6385 -0.41354,0.38527 -0.78671,0.48105 -1.45297,0.37293 -0.49309,-0.08 -1.04636,-0.0256 -1.2294897,0.12093 -0.51171,0.40942 -3.91072,1.18558 -4.60815,1.05225 -0.71705,-0.13707 -0.80126,0.1218 -0.20152,0.61953 0.34291,0.28459 0.56888,0.28555 1.25677,0.005 1.21347,-0.49431 5.0416197,-1.59674 5.1540897,-1.48427 0.18029,0.1803 -0.91343,0.63515 -2.4814597,1.03198 -0.86315,0.21844 -2.07728,0.54857 -2.69806,0.73363 l -1.1287,0.33646 -1.13511,-1.18027 c -1.23947,-1.28878 -2.60459,-2.40445 -4.34656,-3.55232 -0.61846,-0.40753 -1.12448,-0.83549 -1.12448,-0.95101 0,-0.11553 0.38696,-0.40905 0.8599,-0.65227 z M 10.277278,59.192784 c 4.28633,-3.43937 13.08623,-9.39198 16.66022,-11.26966 1.11055,-0.58345 -0.40638,0.47858 -2.64583,1.85239 -7.98315,4.89734 -15.0592497,10.18542 -21.0234697,15.71116 l -2.39216,2.21629 2.65436,-2.61317 c 1.4599,-1.43724 4.49599,-4.0909 6.7468797,-5.89701 z m 0.58678,104.758666 c 1.4501,0.65822 1.70834,0.64851 1.94769,-0.0733 0.17918,-0.54034 0.2156,-0.50997 0.39445,0.32894 0.10837,0.50833 0.1428,0.97849 0.0765,1.04478 -0.13266,0.13266 -3.5431197,-1.49313 -3.5431197,-1.68904 0,-0.067 0.5060197,0.10786 1.1244797,0.38859 z m 2.73223,13.52012 c 1.72318,-0.60319 4.02938,-0.47122 5.54581,0.31736 1.51413,0.78738 1.38931,0.8348 -0.80356,0.30531 -2.04837,-0.4946 -4.03484,-0.49184 -4.99118,0.007 -0.92184,0.48078 -1.03679,0.48904 -0.8976,0.0645 0.0596,-0.1819 0.57558,-0.49425 1.14653,-0.6941 z m 5.66829,-10.61683 c 0.22104,-0.34202 0.25704,-0.33504 0.26054,0.0505 0.002,0.24608 -0.11502,0.52099 -0.26054,0.61093 -0.33485,0.20695 -0.33485,-0.14331 0,-0.66146 z m 8.6127,-119.428026 c 0.23546,-0.0904 0.34167,-0.046 0.24897,0.10398 -0.0889,0.14386 -0.27368,0.26156 -0.41062,0.26156 -0.38058,0 -0.29672,-0.18965 0.16165,-0.36554 z m 1.16967,145.430456 c 0.28598,-0.46904 0.79155,-0.90814 1.12349,-0.97577 1.8303,-0.37295 2.85206,-0.33578 3.9206,0.14262 1.40864,0.63066 1.27076,0.86572 -0.2088,0.35597 -1.26882,-0.43714 -2.45362,-0.28992 -3.70359,0.46022 -0.88013,0.52818 -1.1393,0.82807 -0.50541,0.58482 0.19496,-0.0748 0.5072,0.048 0.69385,0.27289 0.28797,0.34699 0.25432,0.40892 -0.22219,0.40892 -0.62772,0 -0.7706,0.74346 -0.24407,1.27 0.50358,0.50358 0.64832,0.40089 1.5105,-1.07157 0.78439,-1.33964 0.80775,-1.35611 0.65644,-0.46302 -0.34378,2.02915 -1.87948,2.98621 -2.99758,1.86811 -0.68571,-0.68571 -0.6944,-1.75243 -0.0232,-2.85319 z m 1.06555,-146.652416 c 0.58208,-0.29696 1.05833,-0.48039 1.05833,-0.40763 0,0.0728 -0.47625,0.37525 -1.05833,0.67221 -0.58208,0.29696 -1.05833,0.48039 -1.05833,0.40763 0,-0.0728 0.47625,-0.37526 1.05833,-0.67221 z m 4.10804,-2.06557 c 0.0815,0.0815 -0.0654,0.22941 -0.32632,0.32876 -0.37708,0.14359 -0.40747,0.1132 -0.14811,-0.14811 0.17948,-0.18082 0.39297,-0.26211 0.47443,-0.18065 z m 0.80049,-0.41664 c 0.23546,-0.0904 0.34167,-0.046 0.24897,0.10399 -0.0889,0.14385 -0.27368,0.26155 -0.41062,0.26155 -0.38058,0 -0.29672,-0.18965 0.16165,-0.36554 z m 14.43664,120.512346 c 0.44221,-1.26853 0.5312,-0.84484 0.10791,0.51374 -0.20223,0.64904 -0.37565,0.98948 -0.38538,0.75653 -0.01,-0.23294 0.11513,-0.80457 0.27747,-1.27027 z m 27.70091,4.14721 c 1.66246,-1.55505 2.38605,-1.95236 2.5896,-1.42193 0.30271,0.78886 -0.0234,1.3275 -0.91407,1.50966 -0.49191,0.1006 -1.3427,0.62826 -1.91663,1.18869 -0.89428,0.87324 -1.03206,0.9348 -1.03206,0.46113 0,-0.31177 0.54707,-1.05839 1.27316,-1.73755 z m -109.78162,10.82658 c 1.18073,2.83537 2.08419,4.30646 4.76128,7.7527 3.94653,5.0804 8.6908,9.26187 14.39323,12.68578 6.1026803,3.66425 14.4050903,5.93908 24.13415,6.61269 7.84468,0.54313 10.04538,0.98528 12.19749,2.45061 1.94107,1.32164 0.63226,2.05439 -2.8485,1.59475 -1.06736,-0.14094 -1.99287,-0.20922 -2.0567,-0.15172 -0.0638,0.0575 0.14453,0.64089 0.46302,1.29644 0.81593,1.67943 0.77173,2.07617 -0.20947,1.87993 -0.97939,-0.19588 -1.37414,0.39674 -1.15672,1.73653 l 0.1502,0.92562 -1.15299,-0.17975 c -0.63414,-0.0989 -1.73367,-0.43912 -2.4434,-0.75613 -0.70972,-0.31701 -1.3348,-0.57638 -1.38906,-0.57638 -0.34697,0 0.0687,0.67216 1.17322,1.89691 1.51269,1.67742 2.29581,2.78192 2.5477,3.5932 0.1602,0.51598 0.0897,0.59531 -0.52937,0.59531 -0.39281,0 -1.12148,-0.25171 -1.61925,-0.55935 -0.49777,-0.30764 -0.97254,-0.49184 -1.05505,-0.40934 -0.31776,0.31776 0.93104,1.94701 2.36487,3.08535 l 1.49968,1.19063 -0.71888,0.3188 c -0.39538,0.17533 -1.13559,0.32241 -1.64491,0.32683 -1.16335,0.0101 -6.4551297,-1.75687 -9.0323497,-3.01597 l -1.94786,-0.95163 1.71979,1.61031 c 3.39838,3.18202 7.0616797,5.14745 12.1645597,6.52652 2.16275,0.58448 3.0822,0.68296 6.48857,0.69498 3.46446,0.0122 4.30494,-0.0743 6.61458,-0.68093 4.86995,-1.27911 9.43056,-3.39803 13.36146,-6.20794 2.25886,-1.61469 5.55625,-3.36534 5.55625,-2.94992 0,0.12237 0.62508,0.62332 1.38906,1.1132 0.76399,0.48988 2.08265,1.33686 2.93036,1.88216 3.419,2.19935 11.57139,5.53119 23.46183,9.58873 3.0844,1.05253 2.93328,1.21845 -0.92604,1.01671 -5.93093,-0.31003 -10.56806,0.42846 -15.0436,2.39577 -2.532,1.113 -3.84876,1.99916 -5.74821,3.8685 -0.79892,0.78626 -1.68635,1.52625 -1.97205,1.64442 -0.41,0.16958 -0.0794,0.35466 1.56847,0.87819 l 2.08795,0.66334 -0.96107,0.3304 c -1.156,0.39741 -2.28878,1.11002 -2.28878,1.43983 0,0.34515 2.47918,1.20894 4.59149,1.59976 1.0757,0.19902 2.7978,0.28059 4.23333,0.20052 3.59906,-0.20076 1.84421,0.32248 -2.07795,0.61957 -1.74625,0.13227 -3.8932,0.3121 -4.77101,0.39962 -1.16275,0.11592 -1.87182,0.0439 -2.612,-0.26539 -0.55879,-0.23348 -1.44793,-0.42186 -1.97586,-0.41862 -1.54587,0.009 -2.73464,1.30805 -2.05203,2.24156 0.29605,0.40488 0.60468,0.41901 3.28917,0.15064 3.1166,-0.31157 4.00336,-0.19123 7.19569,0.97652 l 1.19062,0.43553 -2.64583,0.4604 c -6.81588,1.18602 -6.34685,1.14475 -7.59423,0.66837 -1.58202,-0.60418 -2.02311,-0.56002 -2.21943,0.22221 -0.4323,1.7224 0.69904,4.03692 3.12041,6.38381 5.7032,5.52779 14.02767,7.64739 24.15575,6.15061 3.32622,-0.49157 7.31162,-1.88976 10.85258,-3.8074 6.66717,-3.61066 13.60686,-10.37667 17.597742,-17.15734 0.74034,-1.25788 1.42845,-2.28626 1.52913,-2.2853 0.10068,9.7e-4 1.84993,0.44173 3.88722,0.97947 3.69694,0.97581 3.71475,0.97772 9.12812,0.97454 3.0551,-0.002 5.922,-0.12995 6.56432,-0.29345 1.10415,-0.28106 1.14882,-0.26795 1.40669,0.41277 0.43874,1.15822 1.26329,1.83342 3.24783,2.65959 3.51583,1.46364 7.06372,1.68448 9.53067,0.59323 1.3428,-0.59398 4.18308,-3.04318 4.45856,-3.84465 0.25166,-0.73218 5.55252,-3.33197 9.73934,-4.77665 3.31066,-1.14235 5.55419,-2.52613 7.9379,-4.89599 3.48981,-3.46954 4.72845,-6.0643 4.93182,-10.33144 0.25006,-5.24679 -0.59356,-8.23489 -4.18316,-14.81667 -0.99206,-1.81901 -2.35606,-4.55744 -3.03112,-6.08541 -0.67506,-1.52797 -1.39916,-2.97036 -1.60911,-3.20531 -0.20994,-0.23495 -0.9447,-0.49386 -1.63279,-0.57535 -3.37049,-0.39919 -7.20357,-2.76225 -11.81228,-7.28218 l -3.05184,-2.99305 1.24105,-0.54898 c 0.79714,-0.35261 1.27522,-0.44645 1.33659,-0.26236 0.29344,0.88034 2.24969,3.50785 3.2896,4.41839 0.66341,0.58087 2.48831,1.70466 4.05534,2.49731 4.56367,2.30843 7.00753,2.1517 7.00102,-0.44899 -0.002,-0.62198 -0.29491,-1.4858 -0.78624,-2.31511 -0.99606,-1.68126 -1.20465,-1.92385 -2.65086,-3.08297 -1.57894,-1.2655 -2.78266,-1.84509 -5.95312,-2.86639 l -2.64584,-0.8523 -2.57883,0.33466 -2.57883,0.33467 -4.03575,-3.95895 c -5.12044,-5.02298 -9.14794,-7.72528 -14.75138,-9.8976 l -1.19062,-0.46157 -0.06,-2.07791 c -0.23324,-8.07987 -2.36616,-17.61138 -6.29688,-28.13935 -4.35836,-11.67331 -12.14956,-25.87456 -17.201232,-31.35313 -1.31903,-1.4305 -1.31995,-1.42366 -0.17747,1.32292 1.72051,4.1362 2.25838,8.11389 1.54847,11.45149 -0.79321,3.72928 -2.96408,6.96773 -5.39572,8.0492 -0.61846,0.27506 -1.13709,0.64337 -1.15251,0.81846 -0.0734,0.83364 0.11415,1.98982 0.45613,2.81153 0.35664,0.85698 0.34169,0.94246 -0.27805,1.58933 l -0.65496,0.68363 0.49436,2.24714 c 0.66372,3.01695 1.26561,4.32344 3.29179,7.14521 3.29499,4.58879 4.65626,7.6865 4.65626,10.59576 0,1.54412 -0.5881,3.42387 -1.07119,3.42387 -0.18284,0 -0.18169,-0.16564 0.004,-0.51177 0.39971,-0.74686 0.33505,-2.62301 -0.14712,-4.26885 -0.44714,-1.52627 -2.21061,-4.65362 -4.46563,-7.91938 -2.85565,-4.1356 -4.29915,-7.44105 -4.59866,-10.53037 l -0.19752,-2.03733 -0.58178,1.19062 c -0.47889,0.98006 -0.91553,1.37779 -2.4689,2.24896 -2.43042,1.36303 -3.54135,2.66711 -4.24467,4.98265 -0.71598,2.3572 -0.55975,4.43912 0.48639,6.48145 0.6559,1.28048 0.97945,1.58766 2.60116,2.46952 1.01864,0.55392 1.69015,1.00898 1.49224,1.01123 -0.53098,0.006 -3.24414,-1.49115 -4.3418,-2.39593 -1.16862,-0.96328 -2.36839,-3.33228 -2.40556,-4.7499 -0.0152,-0.57868 -0.10657,-1.05215 -0.2031,-1.05215 -0.0965,0 -0.53282,0.40696 -0.96954,0.90436 -0.96555,1.0997 -1.90257,3.50103 -2.09972,5.38104 -0.11602,1.10634 -0.2166,1.33188 -0.492,1.10332 -0.19039,-0.15801 -0.48699,-0.72426 -0.6591,-1.25832 -0.66278,-2.05653 -0.77792,-2.12144 -1.45762,-0.82181 -0.33762,0.64554 -0.61923,1.6406 -0.6258,2.21125 -0.0102,0.88874 0.15573,1.19822 1.15736,2.15795 2.25433,2.16002 5.2561,3.46838 13.60433,5.92962 4.93283,1.4543 9.56351,3.11531 12.743022,4.57085 1.09141,0.49963 3.53219,1.41628 5.42396,2.037 1.89177,0.62071 3.8563,1.35632 4.36562,1.63469 l 0.92604,0.50613 -1.05833,-0.0935 c -0.58208,-0.0514 -3.20146,-0.52587 -5.82083,-1.05433 -2.61938,-0.52846 -6.727032,-1.27887 -9.128132,-1.66759 -2.40109,-0.38872 -4.54422,-0.77001 -4.7625,-0.84732 -0.2437,-0.0863 -0.16467,0.11473 0.20476,0.5209 0.67838,0.74584 1.0022,1.70859 1.39565,4.14946 0.32425,2.01161 1.0184,3.45584 2.43362,5.0634 0.57649,0.65484 1.33543,1.75617 1.68653,2.44739 0.63565,1.25145 1.35227,1.75457 1.02345,0.71855 -0.10738,-0.33831 0.1183,-1.15607 0.60763,-2.20175 0.87094,-1.86116 2.339402,-3.24635 4.359432,-4.11223 1.17167,-0.50224 1.35588,-0.51105 3.22185,-0.15403 3.6243,0.69344 4.49765,0.99743 5.70458,1.98561 0.65485,0.53616 1.88182,1.36186 2.72662,1.8349 0.91758,0.51379 1.78343,1.24834 2.15058,1.82445 4.88624,7.66738 5.78499,8.76334 8.15478,9.94426 1.66266,0.82854 1.21172,0.9066 -0.5333,0.0923 -1.61831,-0.75515 -3.35147,-2.51316 -6.21569,-6.30482 -1.98712,-2.63056 -2.57279,-3.21606 -4.22864,-4.2274 -1.7302,-1.05674 -2.08052,-1.17205 -3.50956,-1.1552 -0.87312,0.0103 -1.91286,0.11041 -2.31052,0.22247 -0.52418,0.1477 -1.19804,0.0136 -2.45018,-0.48769 -2.35127,-0.94128 -3.34065,-0.91245 -4.21169,0.12271 -0.94932,1.12821 -1.07811,1.87913 -0.71875,4.19063 0.31815,2.04641 1.17578,4.00985 2.81904,6.45384 0.97534,1.4506 4.06065,4.73607 5.42575,5.77775 1.37649,1.05037 0.75082,1.20606 -1.12812,0.28073 -2.07125,-1.02004 -5.35651,-4.01694 -6.71534,-6.12592 -0.61072,-0.94786 -1.217132,-1.5979 -1.491962,-1.59927 -0.62837,-0.003 -2.42998,1.842 -3.12089,3.19629 -1.1845,2.32181 -0.94349,6.96411 0.5894,11.35349 0.43197,1.23693 1.08524,3.14193 1.45172,4.23333 0.36647,1.09141 0.7353,2.16297 0.81962,2.38125 0.0843,0.21828 0.22568,-0.15253 0.31413,-0.82402 0.33651,-2.55463 2.896802,-6.62499 5.552342,-8.82713 2.08962,-1.73285 5.76884,-3.25803 9.27649,-3.84548 2.17445,-0.36416 6.78887,-0.19325 7.25068,0.26856 0.18816,0.18816 0.021,0.22293 -0.53613,0.1115 -1.30921,-0.26184 -5.61539,0.38053 -7.96399,1.18802 -4.98103,1.71255 -9.12178,4.92994 -10.85117,8.43143 -0.97844,1.98105 -0.99623,2.07175 -0.99464,5.07222 0.002,2.95112 0.0328,3.11815 0.91809,4.90719 0.64971,1.313 1.53488,2.47179 3.04109,3.98116 2.4557,2.46084 4.77107,3.79942 7.98227,4.61474 1.95175,0.49555 1.99022,0.51851 0.62464,0.37279 -1.7112,-0.1826 -4.98131,-1.24235 -6.48229,-2.10072 -1.17138,-0.66989 -1.08243,-0.67979 -6.53741,0.72764 -3.999742,1.03196 -6.247342,3.16681 -6.682292,6.34707 -0.2331,1.7044 0.36779,2.3185 2.30564,2.35628 1.16277,0.0227 1.25975,0.0586 0.59531,0.22032 -1.75529,0.42732 -3.47059,1.57796 -3.85651,2.58697 -0.22767,0.59523 0.15946,2.19271 0.53137,2.19271 0.10723,0 0.50763,-0.35092 0.88978,-0.77981 0.95006,-1.06628 2.01428,-1.20586 6.150262,-0.80665 l 3.50769,0.33856 2.08489,-1.07344 c 2.37344,-1.222 4.09346,-1.71906 7.95484,-2.29882 3.35951,-0.50441 5.23025,-0.5017 2.58143,0.004 -4.04641,0.77212 -9.19593,2.78591 -11.55826,4.52002 -1.15856,0.85046 -1.32873,0.89993 -2.23495,0.64971 -1.11278,-0.30726 -2.89049,-0.0169 -4.245792,0.69344 -0.63869,0.33475 -0.9102,0.71531 -1.12829,1.58142 -0.31919,1.26762 -0.42012,1.31007 -1.77186,0.74528 -4.12402,-1.72313 -5.95874,-5.50366 -4.66413,-9.61066 l 0.45819,-1.45352 -0.78892,-0.54521 c -0.4339,-0.29986 -1.64877,-1.42132 -2.69972,-2.49214 l -1.91082,-1.94694 -0.99958,0.35053 c -2.01548,0.7068 -4.04233,3.55947 -4.04233,5.68934 0,0.34234 -0.15972,0.61433 -0.36076,0.61433 -0.28996,0 -0.3126,-0.27257 -0.11538,-1.38906 0.46486,-2.63166 1.86976,-4.8459 3.65132,-5.75478 l 0.99194,-0.50605 -0.60534,-1.26829 c -1.10125,-2.30731 -1.09478,-2.96688 0.0506,-5.14982 0.59209,-1.1285 1.77208,-2.73472 2.82234,-3.84182 1.4536,-1.53226 2.28042,-2.13854 4.24845,-3.11525 1.49391,-0.74141 2.97766,-1.27598 3.81774,-1.37548 0.75578,-0.0895 1.37414,-0.25892 1.37414,-0.37647 0,-0.11755 -0.31576,-0.78558 -0.70169,-1.4845 -2.29328,-4.15319 -3.34678,-6.40243 -4.31799,-9.21907 -0.59976,-1.73937 -1.20127,-3.27328 -1.33668,-3.40869 -0.36823,-0.36822 -3.08331,-0.22349 -4.46728,0.23813 -1.79445,0.59856 -3.68474,2.16802 -4.62835,3.84282 -0.76513,1.35802 -0.81811,1.62307 -0.7934,3.96875 0.0207,1.9639 0.18495,3.00532 0.75113,4.7625 0.73433,2.27902 2.2568,4.95909 3.45837,6.0879 1.25755,1.18141 0.6854,1.87929 -0.88421,1.07854 -1.19623,-0.61027 -5.03306,-1.15888 -6.39036,-0.91373 -3.22763,0.58298 -5.55159,3.24265 -5.16443,5.91048 0.40092,2.76263 2.99001,6.69378 6.13314,9.31223 0.75334,0.62759 1.33042,1.18035 1.28241,1.22836 -0.29692,0.29692 -2.41542,-1.25988 -4.12726,-3.03297 -2.24808,-2.32852 -3.59282,-4.22038 -5.29943,-7.45555 -0.63961,-1.2125 -1.91501,-3.20679 -2.83423,-4.43177 l -1.6713,-2.22725 h -2.2398 c -2.64191,0 -3.74988,0.38849 -4.63087,1.62372 -0.53489,0.74996 -0.63434,1.20174 -0.63272,2.8742 0.001,1.30932 0.16669,2.38941 0.48628,3.175 0.62675,1.54067 2.32758,4.06496 3.69915,5.49011 1.36585,1.4192 0.90811,1.46843 -0.67737,0.0728 -1.7532,-1.54323 -4.08575,-4.7148 -4.79095,-6.51423 -0.33871,-0.86429 -1.03829,-2.16468 -1.55461,-2.88976 -0.51633,-0.72508 -1.26354,-1.97318 -1.66047,-2.77354 -1.03359,-2.0841 -1.626,-2.6488 -2.75997,-2.6309 -1.43215,0.0226 -2.74382,0.56994 -3.13451,1.30798 -0.38144,0.72056 -0.25458,3.42387 0.21914,4.66986 0.14537,0.38236 0.20387,0.75564 0.13,0.82951 -0.21584,0.21584 -1.9902,-1.07046 -3.8898,-2.81986 -1.04864,-0.96573 -1.99691,-1.62118 -2.34545,-1.62118 -0.3218,0 -1.16675,0.31658 -1.87766,0.70351 -0.99043,0.53906 -1.29258,0.85137 -1.29258,1.33606 0,0.98801 0.69362,2.08873 1.71338,2.71897 1.09408,0.67618 1.20042,0.8865 0.2692,0.53245 -1.47585,-0.56112 -2.18588,-1.08242 -3.70237,-2.7183 -2.94335,-3.17507 -4.10164,-4.64958 -4.43285,-5.64303 -0.28326,-0.84965 -0.5158,-1.05399 -1.65257,-1.45225 -1.4504,-0.50814 -3.22898,-0.62971 -3.81209,-0.26056 -0.51954,0.3289 -1.61186,-0.21659 -1.61186,-0.80494 0,-0.32601 0.33285,-0.57581 1.05594,-0.79245 l 1.05594,-0.31637 -1.38667,-0.91235 c -1.60834,-1.0582 -1.70206,-1.17955 -1.92356,-2.49059 l -0.166,-0.98256 -1.0242,0.53384 c -2.97193,1.54906 -14.4558597,2.21447 -20.8947897,1.2107 -8.99017,-1.40147 -15.8487403,-4.31371 -21.9604103,-9.32465 -2.73863,-2.24539 -4.23739,-3.73597 -7.30655,-7.26665 -4.72091,-5.4308 -7.01154,-7.62547 -6.97282,-6.68073 0.004,0.10914 0.46388,1.29286 1.02091,2.6305 z m 55.79085,40.40411 c 4.43198,-0.028 5.23805,-0.18234 9.45823,-1.81091 1.01865,-0.39309 1.73302,-0.60709 1.5875,-0.47554 -0.577,0.52157 -3.64963,1.64277 -6.36584,2.32288 -2.44514,0.61224 -3.23442,0.69758 -5.393,0.58314 -2.07156,-0.10982 -3.45772,-0.33271 -3.45408,-0.5554 2.6e-4,-0.0208 1.87557,-0.0497 4.16719,-0.0642 z m 6.43388,4.37545 c 1.39254,-0.28416 3.94355,-0.99092 5.66892,-1.57056 1.72536,-0.57965 3.18369,-1.00723 3.24074,-0.95019 0.14128,0.14128 -3.60267,1.5629 -5.9194,2.24766 -2.18911,0.64704 -6.63449,1.36024 -8.16799,1.31045 -0.7881,-0.0256 -0.58543,-0.0965 0.79375,-0.27753 1.01864,-0.13374 2.99144,-0.47567 4.38398,-0.75983 z m -2.5319,-10.87976 c 1.16417,-0.29974 2.62268,-0.83322 3.24115,-1.18551 0.61846,-0.35229 1.12448,-0.58099 1.12448,-0.50823 0,0.66681 -5.46809,2.58667 -7.11993,2.49981 l -0.68528,-0.036 0.66146,-0.11252 c 0.3638,-0.0619 1.61395,-0.35777 2.77812,-0.65752 z m 45.01229,38.91729 c 3.82009,-0.95462 7.45732,-2.9514 10.34512,-5.67931 1.6246,-1.53464 1.83375,-1.51162 0.32633,0.0359 -3.31028,3.39836 -7.01658,5.33136 -12.15978,6.34183 -1.69054,0.33214 -0.61391,-0.1731 1.48833,-0.69844 z M 102.20784,146.78689 c 0.0708,0.0708 0.64882,1.37054 1.28455,2.88837 1.66711,3.9803 2.09584,5.91927 2.09213,9.46202 -0.004,4.25238 -0.46967,4.3353 -0.68551,0.12219 -0.19215,-3.75054 -0.7953,-6.80545 -1.97428,-9.99952 -0.78592,-2.12919 -0.95447,-2.71064 -0.71689,-2.47306 z m 6.05358,0.2241 c 0.1891,0 1.20967,3.08144 1.88377,5.68773 0.90433,3.49643 1.40615,6.69253 1.5696,9.99681 0.15062,3.0449 -0.0213,2.35858 -0.78087,-3.11683 -0.52247,-3.76641 -1.48016,-8.37453 -2.1995,-10.58333 -0.55729,-1.71122 -0.6224,-1.98438 -0.473,-1.98438 z m 11.59444,80.51719 c 0.21106,0.0845 0.14837,0.14715 -0.15986,0.15985 -0.27891,0.0115 -0.43518,-0.051 -0.34726,-0.13897 0.0879,-0.0879 0.31612,-0.0973 0.50712,-0.0209 z m 7.63878,12.0221 c 5.92787,-1.74331 8.24414,-1.94104 11.48113,-0.98008 2.16922,0.64397 3.21985,1.3752 3.46425,2.4111 0.12299,0.52132 0.0157,0.85522 -0.41232,1.28324 l -0.57856,0.57857 -0.46482,-0.75408 c -1.17936,-1.9133 -2.52731,-2.32174 -7.68432,-2.32839 -2.90051,-0.004 -4.20141,0.107 -5.33239,0.45395 -1.74914,0.53659 -2.42513,0.58042 -2.28096,0.14791 0.057,-0.17105 0.87061,-0.53655 1.80799,-0.81222 z m 3.15745,3.75232 c 1.18277,0.45612 3.12278,0.95123 4.31113,1.10023 1.18835,0.14901 2.21309,0.32337 2.27718,0.38746 0.27307,0.27307 -3.16376,0.0757 -4.83035,-0.27739 -1.7018,-0.36056 -4.34335,-1.60472 -4.04356,-1.9045 0.0743,-0.0743 1.10284,0.23807 2.2856,0.6942 z m 3.97082,-1.95008 c 1.64783,0.43659 3.32435,1.12656 3.13344,1.28955 -0.0499,0.0426 -1.58704,-0.2936 -3.41586,-0.74712 -2.62328,-0.65053 -3.12591,-0.84289 -2.38125,-0.91134 0.51913,-0.0477 1.71779,0.11829 2.66367,0.36891 z m 12.68,-53.34131 c 0.91306,0.46581 3.61113,1.60877 6.34055,2.686 0.34761,0.13718 0.5794,0.30204 0.5151,0.36634 -0.17301,0.17301 -4.59476,-1.51445 -6.53169,-2.49268 -0.92423,-0.46678 -1.62038,-0.90873 -1.547,-0.98212 0.0734,-0.0734 0.62376,0.11672 1.22304,0.42246 z M 3.1508383,147.12731 c 0.15978,-0.0987 0.90369,0.42288 1.65365,1.15951 1.75359,1.72244 3.8375,2.95972 7.1976697,4.27348 4.52397,1.76879 6.42815,1.97042 14.66633,1.55303 3.85874,-0.1955 7.99072,-0.35546 9.18218,-0.35546 h 2.16629 l -1.37254,-0.46485 c -0.7549,-0.25566 -3.53823,-1.06014 -6.18517,-1.78772 -7.83242,-2.15295 -10.6419,-3.26717 -14.48265,-5.7437 -2.57422,-1.65986 -4.48951,-3.74834 -5.63379,-6.1432 -0.5256097,-1.10007 -1.0847197,-2.08759 -1.2424697,-2.1945 -0.50386,-0.3415 -3.06437,-0.21637 -3.84627,0.18797 -1.05083,0.54341 -1.93665,2.07752 -1.93665,3.35401 0,1.54814 0.31647,1.70046 1.88329,0.90649 0.74045,-0.37521 1.49907,-0.68148 1.68581,-0.68058 0.18674,7.9e-4 -0.0174,0.18774 -0.45364,0.41519 -1.18565,0.61822 -1.66792,1.13607 -2.0027,2.15048 -0.16624,0.50369 -0.58601,1.41203 -0.93282,2.01852 -0.68784,1.20288 -0.79736,1.62997 -0.34652,1.35133 z m 14.0405397,47.11182 c 0.55469,1.00539 1.63452,1.9732 2.53211,2.26943 0.72136,0.23807 1.29825,0.20368 2.89624,-0.17264 l 1.99546,-0.46992 -1.18354,-0.60149 c -1.34128,-0.68166 -2.0504,-1.85805 -2.0504,-3.40149 0,-0.95857 -0.013,-0.97051 -0.8599,-0.79309 -1.66959,0.34977 -3.10311,1.13529 -3.37451,1.8491 -0.3105,0.81668 -0.31553,0.66747 0.0445,1.3201 z m 6.24039,-62.51173 c 0.25466,0.22486 1.58193,1.02682 2.94949,1.78214 5.89695,3.25697 6.99055,4.36046 7.35283,7.41938 0.14009,1.18282 0.0856,1.35727 -0.65571,2.09857 -1.03584,1.03584 -2.32331,1.0803 -3.93482,0.13589 -0.63125,-0.36993 -1.14773,-0.56529 -1.14773,-0.43412 0,0.60639 2.33506,2.78672 4.17802,3.90117 4.43351,2.68098 8.38819,6.24423 10.01943,9.02773 0.56747,0.96831 0.77226,1.12777 1.24454,0.96907 0.31092,-0.10448 3.1649,-0.16287 6.34218,-0.12976 5.55893,0.0579 9.45227,-0.18772 12.67781,-0.79991 0.83675,-0.15881 1.52136,-0.31195 1.52136,-0.34032 0,-0.0284 -0.66449,-1.29119 -1.47663,-2.80627 -2.64327,-4.9311 -5.07169,-7.87372 -8.90695,-10.79297 -2.99205,-2.27743 -6.14822,-3.7227 -12.10919,-5.545 -12.1156,-3.70382 -18.51765,-5.43556 -18.51765,-5.00898 0,0.063 0.20836,0.29852 0.46302,0.52338 z m 13.1954,10.35124 c 5.81103,2.15221 8.26175,3.40873 10.62458,5.44741 1.78631,1.54125 6.13122,6.89328 5.59614,6.89328 -0.14454,0 -0.64593,-0.16235 -1.1142,-0.36077 -0.79898,-0.33855 -1.7642,-1.30321 -5.15987,-5.15685 -1.69902,-1.92817 -3.24599,-2.97815 -7.73683,-5.25125 -3.3794,-1.71052 -4.24315,-2.32489 -2.20982,-1.57182 z m 15.15117,0.16985 c 0.12902,0 1.0067,0.77592 1.95039,1.72427 2.18057,2.19132 3.61492,4.89978 3.82567,7.22399 0.19089,2.10522 -0.24001,2.1261 -0.63818,0.0309 -0.34663,-1.82396 -1.65745,-4.18528 -3.88297,-6.99481 -1.62464,-2.05098 -1.58252,-1.98438 -1.25491,-1.98438 z m -9.37711,60.32501 c 0.52822,1.87649 1.07614,3.00926 1.92898,3.98799 0.43459,0.49874 1.00575,1.32352 1.26925,1.83284 l 0.47908,0.92605 0.24126,-0.91638 c 0.51183,-1.94403 1.11861,-2.41125 4.14627,-3.19258 l 1.17129,-0.30227 -0.87359,-0.68369 c -1.01292,-0.79273 -2.12411,-2.99408 -2.12785,-4.21543 -0.002,-0.79847 -0.0674,-0.8534 -1.2117,-1.02501 -2.40439,-0.36056 -5.45105,0.76087 -5.38181,1.98096 0.013,0.22929 0.17448,0.95268 0.35882,1.60752 z m 1.45646,-11.51617 c 1.26913,0.65629 1.90025,0.49564 3.15446,-0.80296 0.63631,-0.65884 1.11256,-1.23691 1.05833,-1.28461 -0.0542,-0.0477 -1.09135,-0.17061 -2.30471,-0.27316 -2.0136,-0.17017 -2.1983,-0.14609 -2.11667,0.27595 0.0492,0.25431 0.62522,0.7363 1.28007,1.07109 1.32303,0.6764 0.78763,0.84926 -0.70227,0.22674 -1.16349,-0.48614 -1.14982,-0.48606 -1.14982,-0.007 0,0.21454 0.35128,0.57173 0.78061,0.79375 z m 7.91915,10.72242 c 0.53112,1.34861 0.41011,1.33974 3.28788,0.24112 2.11098,-0.80588 5.29846,-1.36523 6.29493,-1.10465 0.54578,0.14272 0.54764,0.13011 0.10641,-0.72313 -0.34241,-0.66215 -0.407,-1.20508 -0.27194,-2.28604 0.17214,-1.37775 0.15611,-1.42568 -0.56943,-1.70309 -1.3169,-0.5035 -5.61081,-0.44017 -7.01988,0.10354 -2.18742,0.84406 -2.85895,2.85437 -1.82797,5.47225 z m 3.50406,6.52594 c 0.60023,1.14016 1.12676,2.11337 1.17006,2.1627 0.0433,0.0493 0.52692,-0.40642 1.0747,-1.01275 1.24134,-1.37401 2.91201,-2.22775 5.10192,-2.60716 0.93012,-0.16114 1.75304,-0.35491 1.82872,-0.43059 0.0757,-0.0757 -0.0223,-0.62198 -0.21765,-1.21401 -0.67418,-2.04279 -2.73164,-3.0623 -5.7038,-2.82632 -2.09972,0.16671 -3.40095,0.79945 -3.92795,1.91002 -0.6083,1.2819 -0.53434,1.72281 0.674,4.01811 z m 3.73733,-42.58138 c 0.47294,-0.0715 2.08028,-0.28926 3.57187,-0.48393 1.49159,-0.19467 2.71198,-0.45716 2.71198,-0.58331 0,-0.43196 3.3063,-3.67606 4.23334,-4.15371 l 0.92604,-0.47713 -0.9589,-0.18082 c -0.52739,-0.0994 -2.43239,-0.20014 -4.23333,-0.22376 -3.08666,-0.0405 -3.35185,-0.002 -4.62429,0.66924 -1.11734,0.58952 -1.44775,0.93977 -1.91823,2.03343 -0.31261,0.72668 -0.56838,1.8182 -0.56838,2.42561 0,1.09624 0.006,1.10342 0.8599,0.97438 z m -0.0575,21.56595 c 0.31537,1.87298 1.047,3.91139 1.81837,5.06622 0.37757,0.56527 0.8802,1.31741 1.11695,1.67141 l 0.43046,0.64364 0.54507,-0.87766 c 1.85718,-2.99043 6.47258,-5.49072 9.42219,-5.10426 0.73846,0.0968 1.61054,0.34593 1.93797,0.55371 0.71757,0.45539 0.71715,0.4682 0.0661,-2.01566 -0.66378,-2.53256 -0.66619,-4.56734 -0.007,-6.01927 0.30188,-0.66507 0.39383,-1.12448 0.22507,-1.12448 -0.34788,0 -14.71487,2.86934 -15.36534,3.06873 -0.36889,0.11307 -0.4567,0.42071 -0.43191,1.51316 0.0171,0.75418 0.12608,1.93519 0.24215,2.62446 z m 4.41677,12.63741 c 0.0827,0.21828 0.47182,1.11125 0.86473,1.98437 0.39291,0.87313 0.92735,2.15305 1.18763,2.84427 0.26029,0.69123 0.54637,1.25581 0.63574,1.25463 0.0894,-0.001 0.17805,-0.69604 0.19707,-1.54414 0.091,-4.0563 3.78496,-7.67891 8.0888,-7.93251 1.16061,-0.0684 2.18914,0.0372 2.97657,0.30546 0.66174,0.22548 1.20317,0.34939 1.20317,0.27534 0,-0.074 -0.36575,-1.0132 -0.81278,-2.08701 -1.26442,-3.03728 -3.07901,-4.41082 -6.3101,-4.77638 -3.21782,-0.36405 -6.12009,1.12147 -7.49534,3.83651 -0.6124,1.20898 -0.7243,1.75361 -0.70672,3.43951 0.0115,1.10169 0.0885,2.18167 0.17123,2.39995 z m 4.94813,6.87917 c 0.43405,1.56398 1.11139,2.87301 1.95092,3.77031 0.75269,0.80449 1.11091,0.91958 1.11091,0.3569 0,-0.47641 2.72993,-2.84546 4.10364,-3.56116 0.58065,-0.30252 1.99592,-0.72984 3.14503,-0.94959 2.34503,-0.44846 2.59586,-0.58054 1.97065,-1.03771 -0.39941,-0.29205 -1.51938,-3.55246 -1.94608,-5.66532 -0.10112,-0.50071 -0.45546,-1.05232 -0.83624,-1.30182 -0.86502,-0.56678 -4.33279,-0.76957 -5.90328,-0.3452 -1.51176,0.40849 -3.27315,2.12117 -3.67678,3.57508 -0.37644,1.35599 -0.34049,3.63893 0.0812,5.15851 z m 7.19045,-20.63751 c 0.4076,2.30442 1.65222,5.30063 3.23029,7.77645 l 0.82488,1.29414 0.47217,-0.85745 c 1.86348,-3.38405 5.9073,-6.32234 9.67352,-7.0289 l 0.99853,-0.18732 -0.92851,-1.13313 c -1.01227,-1.23534 -3.31825,-5.75918 -3.31825,-6.5097 0,-0.82311 -0.50632,-0.81278 -1.01318,0.0207 l -0.49217,0.8093 -0.82389,-1.32538 -0.8239,-1.32537 -1.53228,0.0116 c -2.73959,0.0208 -5.28038,1.36655 -6.00659,3.18153 -0.63343,1.5831 -0.69457,2.8202 -0.26062,5.27352 z m 11.51826,32.53268 c 0.42097,1.06511 1.12748,2.00084 2.69195,3.5653 l 2.12117,2.12118 0.48372,-1.13897 c 0.63081,-1.48531 2.98681,-3.7672 4.81104,-4.65971 1.64506,-0.80485 5.502052,-1.55357 7.299742,-1.41702 l 1.20905,0.0918 -2.24994,-2.25233 c -2.28988,-2.29232 -3.796682,-4.6565 -4.513042,-7.08098 -0.3219,-1.08948 -0.36651,-1.12447 -1.43297,-1.12447 -3.60247,0 -8.14989,2.75414 -10.18426,6.16809 -0.87608,1.47018 -0.97472,3.85922 -0.23646,5.72708 z m 0.52243,-40.87736 c 0.50525,3.46801 1.50473,5.79263 3.46163,8.0512 0.55361,0.63895 1.00656,1.42417 1.00656,1.74493 0,0.52243 0.72171,1.45897 1.12429,1.45897 0.0861,0 0.23838,-0.38695 0.33834,-0.85989 0.36087,-1.70725 1.77263,-3.93097 3.16122,-4.97936 0.73741,-0.55676 1.63583,-1.13149 1.99647,-1.27718 l 0.65572,-0.26489 -0.60887,-0.18021 c -0.38854,-0.115 -0.88228,-0.71827 -1.36445,-1.66715 -0.41557,-0.81782 -1.63541,-2.67758 -2.71076,-4.13279 -1.07536,-1.4552 -2.23945,-3.15184 -2.58688,-3.77031 -0.34743,-0.61846 -0.73357,-1.12448 -0.85809,-1.12448 -0.12452,0 -0.66814,0.22999 -1.20805,0.51109 -1.14015,0.59361 -2.12284,1.94553 -2.45534,3.37794 -0.26161,1.127 -0.26407,0.96866 0.0482,3.11213 z m 0.0668,-13.1132 c 0.38548,0.31727 0.60949,0.31727 1.56573,0 1.02572,-0.34033 1.05749,-0.37698 0.39304,-0.45351 -0.39758,-0.0458 -1.10216,-0.0458 -1.56573,0 -0.76374,0.0754 -0.80063,0.11802 -0.39304,0.45351 z m 67.393812,97.92247 c 1.40583,-6.51229 2.2583,-12.84068 2.52456,-18.74134 0.0996,-2.20706 0.25827,-4.01283 0.3526,-4.01283 0.34594,0 3.96187,-2.55491 5.61692,-3.96875 3.22771,-2.7573 5.82685,-6.3218 6.31709,-8.66335 0.38518,-1.83978 0.19619,-7.39991 -0.4175,-12.2828 l -0.4212,-3.35135 0.90926,-1.80802 c 0.50009,-0.99441 1.69324,-3.61958 2.65144,-5.83372 1.50755,-3.48352 2.32534,-5.7935 5.21813,-14.7395 0.95628,-2.95731 0.39053,-2.21206 -2.39491,3.15478 -1.05738,2.0373 -2.60952,5.01386 -3.4492,6.61459 -3.87264,7.3826 -4.49925,8.65556 -4.97685,10.11037 -0.79342,2.4169 -0.89891,3.93168 -0.44749,6.42608 0.5791,3.19999 0.78927,8.01313 0.43324,9.92188 -0.66662,3.57391 -2.89082,6.49727 -7.63373,10.03331 -2.86966,2.13945 -4.31419,4.004 -4.45909,5.75562 -0.0521,0.62942 -0.14284,6.20456 -0.20171,12.38919 l -0.10705,11.2448 z"
       id="path7417" />
  </g>
</svg>
