<?xml version="1.0" encoding="UTF-8" standalone="no"?>
<!-- Created with Inkscape (http://www.inkscape.org/) -->
<!--   width="164.83569mm"
   height="208.54503mm" -->
<svg
 
   viewBox="0 0 164.83569 208.54503"
   version="1.1"
   id="svg16726"
   inkscape:version="1.2 (dc2aedaf03, 2022-05-15)"
   sodipodi:docname="koi2.svg"
   xmlns:inkscape="http://www.inkscape.org/namespaces/inkscape"
   xmlns:sodipodi="http://sodipodi.sourceforge.net/DTD/sodipodi-0.dtd"
   xmlns="http://www.w3.org/2000/svg"
   xmlns:svg="http://www.w3.org/2000/svg">
  <sodipodi:namedview
     id="namedview16728"
     pagecolor="#505050"
     bordercolor="#eeeeee"
     borderopacity="1"
     inkscape:showpageshadow="0"
     inkscape:pageopacity="0"
     inkscape:pagecheckerboard="0"
     inkscape:deskcolor="#505050"
     inkscape:document-units="mm"
     showgrid="false"
     inkscape:zoom="0.73673541"
     inkscape:cx="278.25458"
     inkscape:cy="447.24333"
     inkscape:window-width="1920"
     inkscape:window-height="1002"
     inkscape:window-x="-8"
     inkscape:window-y="-8"
     inkscape:window-maximized="1"
     inkscape:current-layer="layer1" />
  <defs
     id="defs16723" />
  <g
     inkscape:label="Layer 1"
     inkscape:groupmode="layer"
     id="layer1"
     transform="translate(15.97891,-30.401006)">
    <path
       style="fill:#f1f2da;fill-opacity:1;stroke-width:0.264583"
       d="m 70.10076,30.799534 c -6.41526,1.14765 -11.48321,3.39103 -17.4625,7.72996 -5.12338,3.71783 -8.93397,7.3288 -12.08048,11.44764 -1.43019,1.87215 -4.98514,7.50931 -4.98514,7.90505 0,0.10377 0.74414,0.40876 1.65364,0.67776 2.3072,0.68239 3.93944,1.39305 4.5827,1.99525 0.54343,0.50874 0.55276,0.50754 1.1706,-0.15011 0.74809,-0.79631 0.82505,-0.80042 2.85373,-0.15233 2.12032,0.67736 4.28699,1.6823 6.02732,2.79557 1.93313,1.23661 3.9711,2.25007 4.52467,2.25007 0.25154,0 0.76948,-0.29905 1.15098,-0.66455 0.54006,-0.51741 1.48056,-0.83963 4.24781,-1.45533 4.84724,-1.07848 6.93731,-1.87751 8.97813,-3.43232 2.16496,-1.64938 5.73179,-4.93141 5.55625,-5.11261 -0.0728,-0.0751 -0.78714,0.0194 -1.5875,0.20997 -6.37187,1.51729 -7.75917,1.87608 -9.37123,2.42361 -1.00683,0.34196 -1.87572,0.57663 -1.93087,0.52148 -0.26854,-0.26854 5.96174,-2.19319 10.77293,-3.32796 1.84375,-0.43486 2.67218,-0.76591 3.10886,-1.24232 0.75005,-0.8183 0.75189,-1.27405 0.007,-1.7956 -1.54725,-1.08374 -8.10373,0.294 -13.30258,2.79532 -0.87313,0.42008 -1.34938,0.57465 -1.05834,0.34348 0.29105,-0.23117 2.01137,-1.13634 3.82295,-2.01147 2.64914,-1.27975 3.63527,-1.92084 5.03861,-3.27566 1.87417,-1.80935 2.79894,-2.30865 5.69053,-3.07238 1.80568,-0.47692 1.81861,-0.48625 0.51615,-0.37247 -3.13394,0.27377 -10.27419,3.18132 -14.06376,5.72684 -0.69798,0.46884 -1.09047,0.67344 -0.87218,0.45466 0.37238,-0.37324 1.70744,-1.32076 5.82083,-4.13117 0.94588,-0.64627 2.22236,-1.6342 2.8366,-2.19541 1.71448,-1.56644 3.81849,-2.80878 5.80825,-3.42956 3.37784,-1.05383 3.25085,-0.98961 2.00244,-1.01275 -1.47026,-0.0273 -7.54736,1.99349 -10.57301,3.51572 -1.27778,0.64286 -3.5734,1.89786 -5.10136,2.78888 -1.52797,0.89102 -2.51678,1.39609 -2.19736,1.12237 0.31942,-0.27371 2.60929,-1.70819 5.08859,-3.18772 5.66427,-3.38016 5.85382,-3.5413 6.03275,-5.12877 0.0774,-0.68642 0.0646,-1.24804 -0.0284,-1.24804 -0.39918,0 -7.90597,4.16593 -10.03719,5.5702 -1.28272,0.84518 -2.18347,1.35748 -2.00169,1.13844 0.98823,-1.19074 12.24172,-7.78949 14.37769,-8.4307 l 1.04797,-0.3146 -2.63547,-0.8344 c -3.03656,-0.96139 -3.41218,-0.99105 -4.94521,-0.3905 -1.19423,0.46783 -5.45895,2.96016 -7.72132,4.51238 -1.23411,0.84674 -1.26902,0.8566 -0.41998,0.11867 1.16883,-1.01587 5.62114,-3.80398 7.91276,-4.95512 4.03936,-2.02906 9.95913,-3.61972 15.00377,-4.03157 l 2.61576,-0.21355 -1.71979,-0.20208 c -0.94588,-0.11114 -2.36674,-0.31375 -3.15745,-0.45025 -2.10622,-0.36358 -8.55378,-0.25923 -10.99776,0.17798 z m -7.54062,21.63417 c 0,0.0549 -0.20836,0.2633 -0.46302,0.46302 -0.41965,0.3291 -0.42901,0.31975 -0.0999,-0.0999 0.34564,-0.44073 0.56292,-0.58089 0.56292,-0.36312 z m 8.46666,5.58014 c 0,0.17274 -4.30708,1.46948 -4.77615,1.43795 -0.21077,-0.0142 0.62881,-0.36625 1.86574,-0.78242 2.20965,-0.74345 2.91041,-0.90129 2.91041,-0.65553 z M 20.3591,37.132974 c -8.26502,1.22426 -16.791,5.70468 -22.51094,11.82954 -1.87392,2.00657 -5.2937,6.89464 -6.53818,9.34533 -0.36364,0.7161 -1.21204,2.23264 -1.88533,3.37008 -4.40202,7.43663 -5.63174,12.26439 -5.37022,21.08297 0.15781,5.32164 0.54529,8.02384 2.08302,14.52649 0.60554,2.56069 1.32074,5.608296 1.58933,6.772456 l 0.48835,2.11667 -0.14486,-2.38125 c -0.0797,-1.30969 -0.43188,-4.702966 -0.78268,-7.540616 -0.93339,-7.55013 -1.27318,-12.25334 -1.145,-15.84854 0.0625,-1.75213 0.18618,-3.25829 0.2749,-3.34701 0.27353,-0.27353 1.53029,0.70664 2.44937,1.91032 0.7939,1.03975 0.87742,1.32272 0.90391,3.06252 0.0551,3.61876 0.9145,6.75498 2.75095,10.03885 1.20534,2.15535 2.2575,3.09422 5.02965,4.48803 1.82669,0.91843 2.62649,1.5594 5.07956,4.070806 1.60132,1.6394 3.20916,3.13639 3.57296,3.32663 0.3638,0.19024 1.67306,0.41044 2.90947,0.48933 l 2.24801,0.14343 0.49043,1.05833 c 0.76013,1.64038 1.44724,2.24939 2.53415,2.2461 1.18233,-0.004 3.26706,-0.62501 4.46209,-1.3301 l 0.90922,-0.53645 0.93888,0.73627 c 0.51638,0.40495 1.62359,1.27205 2.46046,1.92689 0.83687,0.65485 2.63339,2.0957 3.99225,3.2019 5.64596,4.59615 13.95121,9.97269 19.43752,12.58319 3.01822,1.43614 9.06452,3.90619 13.06335,5.33668 9.57686,3.4259 12.12499,4.71363 4.2734,2.15963 -3.14253,-1.02223 -4.44253,-1.32098 -5.74807,-1.32098 h -1.6871 l 0.15061,0.8599 c 0.32476,1.8541 1.73507,6.91938 2.21674,7.96162 0.27968,0.6052 0.91728,2.07854 1.41688,3.2741 2.09832,5.02131 7.25494,12.48569 12.20697,17.67 1.60241,1.67757 1.6056,1.59608 0.0199,-0.50812 -1.38393,-1.83652 -2.42346,-4.00372 -2.94091,-6.13122 -0.24444,-1.00503 -0.79807,-2.83935 -1.23029,-4.07628 -1.14007,-3.26269 -1.16552,-3.5822 -0.0964,-1.21039 1.14063,2.53052 1.58735,3.06247 2.57175,3.06247 0.93132,0 0.96826,-0.48129 0.22016,-2.86784 -0.7286,-2.32433 -0.65169,-3.20902 0.0951,-1.09381 0.78903,2.23485 0.87124,2.37069 2.40063,3.96653 1.34452,1.40293 2.92044,2.37637 3.84715,2.37637 0.74679,0 0.68821,-0.17659 -0.47849,-1.44231 -1.32217,-1.43438 -2.24616,-3.04674 -2.94387,-5.13701 -0.72231,-2.16396 -0.52813,-2.40167 0.25383,-0.31073 1.23564,3.30405 3.69806,6.39666 6.30897,7.92357 0.97069,0.56767 2.05644,1.11867 2.41277,1.22444 l 0.64787,0.19231 -0.69347,-0.82413 c -0.76223,-0.90587 -1.69779,-3.18713 -1.94752,-4.74885 -0.088,-0.55031 -0.0205,-1.51864 0.15001,-2.15184 0.19509,-0.72449 0.21572,-1.21079 0.0557,-1.3118 -0.13989,-0.0883 -0.5098,-0.7057 -0.82202,-1.37204 -0.40075,-0.85528 -1.0516,-1.56865 -2.21345,-2.42608 -1.82901,-1.34979 -4.66081,-3.87233 -4.36805,-3.89102 0.10347,-0.007 0.84987,0.52698 1.65866,1.18575 0.80879,0.65877 3.10537,2.40571 5.10353,3.8821 3.98593,2.94512 6.08095,4.93703 9.82337,9.33993 5.460477,6.42419 5.119497,6.10604 8.048287,7.50932 3.079243,1.47538 4.527463,2.65395 6.613843,5.38242 2.51155,3.28451 4.32302,7.69503 4.91998,11.9791 0.51432,3.69091 0.95016,9.5937 0.93773,12.7 l -0.0127,3.175 0.45624,-2.24896 c 0.25093,-1.23693 0.88173,-3.79561 1.40177,-5.68595 1.01262,-3.68089 1.14997,-5.5031 0.67827,-8.99843 -0.6554,-4.85647 -0.65329,-4.6302 -0.0431,-4.6302 0.30596,0 0.67778,0.227 0.82626,0.50445 0.94424,1.76431 1.25192,15.82298 0.44642,20.39763 -0.63067,3.58175 -1.63756,6.5762 -3.33624,9.92187 -3.80687,7.49787 -9.15521,12.55478 -16.076853,15.20084 -1.56652,0.59886 -3.230667,1.25935 -3.698097,1.46776 -0.56335,0.25117 -0.90675,0.28691 -1.01855,0.10601 -0.22305,-0.36091 -4.05723,-2.22346 -7.52428,-3.65512 -2.89467,-1.1953 -11.57102,-5.22848 -12.04811,-5.60053 -0.15078,-0.11759 -1.08136,-0.43492 -2.06797,-0.70518 -1.65778,-0.45413 -1.87777,-0.60305 -2.90085,-1.9637 -0.99406,-1.32206 -3.61716,-4.28866 -15.15108,-17.13511 -8.79118,-9.7916 -16.92946,-15.35499 -27.89241,-19.06746 -1.81901,-0.61599 -3.99865,-1.44561 -4.84365,-1.8436 l -1.53636,-0.72362 0.90332,0.95257 c 2.6826,2.82884 5.17236,6.35137 15.35359,21.72235 6.62652,10.0043 11.26637,15.37492 17.64146,20.41996 4.44789,3.51991 9.8194,6.64838 13.62435,7.93507 1.16416,0.39368 1.93807,0.72246 1.71979,0.73062 -1.28963,0.0482 -8.3778,-3.03746 -12.56245,-5.46876 -5.0003,-2.90519 -10.27554,-7.39047 -13.41932,-11.40979 -0.75544,-0.96583 -1.95431,-2.48528 -2.66414,-3.37654 -1.82984,-2.29756 -5.20155,-7.20239 -6.97977,-10.15347 -1.94193,-3.22277 -6.21042,-10.15282 -6.34215,-10.29671 -0.63806,-0.69696 0.86882,4.28647 2.35346,7.78316 2.69917,6.35724 6.84352,13.40974 10.72812,18.25625 2.13019,2.65768 6.72897,7.18171 9.0425,8.89552 7.35427,5.44788 16.08152,9.1598 25.13541,10.69073 1.09141,0.18455 1.61058,0.34775 1.15371,0.36267 -0.45687,0.0149 -1.82608,-0.15935 -3.04271,-0.38727 -7.69771,-1.44205 -13.26319,-3.5682 -23.27212,-8.8905 -2.53319,-1.34704 -5.12793,-2.47578 -7.54062,-3.28025 -5.88229,-1.96136 -8.24821,-3.27685 -11.6977,-6.50411 -0.8324,-0.77877 -1.96692,-1.95173 -2.52116,-2.60658 -0.55424,-0.65484 -0.86826,-0.90876 -0.69784,-0.56426 0.74608,1.50806 5.31215,6.2506 9.12157,9.47408 2.59216,2.19346 7.71521,5.98374 9.95066,7.36198 2.39938,1.47932 2.53552,1.62851 0.75315,0.82534 -0.79387,-0.35774 -2.87214,-1.03059 -4.61839,-1.49524 -9.51083,-2.53067 -12.68192,-3.7862 -17.06563,-6.7568 -3.31566,-2.24684 -1.75354,-0.71107 2.51354,2.47115 6.17696,4.60653 10.73848,7.05182 15.94428,8.54723 1.63884,0.47077 2.9319,0.90375 2.87348,0.96217 -0.13206,0.13206 -12.35409,-2.33356 -16.83338,-3.3959 -4.10517,-0.97361 -7.24574,-1.92412 -9.17159,-2.77582 -0.81264,-0.35938 -1.5421,-0.58885 -1.62102,-0.50993 -0.0789,0.0789 -0.0199,0.1435 0.13123,0.1435 0.1511,0 1.21275,0.61265 2.3592,1.36145 2.68027,1.75059 8.50135,4.65108 11.82676,5.89297 2.46184,0.91939 6.77369,2.07562 9.00402,2.41445 0.56057,0.0852 0.95655,0.21751 0.87996,0.2941 -0.20126,0.20126 -7.74051,-0.90788 -11.18333,-1.64524 -3.58995,-0.76887 -8.55843,-2.25668 -11.22106,-3.36014 -2.89006,-1.19772 -9.54296,-4.52256 -12.35457,-6.17429 -1.33798,-0.78602 -2.50475,-1.42913 -2.59283,-1.42913 -0.43834,0 0.5002,0.94526 2.75836,2.77812 7.4339,6.03381 14.21526,9.62485 22.44509,11.88572 4.39471,1.2073 7.31605,1.55425 13.33572,1.58379 2.71625,0.0133 4.91022,0.0528 4.87548,0.0876 -0.28354,0.28463 -7.63809,0.51506 -10.33623,0.32385 -9.08847,-0.64407 -20.50617,-4.8633 -27.5318,-10.17394 -3.26401,-2.46725 -6.84547,-5.53983 -9.06425,-7.77634 -1.79805,-1.81243 -1.65406,-1.53765 1.23121,2.34949 3.22308,4.34225 4.47433,5.79354 8.22216,9.53662 7.94123,7.93118 15.88253,11.18771 27.2679,11.18189 7.22748,-0.004 10.03659,-0.46568 22.88646,-3.76397 7.53884,-1.93506 9.49507,-2.25094 17.33021,-2.79834 6.73595,-0.47061 15.26104,-1.47781 19.058467,-2.25168 15.019053,-3.06068 28.230473,-11.62196 36.052013,-23.36244 2.21028,-3.31773 5.37976,-9.69362 6.66761,-13.41291 1.31956,-3.81085 3.23619,-11.67627 3.70524,-15.20548 1.75949,-13.23855 0.77461,-27.13469 -2.66868,-37.65387 -1.99881,-6.10632 -4.9268,-12.56988 -8.04888,-17.76799 -4.68744,-7.80435 -9.96132,-15.08954 -14.37714,-19.86016 -8.16009,-8.815726 -19.825333,-19.581576 -25.57196,-23.600346 -6.73672,-4.71117 -15.64724,-8.73785 -25.13542,-11.35873 -3.28084,-0.90626 -4.0712,-0.9574 -9.68309,-0.6266 l -3.46538,0.20428 -0.16169,-0.80846 c -0.40864,-2.04321 -3.79962,-4.29079 -6.47424,-4.29118 l -1.39585,-2.1e-4 0.38186,0.7276 c 0.21002,0.40018 0.88212,1.20385 1.49354,1.78594 2.12571,2.0237 2.63938,4.4042 1.48441,6.87916 -0.63186,1.354 -2.1931,2.97105 -3.54197,3.66857 -3.35939,1.73721 -8.79076,2.16058 -13.00466,1.01372 -1.2211,-0.33234 -3.34206,-0.82495 -4.71323,-1.0947 -1.37117,-0.26974 -2.53468,-0.53245 -2.58557,-0.58381 -0.0509,-0.0514 2.07006,-0.099 4.71323,-0.10592 2.64317,-0.007 5.66627,-0.1564 6.71799,-0.3322 3.86496,-0.64603 6.77392,-2.21774 8.12175,-4.38818 0.69166,-1.11378 0.77119,-1.46597 0.75109,-3.32627 -0.0291,-2.69523 -0.52154,-3.78517 -1.97237,-4.36568 -1.79594,-0.71859 -4.75097,-1.23636 -6.59949,-1.15633 l -1.75555,0.076 -0.89029,-1.16132 c -1.97662,-2.57838 -6.15966,-4.02389 -12.13507,-4.19345 -6.73253,-0.19104 -13.43158,1.13985 -17.42922,3.46264 -2.53591,1.47347 -4.4775,2.06247 -7.50776,2.27756 -1.75289,0.12442 -2.3151,0.0847 -2.3151,-0.16342 0,-1.50786 4.28229,-8.32126 7.43301,-11.82638 2.70918,-3.01392 8.35954,-6.78802 13.60136,-9.0849 4.52041,-1.98076 11.3538,-3.25226 17.72708,-3.2985 2.41614,-0.0175 2.89043,-0.0723 1.98438,-0.22926 -1.90953,-0.33076 -11.02644,-0.22094 -13.62604,0.16413 z m -1.3099,19.84145 c -1.99526,0.33484 -3.93052,0.49892 -4.51094,0.38244 -0.63382,-0.12719 3.33533,-0.71478 4.8948,-0.72462 l 1.71979,-0.0108 -2.10365,0.35303 z m -2.52656,2.10088 c 0,0.0698 -0.47151,0.36746 -1.04779,0.66146 -1.09961,0.56097 -2.78203,0.69797 -3.44247,0.28029 -0.65017,-0.41118 -0.0599,-0.66403 1.93174,-0.82745 1.04338,-0.0856 2.04589,-0.17491 2.22779,-0.19844 0.1819,-0.0235 0.33073,0.0143 0.33073,0.0841 z m 8.54851,4.06769 c -0.28034,0.3851 -1.03307,0.96763 -1.67274,1.29451 -1.13329,0.57912 -1.31224,0.59024 -6.99597,0.43496 -3.20811,-0.0876 -6.42824,-0.25187 -7.15584,-0.36495 l -1.32292,-0.2056 1.71979,-0.0402 c 1.80497,-0.0422 4.30203,-0.52494 5.7537,-1.11229 0.74987,-0.30341 0.96033,-0.28761 1.65787,0.12444 0.52478,0.30999 1.59659,0.52364 3.12318,0.62254 2.0006,0.12962 2.50063,0.0725 3.59126,-0.40989 0.82298,-0.36405 1.32139,-0.76828 1.4221,-1.1534 0.0933,-0.35693 0.20166,-0.45309 0.27216,-0.2416 0.0644,0.19323 -0.11225,0.66641 -0.39259,1.05151 z m 30.19141,9.92327 c 0.49866,0.66789 0.50905,0.77761 0.13617,1.43852 -0.35561,0.6303 -0.56324,0.71548 -1.74398,0.71548 -1.27823,0 -1.32442,0.0245 -0.99738,0.52917 0.1886,0.29104 0.4241,1.25944 0.52333,2.15199 0.32274,2.90332 -0.61361,4.38581 -3.00845,4.76312 l -1.23815,0.19507 1.14436,0.20482 c 1.82842,0.32725 2.89391,2.09076 2.93634,4.85996 0.0263,1.71412 -0.64209,2.95336 -1.97943,3.67018 -0.57362,0.30747 -1.09182,0.58806 -1.15156,0.62355 -0.0597,0.0355 0.11852,0.31551 0.39614,0.62227 0.60851,0.67241 0.88104,4.31881 0.39118,5.23411 -0.37627,0.70306 -1.17777,0.771 -0.95886,0.0813 0.29117,-0.91739 0.22247,-3.6275 -0.12029,-4.74541 -0.29993,-0.97824 -0.44256,-1.12448 -1.09664,-1.12448 -1.00097,0 -0.96119,-0.42116 0.0591,-0.62521 1.05889,-0.21178 2.24636,-1.41977 2.57864,-2.62322 0.5672,-2.0542 -0.6726,-4.73485 -2.64033,-5.70885 -0.90855,-0.44972 -1.01647,-0.56735 -0.52067,-0.56752 0.95422,-2.6e-4 2.64375,-1.06671 3.25374,-2.05369 0.40589,-0.65674 0.54324,-1.31531 0.536,-2.56996 -0.0108,-1.8775 -0.33034,-2.69694 -1.19132,-3.05536 -0.46605,-0.19401 -0.36598,-0.23269 0.51664,-0.19969 1.39475,0.0521 2.34039,-0.56252 2.74323,-1.78313 0.35318,-1.07016 0.65274,-1.07707 1.43224,-0.033 z m 8.7261,3.4183 c 0.39259,0.63425 -0.22799,1.02607 -1.31157,0.82808 -0.78272,-0.14301 -0.80607,-0.11915 -0.71641,0.73198 0.19208,1.82319 -1.92608,3.66994 -4.16304,3.62962 -0.81791,-0.0147 -0.75701,-0.0575 0.52158,-0.36637 1.83349,-0.44288 2.53706,-1.22399 2.78708,-3.09425 0.10337,-0.77322 0.37739,-1.62 0.60893,-1.88172 0.52583,-0.59436 1.86677,-0.50432 2.27343,0.15266 z m 9.43072,0.99072 c 0.83498,0.44687 1.1366,1.25554 0.78496,2.10449 -0.4865,1.17451 -3.60174,2.52063 -5.82337,2.51633 -1.87784,-0.004 -4.49792,-0.94542 -4.49792,-1.61675 0,-0.51415 0.20915,-0.45798 1.10659,0.29716 0.66882,0.56277 1.04952,0.66059 2.55174,0.65565 2.99167,-0.01 4.53522,-1.02426 4.92292,-3.23534 0.19114,-1.09004 0.2224,-1.11366 0.95508,-0.72154 z m -28.45403,0.94826 c -1.76039,0.64517 -5.35102,1.16358 -7.90602,1.14146 -3.11183,-0.0269 -2.71876,-0.14317 1.68831,-0.4992 1.96453,-0.15871 4.22672,-0.45064 5.02708,-0.64873 1.93079,-0.47788 2.50371,-0.47476 1.19063,0.007 z m 14.29602,4.23497 c 0.73992,0.48481 1.71127,2.88385 1.71127,4.22648 0,1.13367 -0.52264,2.18886 -1.76555,3.56462 -0.77394,0.85666 -1.11327,1.04068 -1.90326,1.03217 l -0.9614,-0.0104 0.79375,-0.35278 c 1.53793,-0.68354 2.09031,-1.58291 2.2036,-3.5878 0.13356,-2.36373 -0.76695,-4.56073 -2.12657,-5.18825 l -0.87078,-0.4019 1.1431,0.15162 c 0.62871,0.0834 1.42784,0.33818 1.77584,0.5662 z m 10.48563,1.42529 c 0.34282,1.63449 -0.0238,2.8817 -1.20729,4.1076 -0.82843,0.85808 -1.36179,1.16941 -2.25695,1.31744 -1.06196,0.17561 -1.12003,0.22199 -0.61754,0.49326 1.496,0.8076 2.13628,2.44304 1.55165,3.96334 -0.55447,1.44186 -1.76146,2.23519 -4.32563,2.84318 -2.80632,0.66539 -3.21385,0.59286 -0.99256,-0.17665 2.30717,-0.79926 3.54925,-1.44259 3.84828,-1.99322 0.73775,-1.35841 -1.37145,-4.19904 -3.71964,-5.00956 l -1.45156,-0.50103 1.98438,-0.0161 c 3.60305,-0.0292 5.55625,-1.72968 5.55625,-4.83732 0,-1.24129 0.0241,-1.28162 0.71819,-1.20071 0.58229,0.0679 0.75495,0.25896 0.91242,1.00976 z m 11.94413,2.86438 c -0.0657,0.97121 -0.24101,2.01699 -0.38961,2.32397 -0.42958,0.88742 -1.88741,1.43052 -3.73526,1.39154 l -1.64467,-0.0347 1.46175,-0.18868 c 0.80396,-0.10377 1.71417,-0.32377 2.02269,-0.48889 0.66504,-0.35592 1.1868,-1.66897 0.8681,-2.18464 -0.17933,-0.29017 -0.35006,-0.24305 -0.86202,0.23791 -0.6974,0.65517 -3.04059,1.63535 -3.90943,1.63535 h -0.54553 l 0.54837,0.69714 c 0.4304,0.54717 0.54837,1.07715 0.54837,2.46365 0,2.53113 -0.78226,3.2521 -4.31426,3.97625 -0.84487,0.17322 -1.49343,0.39442 -1.44125,0.49156 1.23653,2.30192 1.74525,5.003736 1.22057,6.482516 -0.36343,1.02433 -0.81588,1.3864 -2.74111,2.19358 -0.85097,0.35678 -0.95465,0.46789 -0.52916,0.56707 1.48515,0.3462 2.49387,1.71357 3.03047,4.10799 0.21879,0.97631 0.19781,1.42931 -0.0975,2.10457 l -0.37628,0.86046 -0.0216,-1.66418 c -0.0142,-1.09646 -0.19899,-2.01194 -0.54163,-2.68355 -0.61822,-1.21183 -2.52605,-2.919 -3.29789,-2.95105 -0.47002,-0.0195 -0.45388,-0.0514 0.11377,-0.22468 1.45588,-0.44446 2.92084,-1.38652 3.30184,-2.12328 0.45851,-0.88667 0.52561,-3.128 0.13566,-4.531746 -0.15446,-0.55604 -0.71138,-1.35121 -1.34433,-1.91942 l -1.08063,-0.9701 -0.66052,0.51957 c -1.81203,1.42534 -5.43836,1.991 -7.89265,1.23116 -0.83026,-0.25705 -1.17237,-0.2586 -1.5875,-0.007 -0.29104,0.17624 -0.81312,0.40549 -1.16018,0.50945 l -0.63103,0.189 0.734,-0.96232 c 1.11336,-1.45969 1.3161,-3.71824 0.51854,-5.77674 -0.21135,-0.54547 0.11896,-0.59923 0.7676,-0.12493 0.68643,0.50193 1.00206,2.28726 0.69274,3.91832 -0.14452,0.76202 -0.2249,1.42335 -0.17863,1.46962 0.29504,0.29504 4.7086,0.37804 5.70434,0.10727 1.19219,-0.32418 3.59263,-2.30016 4.03287,-3.31976 0.15763,-0.36507 0.20904,-0.0779 0.16578,0.92605 l -0.0627,1.4552 1.05068,-0.0643 c 1.44185,-0.0882 3.29168,-0.73915 4.22572,-1.48691 0.67196,-0.53796 0.77849,-0.80164 0.77849,-1.9271 0,-1.94189 -0.93964,-3.4865 -2.64816,-4.35313 -1.07279,-0.54416 -1.30714,-0.77458 -1.12279,-1.10399 0.20225,-0.36141 0.46736,-0.29413 2.01076,0.51035 1.5501,0.80797 1.93112,0.90399 2.97488,0.74971 1.54696,-0.22866 3.13455,-1.12373 3.60427,-2.03207 0.20402,-0.39452 0.37094,-1.4626 0.37094,-2.37351 v -1.65619 l 1.02625,1.134 c 1.01453,1.12104 1.02489,1.15416 0.90683,2.89982 z m -38.82391,-2.10062 c -0.0797,0.12902 -0.56302,0.31301 -1.07395,0.40886 -1.0276,0.19278 -1.14816,0.43328 -0.49016,0.9778 1.19179,0.98625 1.81725,4.02239 0.9975,4.84214 -0.58427,0.58427 -0.60327,0.54401 -0.29258,-0.62 0.51712,-1.93737 -0.79307,-4.51387 -2.55472,-5.0239 l -0.83796,-0.2426 1.05833,-0.0391 c 0.83712,-0.0309 2.79699,-0.33625 3.25676,-0.50735 0.045,-0.0168 0.0165,0.0751 -0.0632,0.20416 z m -4.5826,0.20522 c -0.1819,0.0734 -0.47956,0.0734 -0.66146,0 -0.1819,-0.0734 -0.0331,-0.13345 0.33073,-0.13345 0.3638,0 0.51263,0.0601 0.33073,0.13345 z m -4.99084,4.04674 c 0.36631,0.13927 0.86439,0.63683 1.10685,1.1057 0.49217,0.95175 0.61461,3.02823 0.22013,3.73313 -0.18919,0.33806 -0.25478,0.0526 -0.24799,-1.07924 0.008,-1.28596 -0.11256,-1.6987 -0.73183,-2.51126 -0.66716,-0.87541 -0.86505,-0.97279 -1.98437,-0.97643 -0.90027,-0.003 -1.13381,-0.0748 -0.84643,-0.26053 0.5096,-0.32933 1.6338,-0.33448 2.48364,-0.0114 z m 54.11111,1.67971 c 0.48086,0.38567 0.53408,0.5519 0.27619,0.86264 -0.1757,0.2117 -0.42358,0.94226 -0.55084,1.62346 -0.12726,0.6812 -0.49861,1.52911 -0.82522,1.88424 -0.86912,0.94503 -2.52968,1.62179 -3.99559,1.62842 -1.12075,0.005 -1.26012,0.065 -1.08994,0.46883 0.49183,1.167 0.44769,3.168166 -0.097,4.399606 -0.45484,1.02823 -0.77206,1.34044 -1.8866,1.85682 -1.33647,0.61919 -1.33786,0.62115 -0.55312,0.7781 1.07823,0.21564 1.66532,1.22872 1.99947,3.45029 l 0.28154,1.87173 1.05079,0.31676 c 1.51931,0.45798 4.38476,0.4416 5.05651,-0.0289 0.98692,-0.69127 1.26794,-1.80553 0.80099,-3.17597 -0.48265,-1.41649 -0.20489,-1.53389 0.93416,-0.39484 0.7146,0.7146 0.78629,0.92462 0.63613,1.86364 -0.21664,1.35476 -0.52875,1.83795 -1.67078,2.58657 -1.4144,0.92716 -3.22996,0.87261 -5.44423,-0.16357 l -1.78394,-0.8348 -0.63976,1.01344 c -0.92553,1.46614 -1.89525,2.14262 -3.02552,2.11061 l -0.95651,-0.0271 0.88917,-0.21006 c 1.15686,-0.27332 1.60957,-0.75257 1.90211,-2.01364 0.40642,-1.75194 0.29448,-3.33567 -0.3065,-4.33671 -0.97028,-1.61616 -1.57755,-2.11528 -2.59704,-2.13453 -0.92856,-0.0175 -0.92241,-0.0242 0.33254,-0.36152 2.54049,-0.68282 3.66841,-2.23424 3.84144,-5.283756 0.0946,-1.66793 0.0491,-1.87058 -0.52383,-2.3317 l -0.62747,-0.505 0.66146,0.21503 c 1.11866,0.36364 3.25673,0.22394 4.28695,-0.28011 1.20891,-0.59148 1.53413,-1.47456 1.47987,-4.01827 -0.0492,-2.30634 0.12525,-2.65672 0.93883,-1.88566 0.33557,0.31802 0.87816,0.7932 1.20577,1.05595 z m -85.43346,5.13831 c 1.26056,1.14495 2.43198,3.02558 2.76447,4.438136 0.17838,0.75785 0.15455,0.74588 -0.52688,-0.26459 -0.39254,-0.582076 -1.26513,-1.663416 -1.9391,-2.402966 -0.67398,-0.73955 -2.05532,-2.3469 -3.06967,-3.57188 l -1.84426,-2.22723 1.69222,1.45521 c 0.93072,0.80036 2.24617,1.95836 2.92322,2.57332 z m 86.89794,-2.58189 c 0.56161,0.28633 1.12257,0.45789 1.24656,0.38126 0.124,-0.0766 0.22546,0.0421 0.22546,0.26384 0,0.22175 -0.25672,0.54057 -0.57048,0.70849 -0.48626,0.26024 -0.64361,0.21279 -1.06586,-0.32142 -0.55795,-0.70588 -1.07197,-1.55277 -0.94246,-1.55277 0.0471,0 0.54516,0.23427 1.10678,0.5206 z m -60.54265,3.85007 c 1.61377,1.23088 1.92516,4.973936 0.56764,6.823296 -0.27919,0.38034 -0.3348,0.14253 -0.34319,-1.46743 -0.0117,-2.23766 -0.3929,-3.715446 -1.30536,-5.060026 -0.54084,-0.79697 -0.57916,-0.96234 -0.22298,-0.96234 0.23654,0 0.82329,0.29992 1.30389,0.6665 z m 12.81697,0.54196 c 0.1893,0.22809 0.3527,0.99912 0.36313,1.71341 0.0161,1.104476 -0.0967,1.408476 -0.75419,2.032686 l -0.77313,0.73398 0.42732,-0.69528 c 0.69457,-1.13011 0.71639,-3.109046 0.0417,-3.783736 -0.34816,-0.34816 -0.35343,-0.41577 -0.0324,-0.41577 0.21086,0 0.53826,0.18662 0.72756,0.41471 z m 20.60868,3.921956 c 0.72688,1.50154 0.90475,2.56101 0.68074,4.05481 -0.14811,0.98766 -0.41021,1.47482 -1.1953,2.22166 -0.9627,0.91579 -0.98476,0.97442 -0.51725,1.37472 1.12349,0.96196 1.19707,4.0514 0.11783,4.94709 -0.34933,0.28992 -0.34911,0.21795 0.002,-0.62214 0.21832,-0.52249 0.39675,-1.28123 0.39653,-1.68608 -5.3e-4,-1.02489 -0.80395,-2.52096 -1.5511,-2.88852 -0.62425,-0.3071 -0.62357,-0.30858 0.35055,-0.77083 1.41377,-0.67088 1.86591,-1.51248 1.84379,-3.43194 -0.025,-2.16955 -0.84848,-3.84329 -2.51479,-5.111466 -1.80427,-1.37317 -1.60942,-1.56449 0.27578,-0.27077 1.07381,0.736896 1.74916,1.435326 2.11132,2.183466 z m 32.978147,-1.874546 c -0.31062,1.553106 -1.768517,2.564956 -3.695637,2.564956 -0.72437,0 -1.34645,-0.16159 -1.60064,-0.41577 -0.67362,-0.67362 -0.47693,-0.95236 0.36484,-0.51706 0.42934,0.22201 1.07504,0.40367 1.43491,0.40367 0.85898,0 2.204257,-1.1529 2.683407,-2.299666 0.46525,-1.11351 1.05061,-0.92356 0.81312,0.26387 z m -7.026147,0.1961 c 0.61969,0.870266 0.94233,2.566716 0.58723,3.087586 -0.12069,0.17702 -0.96991,0.51412 -1.88715,0.7491 -1.8303,0.4689 -3.68017,0.35035 -4.79431,-0.30724 -0.61521,-0.36311 -0.5389,-0.37911 1.09112,-0.22884 3.13093,0.28862 4.78454,-0.97096 3.84933,-2.93211 -0.55285,-1.159336 -0.55196,-1.174636 0.0686,-1.174636 0.28113,0 0.76946,0.36276 1.08517,0.80614 z m 9.768337,3.298066 c 0.4434,1.38418 0.80618,2.78625 0.80618,3.11569 0,0.86983 -2.89241,5.4801 -3.43812,5.4801 -0.0996,0 -0.31494,-0.29371 -0.4785,-0.65268 -0.16356,-0.35898 -0.71698,-0.92453 -1.229817,-1.25678 -1.05045,-0.68054 -1.1846,-1.00095 -0.41906,-1.00095 0.882477,0 3.020657,-0.81821 3.647267,-1.39569 0.70602,-0.65067 0.76414,-1.66784 0.2013,-3.5232 -0.44543,-1.46833 -0.52701,-3.2832 -0.14758,-3.2832 0.13869,0 0.61494,1.13252 1.05833,2.51671 z m -45.407827,0.0827 c 1.19097,1.74992 1.66317,5.18031 0.8636,6.2738 -0.32837,0.44905 -0.35518,0.30751 -0.23214,-1.22532 0.17038,-2.12262 -0.4129,-4.35719 -1.37272,-5.25889 -0.73665,-0.69205 -0.87934,-1.12994 -0.29515,-0.90577 0.20602,0.079 0.6724,0.58134 1.03641,1.11618 z m 53.39347,3.25168 c 0.60712,0.30924 0.84588,1.50012 0.47855,2.38693 -0.41919,1.01203 -2.65247,2.08485 -4.73265,2.27347 -1.706793,0.15477 -2.297213,-0.27537 -0.72761,-0.53009 1.84213,-0.29893 2.77604,-0.88268 3.06053,-1.91302 0.17106,-0.61951 0.17765,-1.20666 0.0183,-1.62586 -0.13722,-0.36089 -0.24948,-0.7645 -0.24948,-0.89691 0,-0.2597 1.44554,-0.0545 2.15238,0.30548 z m -14.63027,3.81862 c 0.16888,0.37065 0.30706,0.95303 0.30706,1.29419 0,0.90003 -1.68965,1.50632 -4.65573,1.67061 -2.65471,0.14705 -3.75931,-0.0988 -5.00157,-1.113 l -0.79375,-0.64806 1.69103,0.67429 c 1.43913,0.57385 2.01061,0.65959 3.83646,0.57556 1.17999,-0.0543 2.50262,-0.27507 2.93918,-0.49061 0.66892,-0.33025 0.80655,-0.56842 0.87511,-1.51438 0.0926,-1.27834 0.35684,-1.42608 0.80221,-0.4486 z m 10.31164,2.62036 c 0.10316,1.62762 -0.50754,3.29076 -1.600833,4.35966 -0.4538,0.44367 -0.76828,0.86349 -0.69885,0.93292 0.0694,0.0694 1.251503,0.19823 2.626823,0.28622 2.1117,0.1351 2.64458,0.0851 3.42661,-0.32165 1.26299,-0.65687 1.84869,-1.93173 1.86226,-4.0535 l 0.011,-1.71979 0.42073,0.77723 c 0.2314,0.42747 0.48124,1.53098 0.55519,2.45225 0.10988,1.36891 0.0473,1.77132 -0.34243,2.20197 -0.63429,0.70088 -2.78405,1.31525 -4.6053,1.31614 l -1.47334,7.9e-4 1.1797,1.01728 c 1.16176,1.00181 1.18132,1.04604 1.28663,2.9097 l 0.10693,1.89235 h 1.73525 c 1.92758,0 2.70295,-0.42921 2.70295,-1.49622 0,-0.94958 0.43872,-0.74757 1.45815,0.6714 1.15772,1.61146 2.03787,2.00319 3.96099,1.76291 1.6787,-0.20974 2.25378,-0.78144 2.25378,-2.24051 0,-0.65036 0.0825,-0.83755 0.28155,-0.63853 0.15485,0.15485 0.24415,0.79184 0.19844,1.41553 -0.11208,1.52918 -0.86838,2.07027 -3.19771,2.28778 l -1.78708,0.16688 -0.96439,-1.08097 -0.96439,-1.08097 -1.06776,0.54473 c -0.88094,0.44942 -1.40711,0.52295 -3.00726,0.42026 l -1.93949,-0.12447 -0.94279,1.28434 c -1.07285,1.46152 -1.57586,1.66085 -3.344023,1.32517 -0.69122,-0.13123 -1.25677,-0.19732 -1.25677,-0.14686 0,0.0505 0.23768,0.48157 0.52818,0.95803 0.64285,1.05437 0.72712,3.81896 0.15041,4.93421 -0.59306,1.14684 -2.43619,2.67895 -3.22279,2.67895 -0.62592,0 -0.57182,-0.0805 0.57764,-0.85989 2.13181,-1.44541 2.71587,-3.40807 1.95798,-6.57949 -0.20137,-0.84266 -0.49159,-1.32853 -0.93543,-1.56607 -0.60786,-0.32531 -0.87736,-0.79471 -0.44505,-0.77515 0.10914,0.005 0.67469,0.23902 1.25677,0.52019 2.997133,1.44771 5.536753,-0.52999 5.028953,-3.91624 -0.33776,-2.25234 -1.25968,-3.4861 -3.452143,-4.61985 -0.74241,-0.3839 -0.91582,-0.37753 -2.24896,0.0827 -0.79448,0.27426 -1.94718,0.50254 -2.56155,0.50729 l -1.11704,0.009 0.65402,1.23003 c 0.85803,1.61373 0.87511,3.24592 0.0441,4.21206 l -0.60995,0.70911 0.10897,-1.71132 c 0.0779,-1.22317 -0.01,-1.93065 -0.30642,-2.48028 -0.840677,-1.55632 -0.681647,-1.51238 -3.272517,-0.90412 -2.17685,0.51106 -2.46254,0.65299 -3.22544,1.60231 -0.46037,0.57287 -1.12504,1.11387 -1.47705,1.20222 -0.61195,0.15359 -0.62159,0.18874 -0.21995,0.80172 0.55503,0.84709 0.35374,2.27287 -0.60004,4.25009 -0.40837,0.84657 -0.77846,1.60023 -0.82242,1.67481 -0.044,0.0746 0.70195,0.61035 1.6576,1.19062 1.55058,0.94152 4.58105,3.11358 8.451117,6.05727 0.7276,0.55344 3.4256,3.01785 5.99555,5.47649 2.569953,2.45863 4.864463,4.47024 5.098903,4.47024 0.75454,0 2.47267,-1.33574 2.83238,-2.20199 0.39839,-0.95939 0.45709,-2.50273 0.15024,-3.94958 -0.1904,-0.89775 -0.15767,-0.99218 0.34387,-0.99218 0.80325,0 2.05183,-0.70954 2.4029,-1.36552 0.32335,-0.60417 0.38018,-2.2289 0.11204,-3.20265 l -0.16281,-0.59121 0.54315,0.62462 c 0.37104,0.4267 0.54315,0.99386 0.54315,1.78983 0,1.56265 -1.30739,3.08769 -2.67498,3.12028 l -0.903,0.0215 0.46607,0.91584 c 0.92758,1.82268 0.45361,4.03191 -1.17104,5.45837 l -0.9222,0.8097 2.97986,0.58075 c 2.38748,0.46529 3.21653,0.5277 4.17041,0.31393 2.62877,-0.58912 3.23124,-1.27268 3.02386,-3.43088 -0.13956,-1.45241 -0.0797,-1.54719 0.5925,-0.93881 0.37354,0.33804 0.75371,0.35831 2.40208,0.1281 1.08206,-0.15112 2.24876,-0.48746 2.60742,-0.75166 0.63342,-0.46661 1.31888,-2.36331 1.33017,-3.68065 0.003,-0.32742 0.11614,-0.59532 0.25186,-0.59532 0.66876,0 0.59148,2.29588 -0.12468,3.70417 -0.76127,1.49699 -1.56019,1.93095 -3.79278,2.06019 l -2.08857,0.1209 -0.12785,1.13425 c -0.0703,0.62383 -0.38182,1.49092 -0.69223,1.92686 -0.68752,0.96554 -0.69874,1.10781 -0.0874,1.10781 0.74976,0 2.59535,1.49834 3.06521,2.48849 0.97827,2.06155 0.17659,4.32741 -1.84792,5.22295 -1.25592,0.55555 -2.11857,0.45628 -4.8656,-0.55992 -0.79831,-0.29531 -1.54135,-0.53693 -1.6512,-0.53693 -0.33869,0 1.40292,2.63794 1.92668,2.91824 0.27126,0.14517 1.04648,0.33979 1.72272,0.43248 0.96158,0.1318 1.13179,0.22321 0.78106,0.41949 -0.24666,0.13804 -0.85254,0.2038 -1.3464,0.14614 l -0.89794,-0.10482 0.44973,0.67392 c 0.75854,1.13665 1.79201,3.23974 2.41146,4.90725 l 0.58973,1.5875 2.1724,0.71438 c 1.76588,0.58069 1.99911,0.71467 1.24636,0.71599 -0.50933,7.9e-4 -1.39773,-0.16639 -1.97425,-0.37173 -0.57651,-0.20533 -1.0838,-0.33774 -1.1273,-0.29424 -0.0435,0.0435 0.0835,0.54416 0.28232,1.11256 0.19878,0.5684 0.56536,1.95619 0.81462,3.08398 0.24926,1.12779 0.55639,2.05052 0.68251,2.05052 0.12613,0 0.50913,-0.10638 0.85112,-0.23641 0.51519,-0.19587 0.95251,-0.0144 2.55057,1.05833 2.21148,1.48454 2.1297,1.6364 -0.2699,0.50121 -1.83343,-0.86736 -2.73382,-0.99617 -2.95391,-0.42261 -0.21666,0.5646 0.10112,1.48073 0.51362,1.48073 0.20131,0 0.36601,0.0976 0.36601,0.21696 0,0.388 1.91844,2.46994 2.48825,2.70032 0.50459,0.20401 0.48908,0.22569 -0.17238,0.24095 -0.47486,0.011 -1.08219,-0.30426 -1.75186,-0.90927 -0.56376,-0.50932 -1.07012,-0.92611 -1.12524,-0.92619 -0.0551,-8e-5 -0.0895,1.63703 -0.0763,3.63802 0.0131,2.00099 -0.0635,5.23868 -0.17038,7.19485 l -0.19427,3.55668 1.29486,1.16419 c 1.75172,1.57495 1.65488,1.99281 -0.11201,0.48331 l -1.40687,-1.20193 -0.95602,3.53775 c -2.01093,7.4414 -4.84193,12.91376 -8.7508,16.91539 -2.71691,2.78138 -7.29825,5.6748 -10.480063,6.61884 -1.69838,0.50391 -1.60562,0.49456 -1.60562,0.1618 0,-0.14552 0.15218,-0.26458 0.33819,-0.26458 0.18601,0 1.16827,-0.40283 2.182813,-0.89518 3.43035,-1.66471 7.68443,-5.07789 9.88663,-7.93236 1.68701,-2.18667 4.3852,-7.06206 5.28577,-9.5509 2.0095,-5.55355 2.82756,-12.52133 2.39904,-20.43373 -0.29077,-5.36881 -0.52274,-6.68585 -1.96135,-11.13591 -1.81991,-5.62955 -5.5437,-12.28221 -9.8071,-17.52067 -4.06267,-4.99184 -12.261813,-12.56163 -18.26999,-16.86762 -1.87851,-1.34629 -4.48702,-3.34497 -5.79671,-4.44149 -1.30969,-1.09652 -2.90768,-2.34648 -3.55109,-2.7777 -1.94226,-1.3017 -0.37701,-0.96679 2.51854,0.53889 1.39924,0.7276 2.6369,1.32292 2.75035,1.32292 0.30702,0 0.99515,-1.57129 1.31692,-3.00707 0.19654,-0.87703 0.19971,-1.57259 0.0104,-2.2758 -0.28353,-1.05294 -0.65184,-1.33172 -1.75942,-1.33172 -0.36958,0 -0.58411,-0.11539 -0.49191,-0.26458 0.0899,-0.14552 0.42439,-0.26525 0.74322,-0.26606 1.17086,-0.003 2.57986,-0.57041 2.99691,-1.20691 0.57478,-0.87721 0.50667,-2.8478 -0.14138,-4.09112 -0.28613,-0.54896 -0.45273,-1.06561 -0.37021,-1.14813 0.30268,-0.30268 1.67797,1.79754 1.83981,2.80958 0.15258,0.95421 0.22566,1.03148 0.85652,0.90566 0.37934,-0.0756 1.43385,-0.22156 2.34336,-0.32425 0.9095,-0.10269 1.65365,-0.2963 1.65365,-0.43025 0,-0.13395 -0.18583,-0.6029 -0.41295,-1.0421 -0.63883,-1.23537 -0.30201,-1.50012 0.52652,-0.41386 0.908227,1.19076 1.838337,1.27431 3.922947,0.3524 2.27438,-1.00584 3.636383,-3.00679 3.636383,-5.34232 0,-1.01761 0.0763,-1.20403 0.46302,-1.1306 0.35214,0.0669 0.48283,0.40047 0.54573,1.39306 z m 4.01833,35.22551 c 0,0.0854 0.69614,0.88903 1.54698,1.78594 0.85083,0.89691 2.11898,2.34512 2.8181,3.21824 1.37299,1.71473 3.12278,2.7322 5.6195,3.26765 2.69675,0.57835 4.5675,-0.7942 4.5675,-3.35112 0,-1.27551 -0.65164,-2.15753 -2.25683,-3.05468 -1.01426,-0.56689 -1.31401,-0.62502 -1.99632,-0.38717 -0.45354,0.15811 -1.86144,0.22675 -3.23579,0.15777 -2.02625,-0.1017 -2.72756,-0.26166 -4.19552,-0.95697 -1.61841,-0.76656 -2.86762,-1.06264 -2.86762,-0.67966 z m 5.87052,-32.95574 c 0.43817,0.79608 0.90958,1.58552 1.04757,1.75431 0.17012,0.20809 0.0552,0.44496 -0.35704,0.73576 -0.57137,0.40308 -0.63537,0.39528 -1.06435,-0.12963 -0.81607,-0.99854 -1.38606,-4.12892 -0.71083,-3.90384 0.15838,0.0528 0.64647,0.74732 1.08465,1.5434 z m -33.76812,1.96378 c 0.74481,1.13673 1.20948,3.10269 1.00361,4.24614 l -0.19055,1.05833 -0.21564,-1.4552 c -0.11861,-0.80037 -0.5644,-2.13982 -0.99065,-2.97657 -0.56793,-1.11486 -0.67571,-1.52135 -0.40339,-1.52135 0.20438,0 0.56287,0.2919 0.79662,0.64865 z m -21.85432,0.91968 c 0.53716,1.00369 -0.55712,2.15262 -1.54611,1.62333 -0.70922,-0.37956 -0.84597,-0.92714 -0.39305,-1.57379 0.49098,-0.70096 1.5757,-0.72867 1.93916,-0.0495 z m 15.53683,9.25848 c 1.01412,0.80172 5.59861,4.04737 8.15363,5.77246 0.58209,0.39301 2.90381,2.07902 5.15938,3.7467 2.25557,1.66767 4.99401,3.68917 6.08542,4.49221 8.776657,6.45776 16.5921,14.64558 20.18902,21.15097 2.10321,3.80388 2.34925,4.28168 2.20478,4.28168 -0.0629,0 -0.8359,-1.11377 -1.71775,-2.47505 -3.23013,-4.98627 -7.16218,-9.25651 -12.267383,-13.32246 -2.13211,-1.69809 -2.82767,-2.1973 -9.334717,-6.69961 -2.18281,-1.51032 -4.88541,-3.43689 -6.00577,-4.28128 -3.6493,-2.75037 -11.37041,-10.06504 -14.56375,-13.7971 l -1.39089,-1.62554 1.19062,0.94102 c 0.65485,0.51756 1.68868,1.33476 2.29741,1.816 z m 37.78697,-0.24348 c 0.10078,0.16307 -0.35003,0.26459 -1.17501,0.26459 -1.23103,0 -1.33853,0.0503 -1.33853,0.62577 0,0.34418 0.22492,0.91173 0.49983,1.26122 0.27491,0.34949 0.67816,1.06222 0.89611,1.58385 0.9638,2.30671 4.86417,3.71685 7.9275,2.8661 1.28173,-0.35596 1.52447,-0.86509 1.52447,-3.19747 0,-2.36357 0.35205,-2.164 0.91656,0.51958 0.60925,2.89631 0.5156,4.56407 -0.21526,3.83322 -0.0994,-0.0994 -1.41156,-0.15005 -2.91601,-0.11266 -3.0327,0.0754 -3.98724,-0.1842 -5.71805,-1.55503 -1.14984,-0.91069 -1.3923,-0.96034 -1.8713,-0.38318 -0.6814,0.82104 -1.78215,1.20438 -2.69849,0.93977 l -0.85891,-0.24803 0.90521,-0.0239 c 0.49787,-0.0131 1.12294,-0.22091 1.38906,-0.46175 0.6733,-0.60932 0.64823,-2.45679 -0.0453,-3.33848 -0.58982,-0.74983 -0.69771,-2.03467 -0.21166,-2.52072 0.38335,-0.38335 2.75957,-0.42541 2.98979,-0.0529 z m -8.68598,8.18649 c 0.84245,0.51368 1.99302,2.22094 2.32856,3.45518 0.14106,0.51888 0.0472,0.45516 -0.43555,-0.29557 -1.10417,-1.71721 -2.043673,-2.64448 -2.733043,-2.69747 -0.36876,-0.0283 -0.66822,-0.14041 -0.66546,-0.24904 0.003,-0.10863 0.005,-0.31657 0.005,-0.46209 0,-0.40913 0.57862,-0.31311 1.500483,0.24899 z m 14.83939,6.78267 c -0.2604,0.26039 -0.72946,-0.13936 -0.72946,-0.62168 0,-0.40388 0.0348,-0.40315 0.44728,0.009 0.246,0.246 0.37298,0.52157 0.28218,0.61236 z m -44.47506,3.35324 c -0.0734,0.1819 -0.13345,0.0331 -0.13345,-0.33073 0,-0.3638 0.06,-0.51263 0.13345,-0.33073 0.0734,0.1819 0.0734,0.47956 0,0.66146 z m 57.22168,2.48763 c 0.22156,1.21712 -0.0772,2.53385 -0.68861,3.03534 -0.40013,0.32818 -0.42332,0.29891 -0.23561,-0.29745 0.45859,-1.45687 0.47045,-2.65062 0.033,-3.31828 -0.2398,-0.36598 -0.35743,-0.79254 -0.2614,-0.94792 0.28871,-0.46715 0.94869,0.40792 1.15264,1.52831 z m 3.39818,10.01393 c 0.60303,0.94589 0.99266,1.71979 0.86585,1.71979 -0.28578,0 -1.60052,-1.53806 -1.60052,-1.87238 0,-0.52203 -0.53526,-0.20623 -0.92373,0.54499 -0.22448,0.4341 -0.75741,0.96988 -1.18428,1.19062 -1.0096,0.52209 -3.41753,0.50956 -4.1097,-0.0214 -0.50151,-0.38469 -0.48767,-0.39462 0.26458,-0.19002 0.43657,0.11874 1.35221,0.21518 2.03478,0.21432 1.00959,-0.001 1.39138,-0.1456 2.04723,-0.77395 0.4434,-0.42481 0.88046,-1.16825 0.97123,-1.65208 0.0908,-0.48383 0.24898,-0.8797 0.35158,-0.8797 0.10261,0 0.67995,0.77391 1.28298,1.71979 z m -3.27574,10.96401 -0.70935,0.67766 0.43458,-0.65419 c 0.53944,-0.81201 0.58481,-2.87665 0.0676,-3.07512 -0.2991,-0.11478 -0.26239,-0.38909 0.19844,-1.48276 l 0.56543,-1.34193 0.0763,2.59934 c 0.074,2.52005 0.0547,2.62002 -0.63302,3.277 z m -95.31463,16.22193 c 1.08067,1.49159 2.6105,3.60495 3.39963,4.69635 0.78912,1.09141 2.19549,3.11547 3.12528,4.49792 4.15053,6.17123 10.92005,13.65347 14.93235,16.5045 2.00865,1.42728 2.36391,1.85361 0.66146,0.79378 -4.62712,-2.88055 -10.95295,-9.63877 -15.75446,-16.83132 -1.75966,-2.63593 -4.72524,-6.93591 -7.30176,-10.58727 -0.69311,-0.98227 -1.20782,-1.78594 -1.14379,-1.78594 0.064,0 1.00061,1.22039 2.08129,2.71198 z m 89.56644,0.65872 c 0.88617,0.65256 0.16416,0.56689 -0.81185,-0.0963 -0.78521,-0.53357 -0.96827,-0.8032 -0.84846,-1.24976 0.084,-0.31318 0.15995,-0.80753 0.16875,-1.09857 0.009,-0.29105 0.24777,0.0661 0.53106,0.79375 0.2833,0.7276 0.71552,1.47051 0.9605,1.65091 z M 46.8132,198.37816 c 1.55184,2.05868 4.02676,5.01549 5.49983,6.57069 l 2.6783,2.82763 -2.72265,-2.64584 c -2.84923,-2.76883 -10.34604,-12.37318 -10.34604,-13.25455 0,-0.10705 0.46553,0.46994 1.03452,1.28219 0.56898,0.81226 2.3042,3.1612 3.85604,5.21988 z m 27.19017,29.02042 c -0.18191,0.0734 -0.47956,0.0734 -0.66146,0 -0.1819,-0.0734 -0.0331,-0.13345 0.33073,-0.13345 0.3638,0 0.51263,0.0601 0.33073,0.13345 z M 77.97715,36.906714 c 0.25743,0.0671 0.61462,0.0627 0.79375,-0.01 0.17913,-0.0725 -0.0315,-0.12736 -0.46806,-0.12197 -0.43656,0.005 -0.58312,0.0647 -0.32569,0.13177 z m -1.17912,0.26197 c 0.19099,0.0764 0.4192,0.067 0.50712,-0.0209 0.0879,-0.0879 -0.0684,-0.15045 -0.34727,-0.13896 -0.30823,0.0127 -0.37092,0.0754 -0.15985,0.15985 z m 31.13815,52.24619 c -1.01865,0.14982 -1.90011,0.31972 -1.9588,0.37754 -0.0587,0.0578 0.96637,1.20806 2.27794,2.55606 3.23197,3.32178 9.34694,10.143556 11.59822,12.938826 1.65532,2.05531 5.93324,7.46277 6.60347,8.34707 0.19148,0.25263 0.28032,0.0381 0.32154,-0.77628 0.0968,-1.91334 0.65282,-4.50241 1.26853,-5.90711 0.66518,-1.5176 1.76567,-2.22971 3.44576,-2.22971 0.78912,0 1.16584,0.18951 1.87824,0.94488 0.49013,0.51968 0.89502,1.08523 0.89978,1.25677 0.005,0.17154 0.2217,-0.30468 0.48211,-1.05827 1.17406,-3.39756 2.9595,-4.59329 7.1369,-4.77964 2.30004,-0.10261 2.7984,-0.0351 4.92806,0.66807 2.33145,0.76975 2.35677,0.77219 1.5875,0.15312 -1.64291,-1.32212 -11.50904,-6.011096 -18.0614,-8.583866 -8.37265,-3.2875 -16.7229,-4.74362 -22.40785,-3.90746 z m -93.0002,21.032776 c 0.003,5.75816 3.59897,16.23894 7.29471,21.25925 1.30737,1.77594 2.08677,2.34281 2.3343,1.69776 0.2031,-0.52928 -0.3036,-2.59846 -0.95611,-3.90434 -0.27972,-0.55981 -0.44074,-1.08567 -0.35782,-1.16858 0.0829,-0.0829 0.15075,-0.004 0.15075,0.17521 0,0.38446 2.63651,3.1163 3.65725,3.78949 1.2409,0.81838 1.21841,0.50763 -0.0486,-0.67231 -0.82513,-0.7684 -1.22736,-1.35876 -1.22736,-1.80144 0,-0.36216 -0.35718,-1.63719 -0.79374,-2.8334 -1.0526,-2.88417 -0.99118,-2.99787 0.2376,-0.4399 1.09902,2.28788 2.60103,4.21595 3.45909,4.44034 0.68638,0.17949 0.69796,-0.23434 0.0168,-0.59891 -0.62489,-0.33443 -1.54199,-3.12163 -1.73186,-5.2634 l -0.13196,-1.48844 0.37508,1.62227 c 0.59569,2.57647 1.52353,3.98292 3.5452,5.37394 1.21323,0.83477 1.38369,0.46753 0.28035,-0.60401 -0.64239,-0.62389 -1.00844,-1.29806 -1.23299,-2.27088 -0.47674,-2.06537 -0.36898,-2.46032 0.22247,-0.81532 0.61251,1.70358 1.88012,3.05276 3.10727,3.30719 l 0.87097,0.1806 -0.79853,-1.14794 c -0.84854,-1.21983 -1.63098,-3.7723 -1.56524,-5.10613 l 0.0396,-0.80431 0.10868,0.79375 c 0.26796,1.957 0.65904,2.78355 1.86798,3.94791 0.72825,0.7014 1.50177,1.20651 1.85041,1.20833 l 0.59907,0.003 -0.65198,-0.99218 c -1.43695,-2.18676 -1.52416,-4.62659 -0.22075,-6.1756 0.66698,-0.79266 0.77309,-0.82659 2.17229,-0.69467 l 1.47105,0.1387 -1.18528,-0.51872 c -0.6519,-0.2853 -1.54487,-0.79006 -1.98438,-1.1217 -0.43949,-0.33164 -2.16831,-1.46999 -3.8418,-2.52966 -1.67348,-1.05968 -4.70958,-3.08339 -6.74687,-4.49713 -4.78071,-3.31749 -5.44649,-3.65336 -7.54062,-3.80409 -0.94589,-0.0681 -1.92816,-0.20822 -2.18282,-0.31142 -0.41424,-0.16787 -0.46293,0.004 -0.46217,1.6266 z m 14.1973,12.59602 c -0.0734,0.1819 -0.13345,0.0331 -0.13345,-0.33073 0,-0.36381 0.0601,-0.51263 0.13345,-0.33073 0.0734,0.1819 0.0734,0.47955 0,0.66146 z m 0.26459,2.11666 c -0.0734,0.1819 -0.13346,0.0331 -0.13346,-0.33073 0,-0.3638 0.0601,-0.51263 0.13346,-0.33073 0.0734,0.1819 0.0734,0.47956 0,0.66146 z"
       id="path15632" />
  </g>
</svg>
