<?xml version="1.0" encoding="UTF-8" standalone="no"?>
<!-- Created with Inkscape (http://www.inkscape.org/) -->
<!--  width="229.91481mm"
   height="281.54761mm" -->
<svg
  
   viewBox="0 0 229.91481 281.54761"
   version="1.1"
   id="svg2346"
   inkscape:version="1.2 (dc2aedaf03, 2022-05-15)"
   sodipodi:docname="koiV2.svg"
   xmlns:inkscape="http://www.inkscape.org/namespaces/inkscape"
   xmlns:sodipodi="http://sodipodi.sourceforge.net/DTD/sodipodi-0.dtd"
   xmlns="http://www.w3.org/2000/svg"
   xmlns:svg="http://www.w3.org/2000/svg">
  <sodipodi:namedview
     id="namedview2348"
     pagecolor="#505050"
     bordercolor="#eeeeee"
     borderopacity="1"
     inkscape:showpageshadow="0"
     inkscape:pageopacity="0"
     inkscape:pagecheckerboard="0"
     inkscape:deskcolor="#505050"
     inkscape:document-units="mm"
     showgrid="false"
     inkscape:zoom="0.5209506"
     inkscape:cx="97.897957"
     inkscape:cy="521.16265"
     inkscape:window-width="1920"
     inkscape:window-height="1002"
     inkscape:window-x="-8"
     inkscape:window-y="-8"
     inkscape:window-maximized="1"
     inkscape:current-layer="layer1" />
  <defs
     id="defs2343" />
  <g
     inkscape:label="Layer 1"
     inkscape:groupmode="layer"
     id="layer1"
     transform="translate(14.735845,66.212238)">
    <path
       id="path11828"
       style="fill:#f1f2da;fill-opacity:1;stroke-width:0.264583"
       d="m 156.13176,-66.210688 c -1.61989,-0.01325 -3.48023,0.05241 -4.90564,0.202055 -4.78172,0.502004 -11.08026,2.85506 -16.37213,6.116423 -1.04225,0.642334 -4.88672,3.688047 -8.54366,6.768579 l -6.64921,5.601208 3.67523,2.352311 c 2.02135,1.293855 4.22782,2.706932 4.90306,3.140377 0.67525,0.433447 2.50557,1.921501 4.06745,3.306258 1.56188,1.384754 3.24708,2.87532 3.74499,3.31246 0.4979,0.437136 1.6251,1.630871 2.50476,2.653068 0.87967,1.022196 1.67353,1.830709 1.76423,1.796789 0.27289,-0.102102 3.53702,-6.243677 4.88549,-9.192203 0.69305,-1.515419 2.09143,-4.978049 3.1073,-7.694621 1.15933,-3.100126 2.39696,-5.83873 3.32383,-7.355107 1.69757,-2.777243 4.34741,-5.574365 6.87555,-7.257438 2.42705,-1.615783 2.81408,-2.862165 1.08107,-3.479891 -0.46316,-0.165094 -1.84242,-0.257018 -3.46232,-0.270268 z m -91.262128,6.060096 c -0.517459,0.0024 -1.006404,0.01473 -1.453658,0.03721 -1.299223,0.06528 -3.493193,0.377532 -4.875672,0.694014 -1.673816,0.383176 -2.537325,0.478663 -2.584855,0.285771 -0.153713,-0.623036 -0.976657,-0.653154 -4.125846,-0.149862 -3.029043,0.484092 -3.322102,0.574174 -3.953764,1.210779 -1.009664,1.017571 -1.798791,1.083281 -3.611149,0.30024 -2.002395,-0.865142 -3.79143,-0.981241 -6.162415,-0.399459 -2.11664,0.519358 -4.413863,1.898175 -5.864758,3.520199 -2.116584,2.366224 -4.145309,6.338236 -4.702038,9.206673 -1.198841,6.17688 1.07373,11.26225 5.408972,12.103654 1.735004,0.336739 1.891689,0.562378 2.252059,3.240112 0.583511,4.335627 2.93838,7.653004 7.662064,10.793657 0.744971,0.495305 2.162042,1.805591 3.149679,2.911966 0.987227,1.106472 2.623177,2.791309 3.635437,3.743958 2.169427,2.041678 6.381948,5.3768854 6.706567,5.3097534 0.12483,-0.02582 0.05147,-0.4029529 -0.162781,-0.8376749 -1.565146,-3.1756535 -1.665089,-3.8371385 -0.766878,-5.0596395 0.631515,-0.859518 1.337781,-1.133592 3.487643,-1.352372 l 1.195276,-0.12144 0.719852,2.308386 c 0.565275,1.812432 0.654507,2.369889 0.414962,2.5920902 -0.686291,0.6365771 -0.95706,2.2615314 -0.613399,3.6803955 0.278958,1.1517342 0.525778,1.567239 1.349788,2.2701457 0.554704,0.4731744 1.328093,0.9984454 1.718242,1.1673706 l 0.709,0.306958 -0.368453,1.74511311 C 63.570408,1.5512874 62.72755,7.5082902 62.6739,8.9656022 c -0.02227,0.6042971 -0.0233,2.3847768 -0.0026,3.9568648 0.130595,9.906581 4.279947,22.705387 10.171989,31.374829 2.369717,3.486741 4.972715,3.484706 4.751132,-0.0036 -0.117156,-1.844308 0.405498,-3.200098 2.881477,-7.474996 3.740711,-6.458519 5.339368,-10.473225 6.35,-15.947347 1.105393,-5.987478 1.43611,-8.564647 1.102776,-8.592757 -0.559739,-0.04719 -4.226443,-1.487763 -6.296774,-2.4737506 -2.450785,-1.1671798 -8.869251,-5.1633676 -8.971545,-5.5857055 -0.0408,-0.1684299 0.499085,0.05556 1.199927,0.497644 2.407441,1.5185981 5.503072,1.7390618 11.134204,0.79375 l 2.264461,-0.3798218 0.425814,1.0454143 c 0.985547,2.4217847 4.355752,5.6316416 6.695715,6.3768716 2.45399,0.781559 4.608354,-0.233732 5.079277,-2.394169 l 0.282153,-1.2944946 1.088818,0.6428548 c 0.62149,0.3668171 2.29581,0.8500968 3.90157,1.1260298 1.54729,0.265899 2.78191,0.534876 2.74351,0.597896 -0.0385,0.06308 -0.98831,0.515956 -2.11099,1.00614 -1.12267,0.490186 -2.05522,0.927781 -2.07222,0.972551 -0.46981,1.233851 -0.55781,1.657531 -0.44235,2.134236 0.49334,2.036854 3.43917,2.774339 4.66638,1.168404 l 0.47956,-0.627868 1.00045,1.651062 c 1.40103,2.312766 2.42559,3.197482 10.27638,8.878011 5.24089,3.792107 11.48328,10.362154 14.26528,15.013554 1.88038,3.143932 3.00446,4.695699 5.47512,7.557161 1.05953,1.227118 1.97917,2.473607 2.04277,2.770374 0.14801,0.685962 -4.94821,-5.271977 -6.25285,-7.310148 -0.53934,-0.842596 -1.46593,-2.149563 -2.05931,-2.904216 -1.04086,-1.323787 -1.07996,-1.345206 -1.11156,-0.6165 -0.0635,1.465999 -2.86596,6.87927 -6.5257,12.604399 -5.44542,8.51856 -7.93973,10.934317 -14.34021,13.890625 -1.55888,0.720014 -1.91386,1.344672 -1.36167,2.396236 0.77901,1.483507 5.5659,1.155931 9.41338,-0.643888 3.07245,-1.437269 4.92981,-2.633363 5.55005,-3.575493 0.38636,-0.586911 0.66723,-0.793674 0.89245,-0.65629 0.73745,0.449866 -0.41139,7.678436 -1.77147,11.14764 -2.73306,6.971336 -3.81171,9.0525 -6.19859,11.956376 -0.86356,1.050604 -2.3638,2.527289 -3.33365,3.28197 -2.09478,1.630042 -1.26837,1.360069 2.34663,-0.767395 9.20451,-5.416906 15.32992,-11.07776 19.019,-17.575672 2.02193,-3.561415 3.37151,-6.267314 3.47214,-6.961848 0.13096,-0.906946 1.49687,4.707466 1.71979,7.070886 0.28194,2.989159 -0.27569,8.28849 -1.42627,13.558345 l -0.39791,1.823662 -1.08934,0.04961 c -1.98353,0.09046 -2.86792,0.484661 -4.5806,2.041219 -0.9783,0.889119 -2.82547,2.151861 -4.53151,3.098002 -2.58669,1.434576 -3.20801,1.673974 -6.1004,2.351278 -1.82098,0.426383 -8.26076,1.432627 -14.82028,2.315621 -6.38004,0.858825 -13.495308,1.82822 -15.811957,2.15439 -10.893832,1.53381 -11.960684,1.64334 -20.619413,2.11563 -9.690941,0.5286 -17.570269,1.54205 -23.898283,3.07372 -9.193088,2.22486 -14.869091,4.95946 -21.16305,10.19679 l -2.708361,2.25361 5.464266,-0.99219 c 8.461273,-1.53667 12.773022,-1.75028 19.759517,-0.97875 5.332425,0.58886 7.671188,1.22506 10.380245,2.82412 1.289741,0.76128 2.36206,1.45436 2.3828,1.53996 0.02074,0.0856 -1.317713,0.56198 -2.974495,1.05885 -3.233205,0.96958 -7.255681,2.7038 -9.838159,4.2416 -4.004334,2.38449 -8.245728,6.91005 -9.98182,10.65103 -1.094626,2.3587 -1.80846,5.68345 -1.613855,7.51685 0.355551,3.34976 2.941278,5.3919 5.915401,4.67155 1.425103,-0.34517 1.98633,-0.15245 3.146061,1.08055 2.04122,2.17021 4.562511,3.31325 6.351551,2.87993 0.491867,-0.11913 1.638161,-0.5913 2.547131,-1.04955 1.719739,-0.86701 4.132378,-1.57108 5.141288,-1.50068 0.711896,0.0497 1.649556,1.07668 1.877922,2.05776 0.09255,0.39676 0.04262,1.48658 -0.110588,2.42207 -0.768354,4.69124 -0.8815,5.87793 -0.719336,7.54528 0.222457,2.28739 1.255216,5.05454 2.432927,6.52053 1.251052,1.55728 3.208466,2.65066 5.839437,3.26181 2.104986,0.48898 2.363462,0.62811 3.428214,1.83762 0.633447,0.71957 1.799485,2.36751 2.591056,3.66231 0.791572,1.29479 1.969221,2.99435 2.616895,3.77703 3.19415,3.85991 8.370677,5.61525 15.359269,5.20743 3.300155,-0.19258 12.969477,-2.65118 12.821957,-3.26026 -0.0293,-0.12094 -0.25644,-0.17434 -0.50488,-0.11834 -0.8309,0.18773 -4.11466,-0.51301 -6.817671,-1.45469 -1.513875,-0.52742 -3.834363,-1.64677 -5.343343,-2.57814 -2.211568,-1.36504 -2.958121,-2.00614 -4.369759,-3.75171 -4.674051,-5.77973 -5.535963,-12.55529 -2.74867,-21.60643 1.127559,-3.66151 2.192722,-5.93207 4.736662,-10.10016 3.56887,-5.84737 8.402308,-10.76822 14.639421,-14.904 1.22557,-0.81268 5.12934,-3.15523 8.67544,-5.20537 10.2679,-5.93625 15.00429,-9.0487 21.30774,-14.00328 6.05058,-4.75581 9.4056,-8.10209 16.49977,-16.457909 3.20237,-3.771899 4.43254,-5.502838 7.73389,-10.88099 2.87182,-4.678397 4.39369,-7.496141 5.66891,-10.493416 3.96589,-9.321438 5.41477,-15.582667 5.40277,-23.34948 -0.002,-0.967477 -0.0589,-1.79312 -0.12764,-1.83503 -0.0687,-0.04192 -0.30596,0.746076 -0.52762,1.751315 -0.22167,1.005228 -1.08287,3.523749 -1.91358,5.596557 -0.83072,2.072808 -1.93728,5.050305 -2.45928,6.616651 -1.07452,3.224288 -2.05108,4.823563 -3.09387,5.066874 -1.97421,0.461294 -6.51718,-1.791748 -8.40155,-4.166671 l -0.9555,-1.204061 1.0356,-1.46761 c 0.66542,-0.943082 1.0926,-1.916403 1.19579,-2.723348 0.14969,-1.170655 0.1048,-1.361448 -0.66146,-2.819983 -1.06908,-2.034972 -1.29413,-3.036209 -1.12034,-4.986259 0.8095,-9.082681 -1.74408,-21.234011 -6.38359,-30.374374 -1.20319,-2.370407 -1.98395,-3.730033 -6.75825,-11.7713742 -0.9911,-1.6693125 -2.22816,-3.5440308 -2.74918,-4.166154 -0.52102,-0.6221232 -0.86249,-1.15151265 -0.75861,-1.17667232 0.10387,-0.0251597 1.00278,0.58362462 1.99729,1.35340572 6.00165,4.6454723 9.02539,8.1389118 11.83235,13.6694498 3.65201,7.19551 5.57819,14.762506 5.8751,23.081279 0.2979,8.346743 1.59102,10.79496 5.38881,10.201961 2.96355,-0.462738 3.87491,-1.960803 4.50516,-7.406266 1.2308,-10.634389 0.86348,-18.792429 -1.23094,-27.35337 -2.5568,-10.4508917 -8.92816,-24.188336 -15.59801,-33.630505 -2.76325,-3.911793 -6.69847,-7.152936 -9.48004,-7.808309 -0.72485,-0.170784 -1.49894,-0.445189 -1.71979,-0.609782 -0.22086,-0.164586 -1.38275,-1.822212 -2.58228,-3.683496 -4.2991,-6.670887 -5.76999,-7.995281 -10.0738,-9.06973 -2.51194,-0.627112 -4.38696,-0.66268 -7.45846,-0.141077 -1.40218,0.238111 -2.56267,0.377482 -2.57917,0.309542 -0.0165,-0.06794 0.21332,-0.874589 0.51056,-1.792656 0.96379,-2.976926 0.666,-6.09283 -0.70745,-7.401615 -1.6708,-1.592152 -12.33213,-4.945755 -17.008778,-5.350061 -3.616946,-0.312689 -5.234133,0.448773 -5.941239,2.797245 -0.483544,1.605956 -0.366295,1.644936 -2.858223,-0.951363 -2.815466,-2.933402 -3.119024,-3.164571 -4.624008,-3.519165 -1.476315,-0.347837 -4.802554,-0.440404 -9.022188,-0.251148 -2.731987,0.122532 -6.097189,-0.0068 -5.961393,-0.229443 0.05332,-0.08741 1.276502,-0.303466 2.71818,-0.480074 1.441678,-0.176613 2.95134,-0.442379 3.354834,-0.590145 0.688428,-0.252109 0.611177,-0.30359 -1.254187,-0.838192 -1.953291,-0.559797 -6.976622,-1.008262 -10.598836,-0.991153 z m 11.524878,25.094075 c 0.761442,-0.184428 10.214269,3.272616 15.666227,5.729366 5.977584,2.693607 16.923543,8.387253 21.787303,11.333158 4.30017,2.604549 4.65476,2.871344 9.41699,7.086906 6.27368,5.5534847 13.74791,15.0794748 17.40566,22.183142 0.69361,1.347057 1.75637,3.921742 2.36161,5.721615 0.76517,2.275565 1.2028,4.035711 1.43661,5.777425 0.1849,1.377619 0.23166,2.1409 0.10335,1.696537 -0.45986,-1.59286 -4.03273,-7.205233 -6.46575,-10.156486 -1.36186,-1.651937 -2.48829,-3.051958 -2.50269,-3.111438 -0.0144,-0.05948 0.22012,-0.103585 0.52089,-0.09819 0.67747,0.01229 0.61051,-0.335319 -0.33486,-1.7363279 -0.81821,-1.2125776 -2.25439,-2.5825214 -4.90203,-4.6751668 -2.2019,-1.7403624 -3.40684,-3.3049146 -2.93315,-3.80855308 0.16897,-0.17951048 0.52104,-0.32696706 0.7829,-0.32762858 1.19736,-0.002891 -0.17844,-1.99607254 -4.88963,-7.08277184 -5.84793,-6.3140468 -8.59684,-8.6662728 -15.00683,-12.8421098 -7.87668,-5.131325 -22.188748,-12.163124 -29.968715,-14.724166 -1.506739,-0.495994 -2.621852,-0.930446 -2.477885,-0.965316 z m 33.14165,3.533634 c 5.71034,-0.0101 11.21615,0.530908 16.0662,1.606104 6.96876,1.544885 12.23011,3.700958 13.96607,5.723165 0.42991,0.500802 0.76464,0.997214 0.74414,1.103292 -0.0205,0.106078 -0.5886,-0.13711 -1.26297,-0.540536 -2.17916,-1.303642 -6.82794,-2.066536 -16.20159,-2.658235 -12.71782,-0.802796 -16.90962,-1.166418 -19.59054,-1.700155 -2.57901,-0.513448 -8.711433,-2.190659 -8.761223,-2.396236 -0.01643,-0.06785 0.245648,-0.122523 0.58291,-0.120923 0.337263,0.0015 2.162199,-0.178094 4.05505,-0.399459 3.475783,-0.406486 6.975743,-0.610957 10.401953,-0.617017 z m -70.057226,3.017904 c 1.31448,-0.01201 4.558627,3.345215 5.04672,5.360396 0.164604,0.679596 0.09333,0.928198 -0.331763,1.160136 -0.787622,0.429735 -0.786852,0.429874 -1.80144,-0.142627 -1.430571,-0.807216 -2.651756,-2.533454 -3.159497,-4.46536 -0.371221,-1.412457 -0.369764,-1.687113 0.01033,-1.863969 0.06909,-0.03215 0.148013,-0.04778 0.235645,-0.04858 z m 73.224986,6.497278 c 0.0368,-0.06036 0.98519,0.209206 2.10737,0.599447 2.75168,0.956919 3.77115,1.179441 8.69352,1.897041 6.25975,0.912565 12.86313,2.790238 16.6579,4.736145 1.43073,0.733661 5.86955,4.043134 7.82898,5.8373702 1.25733,1.1513142 1.5275,1.5163961 1.22835,1.659847 -0.21094,0.1011376 -0.42384,0.5016837 -0.47284,0.8898682 -0.1125,0.8902992 0.46596,1.9678872 2.32337,4.3294515 0.77636,0.9870917 1.99856,2.74259678 2.71612,3.9010538 0.71755,1.1584499 1.28016,2.1423349 1.25056,2.1864299 -0.0296,0.044119 -0.4724,-0.3261398 -0.98443,-0.8226888 -1.4344,-1.3909784 -10.54088,-7.7043479 -14.87455,-10.3120321 -3.90114,-2.3474288 -6.0609,-3.4804827 -10.56473,-5.5438477 -1.3399,-0.613861 -4.63209,-2.572779 -7.31583,-4.353223 -2.68375,-1.780441 -5.73032,-3.610481 -6.77013,-4.066418 -1.0398,-0.455937 -1.86046,-0.878084 -1.82366,-0.938444 z m 52.40145,9.553939 c -1.17622,1.44e-4 -2.27292,0.04462 -3.21065,0.138493 -1.46183,0.146329 -2.84151,0.266613 -3.06597,0.267167 -0.25711,6.06e-4 -0.36308,0.187299 -0.28628,0.504362 0.0803,0.331455 0.84149,0.785543 2.22828,1.330151 l 2.10582,0.826823 0.29972,1.5968018 c 0.37669,2.0044443 0.88687,2.3909677 3.43442,2.6044922 3.20132,0.2683135 5.38304,1.9259358 5.97741,4.54132482 0.62948,2.76983328 -0.26435,4.14974598 -3.13986,4.84621578 -1.1773,0.285151 -1.66043,0.5044253 -1.60404,0.7286377 0.16381,0.6539057 1.9618,2.6253299 3.18999,3.497461 1.89185,1.3434152 13.74866,7.8950997 17.09146,9.4443847 6.06582,2.811337 12.69482,7.398122 16.27188,11.258744 1.79613,1.938523 1.58283,0.726348 -0.49041,-2.785359 -1.03881,-1.759559 -3.79592,-6.113592 -4.37183,-6.903972 -0.22517,-0.309037 -0.16941,-0.435071 0.23617,-0.5333 0.82954,-0.200925 6.14808,3.372052 9.42526,6.331913 1.56331,1.411932 4.13371,4.522343 5.09064,6.160347 0.32151,0.550323 0.68196,0.977093 0.80099,0.948263 0.4127,-0.09996 -0.6341,-3.540891 -2.15956,-7.099308 C 207.72818,13.118464 199.62147,2.5704598 190.46093,-3.9829615 184.87349,-7.980212 180.06628,-10.40037 175.7285,-11.40008 c -2.84614,-0.655945 -7.09445,-1.054115 -10.62313,-1.053682 z m 8.72764,27.183353 c -0.0438,-0.0085 -0.0734,-0.0063 -0.0879,0.0083 -0.30204,0.305568 0.0453,1.515307 0.73845,2.570902 0.32877,0.500675 1.5094,2.036604 2.62362,3.413745 8.82405,10.906391 10.48751,13.162491 13.1439,17.828369 0.88523,1.55489 1.85779,3.485039 2.16162,4.289144 l 0.55242,1.461927 0.46922,-2.25361 c 0.81289,-3.907398 0.72497,-5.575221 -0.45061,-8.554516 -2.07679,-5.263151 -5.43207,-9.154336 -11.81789,-13.70459 -1.48813,-1.060379 -3.71945,-2.678306 -4.95835,-3.595646 -1.08403,-0.802666 -2.06818,-1.404293 -2.37453,-1.463994 z m -75.418656,2.134237 c -0.188104,0.308356 -0.221651,12.865319 -0.03824,14.300936 0.124244,0.972604 0.605976,2.697311 1.157552,4.143416 0.519694,1.362492 1.041934,2.453925 1.160654,2.425175 0.47547,-0.115163 1.70104,-2.632125 2.05207,-4.21473 0.80662,-3.636622 0.94708,-6.06516 0.4687,-8.101831 -0.38898,-1.656232 -0.75934,-2.412112 -2.59364,-5.297867 -1.176744,-1.851306 -2.169976,-3.315949 -2.207096,-3.255099 z m 9.297626,3.244246 0.0134,1.493966 c 0.0264,2.982046 0.62195,8.571943 1.14205,10.719243 0.46567,1.922617 0.78184,2.593993 2.5244,5.363496 1.54116,2.449409 2.0808,3.536704 2.38538,4.806942 0.97031,4.047094 0.15632,8.608909 -2.29753,12.880351 -1.23849,2.155876 -1.10729,2.069948 1.62367,-1.067118 2.18885,-2.514334 4.06,-5.485942 4.9165,-7.807276 0.75111,-2.035697 2.001,-7.770332 2.18229,-10.012825 0.13548,-1.675671 0.0837,-2.012418 -0.50539,-3.256132 -0.36132,-0.762884 -0.97553,-1.810946 -1.36478,-2.329057 -0.7172,-0.954685 -3.83291,-4.058518 -6.83421,-6.80837 -0.90475,-0.828954 -2.12696,-2.06463 -2.71559,-2.745569 z m 67.27755,22.413619 c -0.12664,0.049 -0.14765,0.369889 -0.0863,1.058851 0.10089,1.13345 -0.30421,9.894227 -0.54571,11.804447 -0.0562,0.444807 -0.15427,2.612754 -0.21807,4.817277 -0.16581,5.726657 -0.73465,9.231305 -2.08153,12.825574 -1.13502,3.028921 -3.34771,5.482224 -5.00073,5.544364 -1.01724,0.03824 -1.44266,-0.812785 -1.10226,-2.206067 0.32463,-1.328808 0.0205,-1.274452 -0.47077,0.08423 -0.86669,2.396791 -3.75154,7.797504 -7.76386,14.535547 -2.27657,3.82312 -4.081,6.986832 -4.0101,7.030062 0.0709,0.04325 0.43998,-0.110275 0.82011,-0.341065 0.38014,-0.23078 1.23087,-0.606612 1.89084,-0.835091 0.91459,-0.316522 1.13426,-0.325929 0.92294,-0.04031 -0.15254,0.206172 -0.68851,1.284002 -1.19062,2.39572 -0.5021,1.111703 -1.0956,2.235743 -1.31879,2.497523 -0.22319,0.2618 -1.21516,1.59071 -2.20451,2.95331 -1.83639,2.52914 -5.61703,7.04527 -6.63112,7.92096 -0.30958,0.26731 -1.05411,0.98803 -1.65417,1.60145 -1.77455,1.81407 -4.55823,4.0826 -6.82077,5.55832 -2.98516,1.94704 -7.36554,4.2459 -8.71109,4.57181 -0.62688,0.15184 -1.11939,0.36308 -1.09399,0.46923 0.10854,0.45434 10.59091,-2.83731 14.50764,-4.5558 3.14549,-1.38011 4.79179,-2.34704 8.37933,-4.92063 5.50018,-3.94568 9.19222,-7.73534 14.59601,-14.98306 0.85149,-1.142044 1.72543,-2.119513 1.942,-2.171963 0.21658,-0.05246 0.60007,0.167497 0.85214,0.488859 0.38445,0.490096 0.43689,1.102457 0.32712,3.799764 -0.10751,2.64164 -0.34898,4.61401 -0.80667,6.5903 -0.0292,0.12588 0.81824,-0.7168 1.88257,-1.87224 4.77194,-5.18047 9.5531,-16.437118 10.70839,-25.210862 0.76005,-5.772119 0.72362,-10.584282 -0.14625,-19.29598 -0.32734,-3.278776 -4.27307,-19.749151 -4.80952,-20.076294 -0.0666,-0.04059 -0.12005,-0.05457 -0.16226,-0.03824 z m -29.73256,1.02061 1.01545,1.72961 c 0.55871,0.951268 1.48238,2.841601 2.05258,4.200777 1.57658,3.75818 1.58755,6.167831 0.0543,12.245765 -0.42249,1.674748 -0.48264,2.485221 -0.25424,3.428214 0.232,0.957883 0.18645,1.509688 -0.20309,2.459281 -0.55689,1.357561 -1.08014,2.059514 -0.98444,1.32085 0.0321,-0.247575 0.0111,-1.211834 -0.0465,-2.143022 -0.0576,-0.931185 -0.0923,-2.676271 -0.077,-3.877799 0.0203,-1.598485 -0.28724,-3.861441 -1.14618,-8.434111 -1.18538,-6.31052 -1.21516,-6.75691 -0.64544,-9.714135 z M 1.807848,134.30007 0.58570041,134.77394 c -1.72385341,0.66766 -3.66653141,1.96175 -5.63118081,3.7512 -7.2901906,6.6401 -10.8222606,15.63862 -9.3684206,23.86727 0.202953,1.14867 0.419011,2.50515 0.480591,3.01429 0.110984,0.91808 0.114665,0.92043 0.434082,0.26665 0.595949,-1.21981 5.9044136,-5.31864 13.33303632,-10.29446 C 10.705042,148.09713 16.499216,142.96723 19.840339,137.66576 c 1.152979,-1.8295 1.409682,-2.66873 0.531751,-1.73892 -1.785809,1.89134 -10.124251,7.46021 -13.2984135,8.88163 -2.150596,0.96307 -5.4653884,1.78172 -6.73395591,1.66295 -0.56949447,-0.0533 -1.41299139,-0.37418 -1.87430419,-0.71313 -1.8239095,-1.34008 -1.4685857,-3.49489 1.3425537,-8.14731 z" />
  </g>
</svg>
