<?xml version="1.0" encoding="UTF-8" standalone="no"?>
<!-- Created with Inkscape (http://www.inkscape.org/) -->
<!--  width="122.99776mm"
   height="267.31607mm" -->
<svg
  
   viewBox="0 0 122.99776 267.31607"
   version="1.1"
   id="svg7815"
   inkscape:version="1.2 (dc2aedaf03, 2022-05-15)"
   sodipodi:docname="underwater-plant.svg"
   xmlns:inkscape="http://www.inkscape.org/namespaces/inkscape"
   xmlns:sodipodi="http://sodipodi.sourceforge.net/DTD/sodipodi-0.dtd"
   xmlns="http://www.w3.org/2000/svg"
   xmlns:svg="http://www.w3.org/2000/svg">
  <sodipodi:namedview
     id="namedview7817"
     pagecolor="#505050"
     bordercolor="#eeeeee"
     borderopacity="1"
     inkscape:showpageshadow="0"
     inkscape:pageopacity="0"
     inkscape:pagecheckerboard="0"
     inkscape:deskcolor="#505050"
     inkscape:document-units="mm"
     showgrid="false"
     inkscape:zoom="0.5209506"
     inkscape:cx="24.954381"
     inkscape:cy="555.71488"
     inkscape:window-width="1920"
     inkscape:window-height="1002"
     inkscape:window-x="-8"
     inkscape:window-y="-8"
     inkscape:window-maximized="1"
     inkscape:current-layer="layer1" />
  <defs
     id="defs7812" />
  <g
     inkscape:label="Layer 1"
     inkscape:groupmode="layer"
     id="layer1"
     transform="translate(-1.3487601,-31.54148)">
    <path
       style="fill:#f1f2da;fill-opacity:1;stroke-width:0.264583"
       d="m 36.24534,295.74869 c -0.24465,-1.70987 -0.62348,-4.35901 -0.84185,-5.88698 -1.4543,-10.17598 -4.68507,-23.32317 -7.50173,-30.52725 -2.19539,-5.61509 -6.58087,-13.46935 -9.96408,-17.84532 -2.3514,-3.04141 -9.30622,-9.98097 -11.46746,-11.44231 -0.94588,-0.63957 -2.55322,-1.60816 -3.57187,-2.15244 -1.01865,-0.54427 -1.70268,-0.99272 -1.52008,-0.99655 1.25887,-0.0264 10.51783,4.03502 13.59163,5.96192 2.11384,1.32511 6.94961,5.07193 9.03206,6.99813 4.22265,3.90583 9.03064,10.04729 12.63902,16.14437 1.39238,2.35272 6.62211,12.50008 7.29157,14.148 0.17882,0.44017 0.23025,0.37343 0.30585,-0.39688 0.17384,-1.77135 1.69604,-8.53532 2.12174,-9.42802 0.40592,-0.85123 0.39632,-0.99898 -0.18293,-2.81281 -0.33625,-1.05291 -1.74408,-4.71235 -3.12853,-8.13209 -1.38444,-3.41974 -2.73046,-6.75349 -2.99115,-7.40833 -0.26069,-0.65484 -1.02576,-2.44078 -1.70016,-3.96875 -0.67439,-1.52797 -1.56462,-3.61156 -1.97828,-4.63021 -0.41366,-1.01864 -1.19309,-2.80458 -1.73207,-3.96875 -1.33409,-2.88154 -4.31452,-9.98963 -4.93683,-11.77395 -0.27915,-0.80037 -0.98358,-3.12208 -1.56541,-5.15938 -0.58184,-2.03729 -1.40678,-4.89479 -1.83321,-6.34999 -0.97885,-3.34035 -1.58773,-7.78807 -1.6278,-11.89058 -0.0248,-2.54047 0.1239,-3.97248 0.72975,-7.02713 l 0.76091,-3.83646 0.19216,2.51354 c 0.49886,6.52535 2.3411,13.14825 5.77736,20.76979 1.15725,2.56675 3.68837,6.17015 7.61985,10.84791 2.32255,2.76344 6.85698,9.38399 7.52037,10.98021 0.37241,0.89609 0.39131,0.81008 0.58432,-2.659 0.49667,-8.92697 -1.70801,-16.65706 -6.39937,-22.43757 -3.72163,-4.58564 -4.39275,-5.49814 -4.99077,-6.78571 -1.42623,-3.07076 -1.79946,-6.53536 -1.02724,-9.53556 0.22324,-0.86732 1.66973,-4.07726 3.21442,-7.13319 4.565,-9.03116 6.04225,-14.31282 5.37212,-19.20716 -0.35604,-2.60035 -1.15648,-6.30322 -2.76856,-12.80743 -1.28503,-5.1847 -2.06883,-8.50101 -3.97086,-16.80104 -0.68362,-2.98317 -1.72118,-7.26942 -2.30568,-9.525 -0.9538,-3.68071 -1.04667,-4.31664 -0.90609,-6.20459 0.19356,-2.5995 1.19751,-4.85808 3.59872,-8.096 2.53479,-3.41805 3.01538,-4.63158 3.03352,-7.65982 0.0133,-2.21245 -0.0761,-2.71956 -0.74575,-4.23334 -1.60207,-3.62144 -2.04519,-5.22283 -1.96289,-7.09361 l 0.0779,-1.76993 1.25676,1.68275 c 0.69123,0.9255 1.64373,2.41379 2.11667,3.30729 0.47295,0.8935 1.50316,2.27939 2.28935,3.07975 2.05471,2.09174 2.66716,3.5519 2.66343,6.35 -0.004,2.67487 -0.64455,4.7375 -2.47773,7.97311 l -1.20555,2.12785 0.58895,0.86507 c 0.32392,0.4758 1.48192,1.84729 2.57333,3.04776 1.09141,1.20047 2.25459,2.61637 2.58486,3.14643 1.52981,2.45525 1.81122,5.79773 0.85105,10.10834 -0.89852,4.03383 -2.5957,13.17465 -2.89405,15.587 -0.1525,1.23311 -0.27728,5.39314 -0.27728,9.24451 v 7.0025 l 1.03744,1.73569 c 1.95415,3.26942 2.55473,7.15342 1.64451,10.63513 -0.5945,2.27403 -1.94181,5.04911 -3.3416,6.88277 l -0.93907,1.23012 1.27271,0.93425 c 3.9069,2.86793 5.60169,5.8474 6.12679,10.77101 0.16972,1.59131 0.52915,2.95544 1.21577,4.61414 0.53615,1.2952 1.4466,4.3862 2.02322,6.86888 0.92032,3.96248 1.06667,5.04736 1.19786,8.87961 0.21116,6.1681 -0.4309,10.70616 -2.12373,15.01043 -0.50178,1.27587 -1.2085,3.3318 -1.57048,4.56873 -0.36198,1.23693 -0.81207,2.62072 -1.00021,3.07509 -0.322,0.77766 -0.25521,1.01053 1.1383,3.96875 0.8142,1.72844 2.13449,4.69043 2.93398,6.5822 0.79949,1.89177 1.87582,4.33255 2.39185,5.42396 l 0.93823,1.98437 0.0106,-2.11666 c 0.0184,-3.69226 1.44736,-10.67727 2.57463,-12.58559 0.3769,-0.63803 0.33209,-0.89911 -0.69732,-4.06326 -1.71067,-5.2582 -1.71098,-7.20799 -0.002,-11.47648 0.44021,-1.09937 1.09873,-3.41192 1.46338,-5.13899 0.36465,-1.72706 0.92288,-3.93834 1.2405,-4.91394 1.12981,-3.47024 0.72898,-7.01551 -1.80094,-15.92903 -0.6815,-2.40109 -1.99321,-7.34219 -2.91491,-10.98021 -5.18656,-20.47171 -6.13798,-28.36826 -5.85993,-48.63576 0.14065,-10.25148 0.54309,-17.33887 1.25719,-22.14028 0.87743,-5.89958 4.54317,-18.59864 6.04229,-20.93203 0.41013,-0.63837 1.45406,-1.93458 2.31985,-2.88047 2.37462,-2.59431 4.22219,-4.89312 5.0018,-6.22343 1.80865,-3.08623 2.70032,-8.18238 1.96672,-11.24037 -0.3968,-1.65404 -2.05869,-5.99494 -3.02576,-7.90335 -0.37289,-0.736 -0.67803,-1.39999 -0.67803,-1.47554 0,-0.0756 0.68461,0.11769 1.52135,0.42944 3.82934,1.42673 4.57638,2.66365 4.76663,7.89242 0.0849,2.33437 -0.005,4.02729 -0.30569,5.75481 -0.59002,3.38953 -0.55284,3.91693 0.50737,7.19646 2.14264,6.62788 1.80753,12.22327 -1.03668,17.30918 -0.57006,1.01938 -2.29322,3.1548 -4.19648,5.20052 -1.77609,1.90903 -3.84712,4.32557 -4.60229,5.3701 -1.87648,2.59549 -3.39045,6.48088 -4.38561,11.25502 -0.71466,3.42854 -0.81083,4.42013 -0.83747,8.63578 -0.0294,4.65247 0.14292,8.15378 0.63805,12.96459 0.13479,1.30968 0.37036,4.25956 0.52348,6.55527 0.27493,4.122 0.68835,7.71963 1.4307,12.4503 0.20936,1.33412 0.57761,4.03302 0.81833,5.99755 0.24073,1.96453 0.66924,4.64344 0.95226,5.95313 0.28301,1.30968 0.75097,3.84483 1.0399,5.63365 0.28893,1.78882 1.19457,5.89648 2.01253,9.12812 0.81797,3.23165 1.56104,6.35198 1.65128,6.93406 0.16099,1.03849 0.17005,1.02349 0.48352,-0.79987 0.17571,-1.02201 0.80389,-3.46279 1.39596,-5.42396 1.84558,-6.11319 2.42603,-9.83923 2.57515,-16.53034 0.14185,-6.36457 -0.14257,-9.53095 -1.41409,-15.7427 -3.18817,-15.57518 -2.95978,-22.35213 0.99715,-29.58778 1.58301,-2.89471 2.30697,-3.90348 5.90788,-8.23203 5.77106,-6.93724 6.48425,-8.12641 7.15219,-11.92543 0.88165,-5.01459 -0.399,-10.78925 -3.47247,-15.65794 -0.34606,-0.5482 -0.6292,-1.06651 -0.6292,-1.15181 0,-0.46555 4.48241,4.04673 5.9259,5.9654 2.07196,2.75401 3.21035,4.98612 3.88171,7.61112 1.14172,4.46406 0.46879,7.23429 -3.25834,13.41362 -2.05864,3.41307 -2.96518,5.68749 -3.67372,9.21704 -0.35485,1.76764 -8e-4,3.96154 0.80656,4.9978 1.57986,2.02779 1.69271,3.45923 0.52674,6.68155 -1.08823,3.00746 -2.76344,5.71847 -5.83393,9.44107 -1.39531,1.69166 -2.86437,3.745 -3.26457,4.56298 -0.81482,1.66542 -1.2626,4.65017 -0.92332,6.15449 0.11715,0.51941 0.1534,1.55748 0.0806,2.30683 -0.0728,0.74935 0.0484,4.75574 0.26945,8.90308 0.41002,7.69353 0.38795,11.17384 -0.10654,16.80105 -0.32931,3.74751 -1.53195,9.99369 -2.6745,13.89062 -1.49757,5.10776 -1.48937,4.35146 -0.0851,7.85552 0.68875,1.71858 1.94779,5.16489 2.79787,7.65847 1.47077,4.31428 1.57162,4.77926 2.08291,9.60347 0.58705,5.53917 1.83344,11.2037 3.19,14.49785 0.4331,1.05171 0.79814,2.12327 0.8112,2.38125 0.0131,0.25798 0.18822,-0.43967 0.38925,-1.55034 0.20103,-1.11067 0.95181,-4.08723 1.66839,-6.61458 3.00193,-10.58766 3.69001,-17.33449 2.60033,-25.49727 -0.5699,-4.26911 -0.51949,-4.03882 -3.44572,-15.7427 -2.34044,-9.36096 -2.41471,-9.75127 -2.42058,-12.71995 l -0.006,-3.06265 1.1093,-2.23868 c 0.93098,-1.87879 1.68151,-2.84192 4.66875,-5.99129 2.72677,-2.87476 3.65667,-4.03798 3.97508,-4.97246 l 0.41564,-1.21983 -1.81875,-3.63056 c -2.04015,-4.07253 -3.10423,-7.23356 -3.43856,-10.21483 -0.2626,-2.3416 0.13127,-4.78282 0.95232,-5.90248 0.50096,-0.68314 2.98441,-2.53831 3.16124,-2.36148 0.0466,0.0466 -0.2157,0.82829 -0.58282,1.73717 -1.19302,2.95361 -0.9243,4.39255 1.66297,8.90516 2.39524,4.17767 3.31952,5.61238 6.05101,9.39271 3.30406,4.57275 4.24641,6.38681 4.59256,8.84089 0.27493,1.94921 -0.0956,4.76443 -0.93321,7.0908 -0.22455,0.62367 -2.11719,7.9205 -4.20585,16.21519 -2.08866,8.29468 -4.74952,18.83171 -5.913,23.41562 -1.16349,4.5839 -2.19478,8.92968 -2.29176,9.65729 -0.097,0.7276 -0.57218,3.76369 -1.05601,6.74687 -2.69444,16.61328 -3.51723,24.35256 -3.03792,28.575 0.14042,1.23693 0.33335,3.05263 0.42876,4.0349 0.16496,1.69851 0.62587,2.52624 0.62587,1.12398 0,-0.75176 1.00631,-3.72963 2.63745,-7.80471 1.37016,-3.42308 4.87936,-10.22169 7.37471,-14.2875 1.94242,-3.1649 2.11718,-3.44378 5.75966,-9.19121 1.22092,-1.92646 2.21985,-3.56014 2.21985,-3.6304 0,-0.0702 0.53089,-1.0257 1.17975,-2.1232 3.78474,-6.40161 6.1825,-13.4724 6.78431,-20.0063 0.32598,-3.53922 0.19155,-7.50472 -0.28782,-8.48996 -0.28723,-0.59035 -0.27706,-0.58859 0.28666,0.0494 0.88357,0.99999 2.76943,5.13733 3.51095,7.70254 0.93584,3.23747 1.24538,5.8637 1.23881,10.51036 -0.007,4.69322 -0.46367,7.95549 -1.56293,11.15584 -1.53537,4.47008 -1.87319,5.07954 -8.50597,15.34583 -5.79732,8.97315 -7.85674,12.94039 -9.7561,18.79405 -4.73961,14.60702 -6.55935,21.5848 -6.24231,23.93616 0.0981,0.7276 0.2242,2.03729 0.28021,2.91042 0.056,0.87312 0.17048,2.09351 0.25436,2.71198 l 0.1525,1.12448 h -9.3743 -9.3743 l -0.164,-0.99219 c -0.33073,-2.00091 -0.17423,-12.17627 0.23533,-15.30055 0.54706,-4.17319 1.85736,-10.51496 3.84969,-18.63226 1.33928,-5.45657 1.65511,-7.15168 1.65146,-8.86354 -0.008,-3.76859 -1.17849,-5.80434 -5.17208,-8.99584 -1.45674,-1.16416 -3.14652,-2.55632 -3.75507,-3.09368 l -1.10645,-0.97701 -0.49117,2.6968 c -0.36435,2.00051 -0.52146,4.43882 -0.60849,9.44368 -0.13283,7.6391 0.0758,9.77107 1.67718,17.14038 0.92232,4.24431 0.95464,4.5676 0.79911,7.99504 -0.0891,1.96453 -0.34222,4.88156 -0.5624,6.48229 -0.3346,2.43256 -1.43494,12.24738 -1.44605,12.89844 -0.002,0.10914 -2.20604,0.19844 -4.89817,0.19844 -3.73953,0 -4.89476,-0.078 -4.89463,-0.33073 9e-5,-0.1819 -0.24452,-2.77151 -0.54357,-5.75469 -0.67672,-6.75053 -1.82065,-13.88878 -3.02911,-18.90198 -0.50896,-2.11141 -0.92539,-4.07301 -0.92539,-4.35911 0,-0.2861 -0.1031,-0.5839 -0.22911,-0.66178 -0.27459,-0.1697 -1.01845,4.09543 -1.44972,8.31245 -0.30327,2.96532 -0.29322,3.10729 0.39486,5.58165 0.85883,3.08835 2.34231,12.27025 2.34231,14.49754 v 1.61665 h -7.37962 -7.37961 z m 54.89154,2.98344 c 0,-0.069 0.34332,-0.99169 0.76293,-2.05051 2.40675,-6.07303 4.02203,-12.31804 4.79895,-18.55381 1.23584,-9.91911 1.87567,-12.70243 3.62813,-15.78276 1.53133,-2.69166 9.75746,-9.96259 17.92978,-15.84784 1.89177,-1.36235 4.01206,-2.95074 4.71174,-3.52976 0.69968,-0.57901 1.31729,-1.00761 1.37246,-0.95245 0.14773,0.14774 -2.6291,3.84634 -4.77894,6.36531 -6.7148,7.86775 -10.706,14.32154 -11.99105,19.38954 -0.30471,1.20172 -0.60356,3.49028 -0.69101,5.29167 -0.31196,6.42629 -0.89569,10.66632 -1.89401,13.75748 -0.81158,2.51297 -2.51273,6.62395 -3.85938,9.32657 l -1.35132,2.71198 h -4.31914 c -2.37553,0 -4.31914,-0.0564 -4.31914,-0.12542 z M 53.87825,93.87927 c -0.0351,-3.96161 -0.609,-6.88749 -1.74528,-8.89833 -0.50551,-0.89458 -2.26509,-3.3106 -3.9102,-5.36893 -4.67633,-5.85099 -6.90118,-9.98593 -8.1652,-15.17528 -0.49928,-2.04978 -0.61542,-3.27021 -0.62948,-6.61459 -0.0183,-4.34195 0.31266,-6.05471 1.49596,-7.74292 0.28199,-0.4023 0.47359,-0.83272 0.42579,-0.95649 -0.0478,-0.12376 -1.32067,-1.15189 -2.8286,-2.28472 -3.21924,-2.41845 -4.66508,-4.22201 -5.85205,-7.29992 -0.67985,-1.76291 -0.80871,-2.43735 -0.74442,-3.89634 0,0 -0.18435,-1.0296 0.0777,-1.7644 0.26205,-0.7348 1.74324,-2.33587 1.74324,-2.33587 l 0.98406,2.17767 1.5988,3.35023 c 1.25419,2.6281 3.0601,3.79924 6.7864,6.86853 1.45521,1.19863 3.66022,3.23535 4.90003,4.52604 2.23056,2.3221 8.13776,9.41185 10.26264,12.31707 2.8483,3.89432 4.12059,7.48269 4.06772,11.47264 -0.0494,3.73091 -0.89043,6.06234 -4.08346,11.32035 -2.28067,3.75561 -3.33129,6.54133 -3.79334,10.05805 -0.21082,1.60454 -0.4242,2.95824 -0.47418,3.00822 -0.05,0.05 -0.10227,-1.19247 -0.11617,-2.76103 z"
       id="path7438"
       sodipodi:nodetypes="sssssssssssssssssssssssscsssssssssssssssssscssscscsssssscssscssssssssssscssssssssssssssssssssssssssssssssssssssssssssssssssssssssssssssssscssscssssssssssssssssssssssssscsssssscccsssssscssssscssssssssscccssssssssssssscsssssssssssszccssssssssss" />
  </g>
</svg>
